<svg xmlns="http://www.w3.org/2000/svg" width="372" height="328" fill="none"><rect width="186" height="117" y="18" fill="#246073" rx="8"/><rect width="186" height="120" y="197" fill="#246073" rx="8"/><circle cx="302.5" cy="166.5" r="69.5" fill="#fff"/><g filter="url(#a)"><circle cx="302.5" cy="166.5" r="56.5" fill="#3DC795"/></g><path fill="#233748" stroke="#233748" d="M358.5 165.73h-55.358V110.5c17.335-.642 53.303 11.571 55.358 55.23Z"/><path fill="#fff" d="M282.083 149.122a8.004 8.004 0 1 0 0-16.008 8.004 8.004 0 0 0 0 16.008ZM319.921 149.122a8.004 8.004 0 1 0 0-16.008 8.004 8.004 0 0 0 0 16.008ZM336.456 159.955c4.733-2.281 6.497-5.132 5.916-10.833H296.228c-2.367 2.851-2.367 8.552.009 10.832h15.721l.225 37.536c5.602 1.483 7.446 1.483 13.016 0v-37.536l11.257.001Z"/><path fill="#fff" d="M300.56 159.857s-5.523.187-12.509 0c-6.989-.182-10.713 5.464-10.713 12.886 0 7.421 3.965 13.357 10.768 13.357 6.796 0 7.661-7.171 7.661-7.171 4.938-1.769 6.79-1.769 11.728 0 0 0 .903 6.89-4.552 12.004-5.448 5.11-11.089 6.248-15.755 6.213-4.674-.032-11.155.071-17.417-6.013-6.271-6.094-7.334-12.006-7.334-17.817 0-5.81 1.186-13.504 8.638-19.335 5.054-3.966 10.055-4.859 15.189-4.859h20.253c.26 5.331-1.192 9.04-5.957 10.735ZM198.643 305.848a2.5 2.5 0 1 1 1.714-4.697l-1.714 4.697Zm102.143-64.722a2.5 2.5 0 0 1 3.529.219l14.896 16.863a2.5 2.5 0 0 1-3.748 3.31l-13.24-14.989-14.99 13.24a2.5 2.5 0 1 1-3.31-3.747l16.863-14.896ZM199.5 303.5l.856-2.349.001.001.01.003.044.016.191.067c.172.06.432.149.775.263.687.227 1.704.552 3.006.934 2.605.763 6.344 1.753 10.852 2.646 9.039 1.792 21.061 3.176 33.196 1.654 12.12-1.522 24.21-5.921 33.63-15.568 9.409-9.634 16.427-24.778 17.885-48.322l4.991.31c-1.513 24.41-8.848 40.804-19.298 51.506-10.438 10.688-23.713 15.419-36.585 17.035-12.858 1.613-25.457.14-34.791-1.71a131.136 131.136 0 0 1-11.287-2.753 96.771 96.771 0 0 1-3.172-.986c-.368-.122-.653-.22-.849-.288l-.225-.079-.061-.022-.018-.007a.008.008 0 0 1-.005-.002c-.002 0-.003-.001.854-2.349ZM198.635 25.578a2.499 2.499 0 1 0 1.732 4.69l-1.732-4.69Zm102.152 64.296a2.5 2.5 0 0 0 3.529-.219l14.896-16.863a2.5 2.5 0 1 0-3.748-3.31l-13.24 14.99-14.99-13.241a2.5 2.5 0 0 0-3.31 3.747l16.863 14.896ZM199.501 27.923l.865 2.345h.001a126.558 126.558 0 0 1 14.879-3.995c9.04-1.83 21.062-3.266 33.196-1.795 12.12 1.47 24.206 5.818 33.624 15.424 9.404 9.593 16.422 24.709 17.881 48.253l4.99-.31c-1.512-24.41-8.847-40.78-19.301-51.443-10.441-10.65-23.719-15.326-36.592-16.887-12.858-1.56-25.457-.032-34.79 1.858a131.328 131.328 0 0 0-11.286 2.801 96.203 96.203 0 0 0-3.172 1c-.369.124-.654.223-.849.292l-.226.08-.061.022-.017.007-.005.002c-.002 0-.003 0 .863 2.346Z"/><g filter="url(#b)"><rect width="72" height="38" x="13" y="33" fill="#fff" rx="3"/></g><path stroke="#ACACAC" d="M13 58.5h72"/><rect width="54" height="5" x="27" y="36" fill="#D9D9D9" rx="1"/><rect width="21" height="4" x="27" y="45" fill="#E9E9E9" rx="1"/><rect width="22" height="3" x="28" y="64" fill="#D9D9D9" rx="1"/><rect width="7" height="3" x="74" y="64" fill="#D9D9D9" rx="1"/><circle cx="20" cy="65" r="4" fill="#D9D9D9"/><mask id="c" width="10" height="11" x="15" y="33" maskUnits="userSpaceOnUse" style="mask-type:alpha"><path fill="#D9D9D9" d="M15 33.789h10v10H15z"/></mask><g mask="url(#c)"><path fill="#3DC795" d="m19.416 40.706 2.938-2.937-.584-.584-2.354 2.354-1.187-1.187-.584.583 1.771 1.771Zm.584 2.25c-.577 0-1.118-.11-1.625-.328a4.204 4.204 0 0 1-1.323-.89 4.207 4.207 0 0 1-.89-1.324 4.057 4.057 0 0 1-.329-1.625c0-.576.11-1.118.328-1.625.219-.507.516-.947.89-1.322a4.21 4.21 0 0 1 1.324-.891A4.06 4.06 0 0 1 20 34.623c.576 0 1.118.11 1.625.328.507.219.948.516 1.323.89.375.376.671.816.89 1.323.219.507.328 1.05.328 1.625 0 .577-.11 1.118-.328 1.625a4.205 4.205 0 0 1-.89 1.323 4.205 4.205 0 0 1-1.323.89 4.055 4.055 0 0 1-1.625.33Zm0-.833c.93 0 1.718-.323 2.364-.969.646-.646.969-1.434.969-2.365 0-.93-.323-1.718-.969-2.364-.646-.646-1.434-.969-2.364-.969-.93 0-1.72.323-2.365.969-.646.646-.969 1.434-.969 2.364 0 .931.323 1.72.97 2.365.645.646 1.433.969 2.364.969Z"/></g><g filter="url(#d)"><rect width="72" height="38" x="97" y="33" fill="#fff" rx="3"/></g><path stroke="#ACACAC" d="M97 58.5h72"/><rect width="54" height="5" x="111" y="36" fill="#D9D9D9" rx="1"/><rect width="21" height="4" x="111" y="45" fill="#E9E9E9" rx="1"/><rect width="22" height="3" x="112" y="64" fill="#D9D9D9" rx="1"/><rect width="7" height="3" x="158" y="64" fill="#D9D9D9" rx="1"/><circle cx="104" cy="65" r="4" fill="#D9D9D9"/><mask id="e" width="10" height="11" x="99" y="33" maskUnits="userSpaceOnUse" style="mask-type:alpha"><path fill="#D9D9D9" d="M99 33.789h10v10H99z"/></mask><g mask="url(#e)"><path fill="#3DC795" d="m103.416 40.706 2.938-2.937-.583-.584-2.355 2.354-1.187-1.187-.583.583 1.77 1.771Zm.584 2.25c-.577 0-1.118-.11-1.625-.328a4.204 4.204 0 0 1-1.323-.89 4.213 4.213 0 0 1-.891-1.324 4.062 4.062 0 0 1-.328-1.625c0-.576.11-1.118.328-1.625.219-.507.516-.947.891-1.322a4.21 4.21 0 0 1 1.323-.891 4.058 4.058 0 0 1 1.625-.328c.576 0 1.118.11 1.625.328a4.21 4.21 0 0 1 1.323.89c.375.376.671.816.89 1.323.219.507.328 1.05.328 1.625 0 .577-.109 1.118-.328 1.625a4.21 4.21 0 0 1-.89 1.323 4.204 4.204 0 0 1-1.323.89 4.056 4.056 0 0 1-1.625.33Zm0-.833c.93 0 1.718-.323 2.364-.969.646-.646.969-1.434.969-2.365 0-.93-.323-1.718-.969-2.364-.646-.646-1.434-.969-2.364-.969-.931 0-1.719.323-2.365.969-.646.646-.969 1.434-.969 2.364 0 .931.323 1.72.969 2.365.646.646 1.434.969 2.365.969Z"/></g><g filter="url(#f)"><rect width="72" height="38" x="13" y="81" fill="#fff" rx="3"/></g><path stroke="#ACACAC" d="M13 106.5h72"/><rect width="54" height="5" x="27" y="84" fill="#D9D9D9" rx="1"/><rect width="21" height="4" x="27" y="93" fill="#E9E9E9" rx="1"/><rect width="22" height="3" x="28" y="112" fill="#D9D9D9" rx="1"/><rect width="7" height="3" x="74" y="112" fill="#D9D9D9" rx="1"/><circle cx="20" cy="113" r="4" fill="#D9D9D9"/><mask id="g" width="10" height="11" x="15" y="81" maskUnits="userSpaceOnUse" style="mask-type:alpha"><path fill="#D9D9D9" d="M15 81.789h10v10H15z"/></mask><g mask="url(#g)"><path fill="#3DC795" d="m19.416 88.706 2.938-2.937-.584-.584-2.354 2.355-1.187-1.188-.584.583 1.771 1.771Zm.584 2.25c-.577 0-1.118-.11-1.625-.328a4.204 4.204 0 0 1-1.323-.89 4.207 4.207 0 0 1-.89-1.323 4.057 4.057 0 0 1-.329-1.626c0-.576.11-1.118.328-1.624.219-.508.516-.948.89-1.323a4.21 4.21 0 0 1 1.324-.891A4.06 4.06 0 0 1 20 82.623c.576 0 1.118.11 1.625.328.507.219.948.516 1.323.89.375.376.671.817.89 1.324.219.506.328 1.048.328 1.624 0 .577-.11 1.118-.328 1.626a4.205 4.205 0 0 1-.89 1.322 4.205 4.205 0 0 1-1.323.89 4.055 4.055 0 0 1-1.625.33Zm0-.833c.93 0 1.718-.323 2.364-.969.646-.646.969-1.434.969-2.364 0-.931-.323-1.72-.969-2.365-.646-.646-1.434-.969-2.364-.969-.93 0-1.72.323-2.365.969-.646.646-.969 1.434-.969 2.365 0 .93.323 1.718.97 2.364.645.646 1.433.969 2.364.969Z"/></g><g filter="url(#h)"><rect width="72" height="38" x="97" y="81" fill="#fff" rx="3"/></g><path stroke="#ACACAC" d="M97 106.5h72"/><rect width="54" height="5" x="111" y="84" fill="#D9D9D9" rx="1"/><rect width="21" height="4" x="111" y="93" fill="#E9E9E9" rx="1"/><rect width="22" height="3" x="112" y="112" fill="#D9D9D9" rx="1"/><rect width="7" height="3" x="158" y="112" fill="#D9D9D9" rx="1"/><circle cx="104" cy="113" r="4" fill="#D9D9D9"/><mask id="i" width="10" height="11" x="99" y="81" maskUnits="userSpaceOnUse" style="mask-type:alpha"><path fill="#D9D9D9" d="M99 81.789h10v10H99z"/></mask><g mask="url(#i)"><path fill="#3DC795" d="m103.416 88.706 2.938-2.937-.583-.584-2.355 2.355-1.187-1.188-.583.583 1.77 1.771Zm.584 2.25c-.577 0-1.118-.11-1.625-.328a4.204 4.204 0 0 1-1.323-.89 4.213 4.213 0 0 1-.891-1.323 4.062 4.062 0 0 1-.328-1.626c0-.576.11-1.118.328-1.624.219-.508.516-.948.891-1.323a4.21 4.21 0 0 1 1.323-.891 4.058 4.058 0 0 1 1.625-.328c.576 0 1.118.11 1.625.328a4.21 4.21 0 0 1 1.323.89c.375.376.671.817.89 1.324.219.506.328 1.048.328 1.624 0 .577-.109 1.118-.328 1.626a4.21 4.21 0 0 1-.89 1.322 4.204 4.204 0 0 1-1.323.89 4.056 4.056 0 0 1-1.625.33Zm0-.833c.93 0 1.718-.323 2.364-.969.646-.646.969-1.434.969-2.364 0-.931-.323-1.72-.969-2.365-.646-.646-1.434-.969-2.364-.969-.931 0-1.719.323-2.365.969-.646.646-.969 1.434-.969 2.365 0 .93.323 1.718.969 2.364.646.646 1.434.969 2.365.969Z"/></g><g filter="url(#j)"><rect width="72" height="45" x="13" y="209" fill="#fff" rx="3"/></g><path fill="#3DC795" d="M20.803 242.625a.24.24 0 0 1 .215.137l.673 1.377 1.495.224c.087.01.156.078.185.157a.23.23 0 0 1-.058.244l-1.084 1.074.253 1.514a.235.235 0 0 1-.087.234.26.26 0 0 1-.254.019l-1.338-.722-1.338.722a.242.242 0 0 1-.244-.019.263.263 0 0 1-.098-.234l.264-1.514-1.084-1.074a.23.23 0 0 1-.059-.244.235.235 0 0 1 .186-.157l1.494-.224.674-1.377a.237.237 0 0 1 .205-.137Zm0 .771-.508 1.065a.237.237 0 0 1-.176.127l-1.162.166.84.83a.252.252 0 0 1 .068.215l-.195 1.162 1.025-.547a.23.23 0 0 1 .225 0l1.025.547-.195-1.162a.227.227 0 0 1 .068-.215l.83-.83-1.152-.166a.222.222 0 0 1-.176-.127l-.517-1.065ZM26.606 242.625a.24.24 0 0 1 .215.137l.674 1.377 1.494.224c.088.01.156.078.186.157a.23.23 0 0 1-.059.244l-1.084 1.074.254 1.514a.235.235 0 0 1-.088.234.26.26 0 0 1-.254.019l-1.338-.722-1.337.722a.242.242 0 0 1-.245-.019.263.263 0 0 1-.097-.234l.263-1.514-1.084-1.074a.23.23 0 0 1-.058-.244.234.234 0 0 1 .185-.157l1.494-.224.674-1.377a.238.238 0 0 1 .205-.137Zm0 .771-.507 1.065a.237.237 0 0 1-.176.127l-1.162.166.84.83a.252.252 0 0 1 .068.215l-.195 1.162 1.025-.547a.23.23 0 0 1 .225 0l1.025.547-.195-1.162a.227.227 0 0 1 .068-.215l.83-.83-1.152-.166a.222.222 0 0 1-.176-.127l-.518-1.065ZM32.41 242.625a.24.24 0 0 1 .214.137l.674 1.377 1.494.224c.088.01.156.078.185.157a.23.23 0 0 1-.058.244l-1.084 1.074.254 1.514a.236.236 0 0 1-.088.234.26.26 0 0 1-.254.019l-1.338-.722-1.338.722a.242.242 0 0 1-.244-.019.263.263 0 0 1-.098-.234l.264-1.514-1.084-1.074a.23.23 0 0 1-.058-.244.234.234 0 0 1 .185-.157l1.494-.224.674-1.377a.238.238 0 0 1 .205-.137Zm0 .771-.509 1.065a.238.238 0 0 1-.175.127l-1.162.166.84.83a.253.253 0 0 1 .068.215l-.196 1.162 1.026-.547a.23.23 0 0 1 .224 0l1.026.547-.196-1.162a.227.227 0 0 1 .069-.215l.83-.83-1.153-.166a.221.221 0 0 1-.175-.127l-.518-1.065ZM38.213 242.625a.24.24 0 0 1 .215.137l.674 1.377 1.494.224c.088.01.156.078.185.157a.23.23 0 0 1-.058.244l-1.084 1.074.254 1.514a.236.236 0 0 1-.088.234.26.26 0 0 1-.254.019l-1.338-.722-1.338.722a.242.242 0 0 1-.244-.019.263.263 0 0 1-.098-.234l.264-1.514-1.084-1.074a.23.23 0 0 1-.059-.244.235.235 0 0 1 .186-.157l1.494-.224.674-1.377a.238.238 0 0 1 .205-.137Zm0 .771-.508 1.065a.238.238 0 0 1-.176.127l-1.162.166.84.83a.252.252 0 0 1 .068.215l-.195 1.162 1.026-.547a.23.23 0 0 1 .224 0l1.026.547-.196-1.162a.226.226 0 0 1 .069-.215l.83-.83-1.153-.166a.221.221 0 0 1-.175-.127l-.518-1.065ZM44.016 242.625a.24.24 0 0 1 .215.137l.673 1.377 1.494.224c.088.01.157.078.186.157a.23.23 0 0 1-.059.244l-1.084 1.074.254 1.514a.236.236 0 0 1-.088.234.26.26 0 0 1-.254.019l-1.337-.722-1.338.722a.242.242 0 0 1-.244-.019.263.263 0 0 1-.098-.234l.264-1.514-1.084-1.074a.23.23 0 0 1-.059-.244.235.235 0 0 1 .186-.157l1.494-.224.673-1.377a.238.238 0 0 1 .206-.137Zm0 .771-.508 1.065a.237.237 0 0 1-.176.127l-1.162.166.84.83a.252.252 0 0 1 .068.215l-.195 1.162 1.025-.547a.23.23 0 0 1 .225 0l1.025.547-.195-1.162a.227.227 0 0 1 .068-.215l.83-.83-1.152-.166a.222.222 0 0 1-.176-.127l-.517-1.065Z"/><rect width="22" height="5" x="19" y="212" fill="#A5A5A5" rx="1"/><rect width="16" height="13" x="23" y="227" fill="#A5A5A5" rx="1"/><rect width="61" height="4" x="19" y="220" fill="#E9E9E9" rx="1"/><rect width="28" height="3" x="52" y="229" fill="#E9E9E9" rx="1.5"/><rect width="24" height="3" x="52" y="229" fill="#3DC795" rx="1.5"/><rect width="28" height="3" x="52" y="233" fill="#E9E9E9" rx="1.5"/><rect width="16" height="3" x="52" y="233" fill="#3DC795" rx="1.5"/><rect width="28" height="3" x="52" y="237" fill="#E9E9E9" rx="1.5"/><rect width="10" height="3" x="52" y="237" fill="#3DC795" rx="1.5"/><rect width="28" height="3" x="52" y="241" fill="#E9E9E9" rx="1.5"/><rect width="6" height="3" x="52" y="241" fill="#3DC795" rx="1.5"/><rect width="28" height="3" x="52" y="245" fill="#E9E9E9" rx="1.5"/><rect width="6" height="3" x="52" y="245" fill="#3DC795" rx="1.5"/><g filter="url(#k)"><rect width="72" height="45" x="13" y="261" fill="#fff" rx="3"/></g><path fill="#3DC795" d="M20.803 294.625a.24.24 0 0 1 .215.137l.673 1.377 1.495.224c.087.01.156.078.185.157a.23.23 0 0 1-.058.244l-1.084 1.074.253 1.514a.235.235 0 0 1-.087.234.26.26 0 0 1-.254.019l-1.338-.722-1.338.722a.242.242 0 0 1-.244-.019.263.263 0 0 1-.098-.234l.264-1.514-1.084-1.074a.23.23 0 0 1-.059-.244.235.235 0 0 1 .186-.157l1.494-.224.674-1.377a.237.237 0 0 1 .205-.137Zm0 .771-.508 1.065a.237.237 0 0 1-.176.127l-1.162.166.84.83a.252.252 0 0 1 .068.215l-.195 1.162 1.025-.547a.23.23 0 0 1 .225 0l1.025.547-.195-1.162a.227.227 0 0 1 .068-.215l.83-.83-1.152-.166a.222.222 0 0 1-.176-.127l-.517-1.065ZM26.606 294.625a.24.24 0 0 1 .215.137l.674 1.377 1.494.224c.088.01.156.078.186.157a.23.23 0 0 1-.059.244l-1.084 1.074.254 1.514a.235.235 0 0 1-.088.234.26.26 0 0 1-.254.019l-1.338-.722-1.337.722a.242.242 0 0 1-.245-.019.263.263 0 0 1-.097-.234l.263-1.514-1.084-1.074a.23.23 0 0 1-.058-.244.234.234 0 0 1 .185-.157l1.494-.224.674-1.377a.238.238 0 0 1 .205-.137Zm0 .771-.507 1.065a.237.237 0 0 1-.176.127l-1.162.166.84.83a.252.252 0 0 1 .068.215l-.195 1.162 1.025-.547a.23.23 0 0 1 .225 0l1.025.547-.195-1.162a.227.227 0 0 1 .068-.215l.83-.83-1.152-.166a.222.222 0 0 1-.176-.127l-.518-1.065ZM32.41 294.625a.24.24 0 0 1 .214.137l.674 1.377 1.494.224c.088.01.156.078.185.157a.23.23 0 0 1-.058.244l-1.084 1.074.254 1.514a.236.236 0 0 1-.088.234.26.26 0 0 1-.254.019l-1.338-.722-1.338.722a.242.242 0 0 1-.244-.019.263.263 0 0 1-.098-.234l.264-1.514-1.084-1.074a.23.23 0 0 1-.058-.244.234.234 0 0 1 .185-.157l1.494-.224.674-1.377a.238.238 0 0 1 .205-.137Zm0 .771-.509 1.065a.238.238 0 0 1-.175.127l-1.162.166.84.83a.253.253 0 0 1 .068.215l-.196 1.162 1.026-.547a.23.23 0 0 1 .224 0l1.026.547-.196-1.162a.227.227 0 0 1 .069-.215l.83-.83-1.153-.166a.221.221 0 0 1-.175-.127l-.518-1.065ZM38.213 294.625a.24.24 0 0 1 .215.137l.674 1.377 1.494.224c.088.01.156.078.185.157a.23.23 0 0 1-.058.244l-1.084 1.074.254 1.514a.236.236 0 0 1-.088.234.26.26 0 0 1-.254.019l-1.338-.722-1.338.722a.242.242 0 0 1-.244-.019.263.263 0 0 1-.098-.234l.264-1.514-1.084-1.074a.23.23 0 0 1-.059-.244.235.235 0 0 1 .186-.157l1.494-.224.674-1.377a.238.238 0 0 1 .205-.137Zm0 .771-.508 1.065a.238.238 0 0 1-.176.127l-1.162.166.84.83a.252.252 0 0 1 .068.215l-.195 1.162 1.026-.547a.23.23 0 0 1 .224 0l1.026.547-.196-1.162a.226.226 0 0 1 .069-.215l.83-.83-1.153-.166a.221.221 0 0 1-.175-.127l-.518-1.065ZM44.016 294.625a.24.24 0 0 1 .215.137l.673 1.377 1.494.224c.088.01.157.078.186.157a.23.23 0 0 1-.059.244l-1.084 1.074.254 1.514a.236.236 0 0 1-.088.234.26.26 0 0 1-.254.019l-1.337-.722-1.338.722a.242.242 0 0 1-.244-.019.263.263 0 0 1-.098-.234l.264-1.514-1.084-1.074a.23.23 0 0 1-.059-.244.235.235 0 0 1 .186-.157l1.494-.224.673-1.377a.238.238 0 0 1 .206-.137Zm0 .771-.508 1.065a.237.237 0 0 1-.176.127l-1.162.166.84.83a.252.252 0 0 1 .068.215l-.195 1.162 1.025-.547a.23.23 0 0 1 .225 0l1.025.547-.195-1.162a.227.227 0 0 1 .068-.215l.83-.83-1.152-.166a.222.222 0 0 1-.176-.127l-.517-1.065Z"/><rect width="22" height="5" x="19" y="264" fill="#A5A5A5" rx="1"/><rect width="16" height="13" x="23" y="279" fill="#A5A5A5" rx="1"/><rect width="61" height="4" x="19" y="272" fill="#E9E9E9" rx="1"/><rect width="28" height="3" x="52" y="281" fill="#E9E9E9" rx="1.5"/><rect width="24" height="3" x="52" y="281" fill="#3DC795" rx="1.5"/><rect width="28" height="3" x="52" y="285" fill="#E9E9E9" rx="1.5"/><rect width="16" height="3" x="52" y="285" fill="#3DC795" rx="1.5"/><rect width="28" height="3" x="52" y="289" fill="#E9E9E9" rx="1.5"/><rect width="10" height="3" x="52" y="289" fill="#3DC795" rx="1.5"/><rect width="28" height="3" x="52" y="293" fill="#E9E9E9" rx="1.5"/><rect width="6" height="3" x="52" y="293" fill="#3DC795" rx="1.5"/><rect width="28" height="3" x="52" y="297" fill="#E9E9E9" rx="1.5"/><rect width="6" height="3" x="52" y="297" fill="#3DC795" rx="1.5"/><g filter="url(#l)"><rect width="72" height="45" x="100" y="209" fill="#fff" rx="3"/></g><path fill="#3DC795" d="M107.803 242.625c.097 0 .176.059.215.137l.673 1.377 1.495.224c.087.01.156.078.185.157a.23.23 0 0 1-.059.244l-1.083 1.074.253 1.514a.235.235 0 0 1-.087.234.26.26 0 0 1-.254.019l-1.338-.722-1.338.722a.242.242 0 0 1-.244-.019.261.261 0 0 1-.098-.234l.264-1.514-1.084-1.074a.23.23 0 0 1-.059-.244.235.235 0 0 1 .186-.157l1.494-.224.674-1.377a.237.237 0 0 1 .205-.137Zm0 .771-.508 1.065a.238.238 0 0 1-.176.127l-1.162.166.84.83a.253.253 0 0 1 .068.215l-.195 1.162 1.025-.547a.231.231 0 0 1 .225 0l1.025.547-.195-1.162c-.02-.078.01-.156.068-.215l.83-.83-1.152-.166a.223.223 0 0 1-.176-.127l-.517-1.065ZM113.606 242.625a.24.24 0 0 1 .215.137l.674 1.377 1.494.224c.088.01.157.078.186.157a.23.23 0 0 1-.059.244l-1.084 1.074.254 1.514a.234.234 0 0 1-.088.234.26.26 0 0 1-.254.019l-1.338-.722-1.337.722a.243.243 0 0 1-.245-.019.263.263 0 0 1-.097-.234l.263-1.514-1.084-1.074a.231.231 0 0 1-.058-.244.235.235 0 0 1 .185-.157l1.495-.224.673-1.377a.239.239 0 0 1 .205-.137Zm0 .771-.507 1.065a.238.238 0 0 1-.176.127l-1.162.166.84.83a.253.253 0 0 1 .068.215l-.195 1.162 1.025-.547a.231.231 0 0 1 .225 0l1.025.547-.195-1.162a.224.224 0 0 1 .068-.215l.83-.83-1.152-.166a.222.222 0 0 1-.176-.127l-.518-1.065ZM119.409 242.625a.24.24 0 0 1 .215.137l.674 1.377 1.494.224c.088.01.156.078.186.157a.232.232 0 0 1-.059.244l-1.084 1.074.254 1.514a.237.237 0 0 1-.088.234.26.26 0 0 1-.254.019l-1.338-.722-1.338.722a.242.242 0 0 1-.244-.019.266.266 0 0 1-.098-.234l.264-1.514-1.084-1.074a.23.23 0 0 1-.058-.244.233.233 0 0 1 .185-.157l1.494-.224.674-1.377a.237.237 0 0 1 .205-.137Zm0 .771-.508 1.065a.236.236 0 0 1-.175.127l-1.163.166.84.83a.254.254 0 0 1 .069.215l-.196 1.162 1.026-.547a.23.23 0 0 1 .224 0l1.026.547-.196-1.162a.227.227 0 0 1 .069-.215l.83-.83-1.152-.166a.22.22 0 0 1-.176-.127l-.518-1.065ZM125.213 242.625a.24.24 0 0 1 .215.137l.674 1.377 1.494.224c.088.01.156.078.185.157a.23.23 0 0 1-.058.244l-1.084 1.074.254 1.514a.237.237 0 0 1-.088.234.26.26 0 0 1-.254.019l-1.338-.722-1.338.722a.242.242 0 0 1-.244-.019.261.261 0 0 1-.098-.234l.264-1.514-1.084-1.074a.232.232 0 0 1-.059-.244c.03-.079.098-.147.186-.157l1.494-.224.674-1.377a.237.237 0 0 1 .205-.137Zm0 .771-.508 1.065a.238.238 0 0 1-.176.127l-1.162.166.84.83a.25.25 0 0 1 .068.215l-.195 1.162 1.025-.547a.231.231 0 0 1 .225 0l1.025.547-.195-1.162a.227.227 0 0 1 .069-.215l.83-.83-1.153-.166a.223.223 0 0 1-.176-.127l-.517-1.065ZM131.016 242.625a.24.24 0 0 1 .214.137l.674 1.377 1.494.224c.088.01.157.078.186.157a.23.23 0 0 1-.059.244l-1.084 1.074.254 1.514a.234.234 0 0 1-.088.234.258.258 0 0 1-.253.019l-1.338-.722-1.338.722a.242.242 0 0 1-.244-.019.261.261 0 0 1-.098-.234l.264-1.514-1.084-1.074a.23.23 0 0 1-.059-.244.235.235 0 0 1 .186-.157l1.494-.224.674-1.377a.237.237 0 0 1 .205-.137Zm0 .771-.508 1.065a.238.238 0 0 1-.176.127l-1.162.166.84.83a.253.253 0 0 1 .068.215l-.195 1.162 1.025-.547a.231.231 0 0 1 .225 0l1.025.547-.195-1.162c-.02-.078.01-.156.068-.215l.83-.83-1.152-.166a.222.222 0 0 1-.176-.127l-.517-1.065Z"/><rect width="22" height="5" x="106" y="212" fill="#A5A5A5" rx="1"/><rect width="16" height="13" x="110" y="227" fill="#A5A5A5" rx="1"/><rect width="61" height="4" x="106" y="220" fill="#E9E9E9" rx="1"/><rect width="28" height="3" x="139" y="229" fill="#E9E9E9" rx="1.5"/><rect width="24" height="3" x="139" y="229" fill="#3DC795" rx="1.5"/><rect width="28" height="3" x="139" y="233" fill="#E9E9E9" rx="1.5"/><rect width="16" height="3" x="139" y="233" fill="#3DC795" rx="1.5"/><rect width="28" height="3" x="139" y="237" fill="#E9E9E9" rx="1.5"/><rect width="10" height="3" x="139" y="237" fill="#3DC795" rx="1.5"/><rect width="28" height="3" x="139" y="241" fill="#E9E9E9" rx="1.5"/><rect width="6" height="3" x="139" y="241" fill="#3DC795" rx="1.5"/><rect width="28" height="3" x="139" y="245" fill="#E9E9E9" rx="1.5"/><rect width="6" height="3" x="139" y="245" fill="#3DC795" rx="1.5"/><g filter="url(#m)"><rect width="72" height="45" x="100" y="261" fill="#fff" rx="3"/></g><path fill="#3DC795" d="M107.803 294.625c.097 0 .176.059.215.137l.673 1.377 1.495.224c.087.01.156.078.185.157a.23.23 0 0 1-.059.244l-1.083 1.074.253 1.514a.235.235 0 0 1-.087.234.26.26 0 0 1-.254.019l-1.338-.722-1.338.722a.242.242 0 0 1-.244-.019.261.261 0 0 1-.098-.234l.264-1.514-1.084-1.074a.23.23 0 0 1-.059-.244.235.235 0 0 1 .186-.157l1.494-.224.674-1.377a.237.237 0 0 1 .205-.137Zm0 .771-.508 1.065a.238.238 0 0 1-.176.127l-1.162.166.84.83a.253.253 0 0 1 .068.215l-.195 1.162 1.025-.547a.231.231 0 0 1 .225 0l1.025.547-.195-1.162c-.02-.078.01-.156.068-.215l.83-.83-1.152-.166a.223.223 0 0 1-.176-.127l-.517-1.065ZM113.606 294.625a.24.24 0 0 1 .215.137l.674 1.377 1.494.224c.088.01.157.078.186.157a.23.23 0 0 1-.059.244l-1.084 1.074.254 1.514a.234.234 0 0 1-.088.234.26.26 0 0 1-.254.019l-1.338-.722-1.337.722a.243.243 0 0 1-.245-.019.263.263 0 0 1-.097-.234l.263-1.514-1.084-1.074a.231.231 0 0 1-.058-.244.235.235 0 0 1 .185-.157l1.495-.224.673-1.377a.239.239 0 0 1 .205-.137Zm0 .771-.507 1.065a.238.238 0 0 1-.176.127l-1.162.166.84.83a.253.253 0 0 1 .068.215l-.195 1.162 1.025-.547a.231.231 0 0 1 .225 0l1.025.547-.195-1.162a.224.224 0 0 1 .068-.215l.83-.83-1.152-.166a.222.222 0 0 1-.176-.127l-.518-1.065ZM119.409 294.625a.24.24 0 0 1 .215.137l.674 1.377 1.494.224c.088.01.156.078.186.157a.232.232 0 0 1-.059.244l-1.084 1.074.254 1.514a.237.237 0 0 1-.088.234.26.26 0 0 1-.254.019l-1.338-.722-1.338.722a.242.242 0 0 1-.244-.019.266.266 0 0 1-.098-.234l.264-1.514-1.084-1.074a.23.23 0 0 1-.058-.244.233.233 0 0 1 .185-.157l1.494-.224.674-1.377a.237.237 0 0 1 .205-.137Zm0 .771-.508 1.065a.236.236 0 0 1-.175.127l-1.163.166.84.83a.254.254 0 0 1 .069.215l-.196 1.162 1.026-.547a.23.23 0 0 1 .224 0l1.026.547-.196-1.162a.227.227 0 0 1 .069-.215l.83-.83-1.152-.166a.22.22 0 0 1-.176-.127l-.518-1.065ZM125.213 294.625a.24.24 0 0 1 .215.137l.674 1.377 1.494.224c.088.01.156.078.185.157a.23.23 0 0 1-.058.244l-1.084 1.074.254 1.514a.237.237 0 0 1-.088.234.26.26 0 0 1-.254.019l-1.338-.722-1.338.722a.242.242 0 0 1-.244-.019.261.261 0 0 1-.098-.234l.264-1.514-1.084-1.074a.232.232 0 0 1-.059-.244c.03-.079.098-.147.186-.157l1.494-.224.674-1.377a.237.237 0 0 1 .205-.137Zm0 .771-.508 1.065a.238.238 0 0 1-.176.127l-1.162.166.84.83a.25.25 0 0 1 .068.215l-.195 1.162 1.025-.547a.231.231 0 0 1 .225 0l1.025.547-.195-1.162a.227.227 0 0 1 .069-.215l.83-.83-1.153-.166a.223.223 0 0 1-.176-.127l-.517-1.065ZM131.016 294.625a.24.24 0 0 1 .214.137l.674 1.377 1.494.224c.088.01.157.078.186.157a.23.23 0 0 1-.059.244l-1.084 1.074.254 1.514a.234.234 0 0 1-.088.234.258.258 0 0 1-.253.019l-1.338-.722-1.338.722a.242.242 0 0 1-.244-.019.261.261 0 0 1-.098-.234l.264-1.514-1.084-1.074a.23.23 0 0 1-.059-.244.235.235 0 0 1 .186-.157l1.494-.224.674-1.377a.237.237 0 0 1 .205-.137Zm0 .771-.508 1.065a.238.238 0 0 1-.176.127l-1.162.166.84.83a.253.253 0 0 1 .068.215l-.195 1.162 1.025-.547a.231.231 0 0 1 .225 0l1.025.547-.195-1.162c-.02-.078.01-.156.068-.215l.83-.83-1.152-.166a.222.222 0 0 1-.176-.127l-.517-1.065Z"/><rect width="22" height="5" x="106" y="264" fill="#A5A5A5" rx="1"/><rect width="16" height="13" x="110" y="279" fill="#A5A5A5" rx="1"/><rect width="61" height="4" x="106" y="272" fill="#E9E9E9" rx="1"/><rect width="28" height="3" x="139" y="281" fill="#E9E9E9" rx="1.5"/><rect width="24" height="3" x="139" y="281" fill="#3DC795" rx="1.5"/><rect width="28" height="3" x="139" y="285" fill="#E9E9E9" rx="1.5"/><rect width="16" height="3" x="139" y="285" fill="#3DC795" rx="1.5"/><rect width="28" height="3" x="139" y="289" fill="#E9E9E9" rx="1.5"/><rect width="10" height="3" x="139" y="289" fill="#3DC795" rx="1.5"/><rect width="28" height="3" x="139" y="293" fill="#E9E9E9" rx="1.5"/><rect width="6" height="3" x="139" y="293" fill="#3DC795" rx="1.5"/><rect width="28" height="3" x="139" y="297" fill="#E9E9E9" rx="1.5"/><rect width="6" height="3" x="139" y="297" fill="#3DC795" rx="1.5"/><defs><filter id="a" width="125" height="125" x="240" y="107" color-interpolation-filters="sRGB" filterUnits="userSpaceOnUse"><feFlood flood-opacity="0" result="BackgroundImageFix"/><feColorMatrix in="SourceAlpha" result="hardAlpha" values="0 0 0 0 0 0 0 0 0 0 0 0 0 0 0 0 0 0 127 0"/><feOffset dy="3"/><feGaussianBlur stdDeviation="3"/><feComposite in2="hardAlpha" operator="out"/><feColorMatrix values="0 0 0 0 0 0 0 0 0 0 0 0 0 0 0 0 0 0 0.15 0"/><feBlend in2="BackgroundImageFix" result="effect1_dropShadow_463_1362"/><feBlend in="SourceGraphic" in2="effect1_dropShadow_463_1362" result="shape"/></filter><filter id="b" width="82" height="48" x="8" y="31" color-interpolation-filters="sRGB" filterUnits="userSpaceOnUse"><feFlood flood-opacity="0" result="BackgroundImageFix"/><feColorMatrix in="SourceAlpha" result="hardAlpha" values="0 0 0 0 0 0 0 0 0 0 0 0 0 0 0 0 0 0 127 0"/><feOffset dy="3"/><feGaussianBlur stdDeviation="2.5"/><feComposite in2="hardAlpha" operator="out"/><feColorMatrix values="0 0 0 0 0 0 0 0 0 0 0 0 0 0 0 0 0 0 0.15 0"/><feBlend in2="BackgroundImageFix" result="effect1_dropShadow_463_1362"/><feBlend in="SourceGraphic" in2="effect1_dropShadow_463_1362" result="shape"/></filter><filter id="d" width="82" height="48" x="92" y="31" color-interpolation-filters="sRGB" filterUnits="userSpaceOnUse"><feFlood flood-opacity="0" result="BackgroundImageFix"/><feColorMatrix in="SourceAlpha" result="hardAlpha" values="0 0 0 0 0 0 0 0 0 0 0 0 0 0 0 0 0 0 127 0"/><feOffset dy="3"/><feGaussianBlur stdDeviation="2.5"/><feComposite in2="hardAlpha" operator="out"/><feColorMatrix values="0 0 0 0 0 0 0 0 0 0 0 0 0 0 0 0 0 0 0.15 0"/><feBlend in2="BackgroundImageFix" result="effect1_dropShadow_463_1362"/><feBlend in="SourceGraphic" in2="effect1_dropShadow_463_1362" result="shape"/></filter><filter id="f" width="82" height="48" x="8" y="79" color-interpolation-filters="sRGB" filterUnits="userSpaceOnUse"><feFlood flood-opacity="0" result="BackgroundImageFix"/><feColorMatrix in="SourceAlpha" result="hardAlpha" values="0 0 0 0 0 0 0 0 0 0 0 0 0 0 0 0 0 0 127 0"/><feOffset dy="3"/><feGaussianBlur stdDeviation="2.5"/><feComposite in2="hardAlpha" operator="out"/><feColorMatrix values="0 0 0 0 0 0 0 0 0 0 0 0 0 0 0 0 0 0 0.15 0"/><feBlend in2="BackgroundImageFix" result="effect1_dropShadow_463_1362"/><feBlend in="SourceGraphic" in2="effect1_dropShadow_463_1362" result="shape"/></filter><filter id="h" width="82" height="48" x="92" y="79" color-interpolation-filters="sRGB" filterUnits="userSpaceOnUse"><feFlood flood-opacity="0" result="BackgroundImageFix"/><feColorMatrix in="SourceAlpha" result="hardAlpha" values="0 0 0 0 0 0 0 0 0 0 0 0 0 0 0 0 0 0 127 0"/><feOffset dy="3"/><feGaussianBlur stdDeviation="2.5"/><feComposite in2="hardAlpha" operator="out"/><feColorMatrix values="0 0 0 0 0 0 0 0 0 0 0 0 0 0 0 0 0 0 0.15 0"/><feBlend in2="BackgroundImageFix" result="effect1_dropShadow_463_1362"/><feBlend in="SourceGraphic" in2="effect1_dropShadow_463_1362" result="shape"/></filter><filter id="j" width="82" height="55" x="8" y="207" color-interpolation-filters="sRGB" filterUnits="userSpaceOnUse"><feFlood flood-opacity="0" result="BackgroundImageFix"/><feColorMatrix in="SourceAlpha" result="hardAlpha" values="0 0 0 0 0 0 0 0 0 0 0 0 0 0 0 0 0 0 127 0"/><feOffset dy="3"/><feGaussianBlur stdDeviation="2.5"/><feComposite in2="hardAlpha" operator="out"/><feColorMatrix values="0 0 0 0 0 0 0 0 0 0 0 0 0 0 0 0 0 0 0.15 0"/><feBlend in2="BackgroundImageFix" result="effect1_dropShadow_463_1362"/><feBlend in="SourceGraphic" in2="effect1_dropShadow_463_1362" result="shape"/></filter><filter id="k" width="82" height="55" x="8" y="259" color-interpolation-filters="sRGB" filterUnits="userSpaceOnUse"><feFlood flood-opacity="0" result="BackgroundImageFix"/><feColorMatrix in="SourceAlpha" result="hardAlpha" values="0 0 0 0 0 0 0 0 0 0 0 0 0 0 0 0 0 0 127 0"/><feOffset dy="3"/><feGaussianBlur stdDeviation="2.5"/><feComposite in2="hardAlpha" operator="out"/><feColorMatrix values="0 0 0 0 0 0 0 0 0 0 0 0 0 0 0 0 0 0 0.15 0"/><feBlend in2="BackgroundImageFix" result="effect1_dropShadow_463_1362"/><feBlend in="SourceGraphic" in2="effect1_dropShadow_463_1362" result="shape"/></filter><filter id="l" width="82" height="55" x="95" y="207" color-interpolation-filters="sRGB" filterUnits="userSpaceOnUse"><feFlood flood-opacity="0" result="BackgroundImageFix"/><feColorMatrix in="SourceAlpha" result="hardAlpha" values="0 0 0 0 0 0 0 0 0 0 0 0 0 0 0 0 0 0 127 0"/><feOffset dy="3"/><feGaussianBlur stdDeviation="2.5"/><feComposite in2="hardAlpha" operator="out"/><feColorMatrix values="0 0 0 0 0 0 0 0 0 0 0 0 0 0 0 0 0 0 0.15 0"/><feBlend in2="BackgroundImageFix" result="effect1_dropShadow_463_1362"/><feBlend in="SourceGraphic" in2="effect1_dropShadow_463_1362" result="shape"/></filter><filter id="m" width="82" height="55" x="95" y="259" color-interpolation-filters="sRGB" filterUnits="userSpaceOnUse"><feFlood flood-opacity="0" result="BackgroundImageFix"/><feColorMatrix in="SourceAlpha" result="hardAlpha" values="0 0 0 0 0 0 0 0 0 0 0 0 0 0 0 0 0 0 127 0"/><feOffset dy="3"/><feGaussianBlur stdDeviation="2.5"/><feComposite in2="hardAlpha" operator="out"/><feColorMatrix values="0 0 0 0 0 0 0 0 0 0 0 0 0 0 0 0 0 0 0.15 0"/><feBlend in2="BackgroundImageFix" result="effect1_dropShadow_463_1362"/><feBlend in="SourceGraphic" in2="effect1_dropShadow_463_1362" result="shape"/></filter></defs></svg>
