<svg xmlns="http://www.w3.org/2000/svg" width="311" height="328" fill="none"><path fill="#D45151" d="M280.036 167.37c-4.5-1.144-7.232.635-8.036 1.668l6.161 9.77 6.696 1.192 2.143-5.004c-.446-2.066-2.464-6.482-6.964-7.626Z"/><path fill="#F4A390" d="M40.27 223.75c-.203-3.6-.677-8-1.27-9.75 2.844 1.4 11.598 2.917 16 3.5l-.762 6.25-6.603 3.25-7.365-3.25ZM67.57 202.868 71 170H37.195l-7.84 20.017c-4.164 9.638 2.287 14.498 5.635 15.322L51.403 213l16.167-10.132Z"/><path fill="#5F2D00" d="M61.492 197.137c-4.402-.2-11.006 6.926-13.758 10.513-10.005-1.251-10.005-6.007-10.506-8.009-.5-2.253-.5-23.78-.5-23.78-.2-1.802 1.25-2.586 2.001-2.753 9.033 1.772 24.48 3.152 31.322 3.446 1.442.062 2.873-.307 4.047-1.147 7.978-5.71 3.949-10.657 3.403-12.061-11.566-5.311-28.8-3.168-38.646-1.252-4.732.921-8.234 4.709-9.314 9.408a98.127 98.127 0 0 1-.817 3.358c-.668 2.448-.873 9.05-.618 13.652.041.743.873 1.149 1.587.938.867-.257 1.505-.183 1.782-.072.834.501 2.652 2.153 3.252 4.756.6 2.603.25 7.926 0 10.262-.167 1.085-.4 3.655 0 5.257.4 1.602 5.17 4.005 7.504 5.006 6.42 1.585 20.012 3.955 23.013.751 3.002-3.204 3.586-11.18 3.502-14.768-.583-1.085-2.851-3.304-7.254-3.505Z"/><path fill="#9C7631" d="M97.754 260.345C92.554 244.097 81.084 232.012 76 228v22.566l7.501 37.611c9.002 8.024 33.007 22.065 44.26 24.823 12.602-1.003 8.501-12.286 2.5-15.546-8.668-5.6-27.306-20.861-32.507-37.109Z"/><g clip-path="url(#a)" filter="url(#b)"><path fill="#3C4045" fill-rule="evenodd" d="m135.011 291.087 8.632 5.128a2.06 2.06 0 0 1 .716 2.824l-2.273 3.826a.107.107 0 0 1 .009.123l-1.507 2.537a.105.105 0 0 1-.112.05l-9.191 15.473a2.061 2.061 0 0 1-2.823.722l-8.632-5.128a2.06 2.06 0 0 1-.716-2.824l8.956-15.075a.107.107 0 0 1-.01-.123l.872-1.467a.105.105 0 0 1 .112-.05l.333-.561a.109.109 0 0 1-.01-.123l.872-1.467a.105.105 0 0 1 .112-.05l.442-.744a.107.107 0 0 1-.009-.123l.454-.764a.105.105 0 0 1 .112-.05l.838-1.412a2.061 2.061 0 0 1 2.823-.722Z" clip-rule="evenodd"/><mask id="c" width="26" height="31" x="119" y="291" maskUnits="userSpaceOnUse" style="mask-type:alpha"><path fill="#F1F1F1" fill-rule="evenodd" d="M132.6 291.954c-.016.023-.031.048-.046.072l-13.074 22.009a1.634 1.634 0 0 0 .568 2.24l8.632 5.128c.775.46 1.777.204 2.238-.573l13.075-22.009.005-.009a1.633 1.633 0 0 0-.573-2.23l-.918-.546a.316.316 0 0 0-.332.149.786.786 0 0 1-1.078.275l-5.115-3.038a.787.787 0 0 1-.273-1.079.314.314 0 0 0-.029-.362l-.887-.527a1.623 1.623 0 0 0-1.532-.071c-.26.123-.491.316-.661.571Z" clip-rule="evenodd"/></mask><g mask="url(#c)"><path fill="#151515" d="m133.39 290.62 11.438 6.795-14.744 24.82-11.438-6.794z"/></g></g><path fill="#FCBE4F" d="M1.494 274.052C-2.85 296.429 3.304 317.341 6.925 325H20.49l51.595-.104c4.542-1.998 5.856-4.225 8.16-6.14 1.382-3.796 2.33-17.767 2.962-29.22.757-13.731 1.32-21.527 0-35.214-.987-10.24-3.653-20.979-6.418-24.975-4.148-3.796-9.628-5.744-11.85-6.244-4.855-.832-16.787-1.998-25.674 0s-16.553 6.14-18.762 8.741c-4.526 4.746-14.664 19.83-19.009 42.208Z"/><path fill="#E08570" d="M251 226.98v-4.843c8.8-.612 15-5.013 17-7.137l-1 8.922-.75 4.078-15.25-1.02Z"/><path fill="#963B3B" d="M202.649 275.526c-9.954 1.772-22.801 1.94-28.586 1.012L171 289.7c22.46 7.897 50.11-.169 60.49-5.568L232 253l-4.594.253-14.293 22.273s-6.442-.716-10.464 0Z"/><g clip-path="url(#d)" filter="url(#e)"><path fill="#3C4045" fill-rule="evenodd" d="m164.045 269.375 9.646-2.785a2.06 2.06 0 0 1 2.549 1.411l1.235 4.276a.106.106 0 0 1 .096.077l.818 2.835a.105.105 0 0 1-.04.116l4.991 17.291a2.06 2.06 0 0 1-1.405 2.552l-9.646 2.784a2.06 2.06 0 0 1-2.549-1.41l-4.863-16.847a.105.105 0 0 1-.096-.077l-.473-1.639a.107.107 0 0 1 .04-.117l-.181-.626a.108.108 0 0 1-.096-.077l-.473-1.64a.105.105 0 0 1 .04-.116l-.24-.832a.105.105 0 0 1-.096-.077l-.247-.854a.108.108 0 0 1 .04-.116l-.455-1.577a2.06 2.06 0 0 1 1.405-2.552Z" clip-rule="evenodd"/><mask id="f" width="21" height="32" x="162" y="266" maskUnits="userSpaceOnUse" style="mask-type:alpha"><path fill="#F1F1F1" fill-rule="evenodd" d="m163.028 271.726.021.083 7.1 24.595a1.634 1.634 0 0 0 2.022 1.119l9.646-2.785a1.633 1.633 0 0 0 1.114-2.024l-7.1-24.595-.003-.01A1.633 1.633 0 0 0 173.81 267l-1.026.296a.317.317 0 0 0-.119.344.785.785 0 0 1-.536.974l-5.717 1.651a.787.787 0 0 1-.973-.539.314.314 0 0 0-.284-.227l-.991.286a1.624 1.624 0 0 0-1.101 1.068 1.631 1.631 0 0 0-.035.873Z" clip-rule="evenodd"/></mask><g mask="url(#f)"><path fill="#151515" d="m162.596 270.238 12.782-3.69 8.007 27.737-12.782 3.69z"/></g></g><path fill="#D55151" d="M240.494 234.693c-5.398 4.975-11.079 15.341-13.245 19.902l1 29.356L224 325h67.727c3.799-11.941 4.415-33.171 4.249-42.293.347-20.23-5.945-35.666-10.389-43.012-1.129-1.867-2.93-3.186-4.96-3.987l-10.143-4.001-.081-2.023c-.109-2.703-.968-5.849-3.563-6.61a2.07 2.07 0 0 0-.354-.074v1.493c-2.999 3.582-11.58 2.487-15.495 1.492v-.711c0-.65-.615-1.134-1.224-.904-1.389.525-1.775 1.101-1.775 1.367v6.965l-7.498 1.991Z"/><path fill="#3DC795" d="M270.106 291.785c.641 7.779 4.019 17.632 5.916 22.215L279 302.53c-3.249-9.567-4.512-24.08-4.603-29.53l-3.155 10.666c-.782 2.644-1.362 5.371-1.136 8.119Z"/><path fill="#F4A390" d="M241.684 217.995c-3.361-5.566-3.542-21.533-3.213-28.821L236 184.702l7.167-7.702 10.132 11.677L279 197.125l-.741 11.925-10.133 6.212s-5.107 4.058-9.39 5.466c-4.284 1.408-13.691 2.832-17.052-2.733Z"/><path fill="#4D2500" d="M282.936 226.243c1.003 3.191-1.086 6.648-2.256 7.978.401.798 5.516.831 8.023.748 1.337-.665 4.412-2.593 6.017-4.986 2.006-2.992 2.507-7.729 2.006-9.723-.401-1.596-2.173-4.82-3.009-6.233-.836-1.412 0-5.734 0-5.734 2.808-7.18 4.012-13.13 4.262-15.207.167-4.238-.601-14.26-5.014-20.443-4.413-6.183-12.87-6.067-16.547-5.236 6.819 3.989 7.521 9.806 7.02 12.216-.502-2.908-3.26-9.025-10.28-10.221-7.02-1.197-12.619 0-14.541.748-9.527-.499-16.547 1.496-20.057 3.49-3.51 1.994-8.023 6.482-7.522 10.471.402 3.191 5.349 5.318 7.773 5.983-.201-5.584 3.092-10.304 4.763-11.967 4.212 16.754 21.144 19.446 29.083 18.698l3.761 2.244c1.003-.748 2.858-1.047 2.256 3.74-.752 5.983-2.006 6.232-3.259 8.227-1.003 1.595-3.092 1.496-4.012 1.246l-4.011 4.488-.251 3.241 7.271-6.732c2.424 2.992 7.521 9.773 8.524 12.964Z"/><rect width="93" height="52" x="112" y="149" fill="#246073" rx="8"/><rect width="99" height="52" x="13" fill="#246073" rx="8"/><g filter="url(#g)"><rect width="75" height="35" x="121" y="157" fill="#fff" rx="3"/></g><path stroke="#ACACAC" d="M121 178.375h75"/><rect width="53.883" height="5.104" x="137.02" y="159.917" fill="#D9D9D9" rx="1"/><rect width="21.845" height="4.375" x="137.02" y="167.938" fill="#E9E9E9" rx="1"/><rect width="21.845" height="3.646" x="135.563" y="183.25" fill="#D9D9D9" rx="1"/><rect width="8.01" height="3.646" x="184.35" y="183.25" fill="#D9D9D9" rx="1"/><ellipse cx="127.554" cy="184.708" fill="#D9D9D9" rx="4.369" ry="4.375"/><mask id="h" width="12" height="13" x="123" y="158" maskUnits="userSpaceOnUse" style="mask-type:alpha"><path fill="#D9D9D9" d="M123.185 158.458h11.65v11.667h-11.65z"/></mask><g mask="url(#h)"><path fill="#3DC795" d="m128.33 166.528 3.422-3.427-.679-.681-2.743 2.747-1.383-1.386-.68.681 2.063 2.066Zm.68 2.625a4.728 4.728 0 0 1-1.894-.383 4.897 4.897 0 0 1-1.541-1.039 4.89 4.89 0 0 1-1.037-1.543 4.742 4.742 0 0 1-.383-1.896c0-.673.128-1.305.383-1.896a4.89 4.89 0 0 1 1.037-1.543 4.916 4.916 0 0 1 1.541-1.04 4.728 4.728 0 0 1 1.894-.382c.671 0 1.302.127 1.893.382.59.256 1.104.602 1.541 1.04a4.89 4.89 0 0 1 1.037 1.543c.256.591.383 1.223.383 1.896 0 .672-.127 1.304-.383 1.896a4.89 4.89 0 0 1-1.037 1.543 4.897 4.897 0 0 1-1.541 1.039 4.727 4.727 0 0 1-1.893.383Zm0-.972c1.084 0 2.002-.377 2.754-1.131.753-.753 1.129-1.673 1.129-2.758 0-1.086-.376-2.005-1.129-2.759-.752-.753-1.67-1.13-2.754-1.13-1.085 0-2.003.377-2.755 1.13-.753.754-1.129 1.673-1.129 2.759 0 1.085.376 2.005 1.129 2.758.752.754 1.67 1.131 2.755 1.131Z"/></g><rect width="93" height="52" x="218" fill="#246073" rx="8"/><g filter="url(#i)"><rect width="75" height="35" x="227" y="8" fill="#fff" rx="3"/></g><path stroke="#ACACAC" d="M227 29.375h75"/><rect width="53.883" height="5.104" x="243.02" y="10.917" fill="#D9D9D9" rx="1"/><rect width="21.845" height="4.375" x="243.02" y="18.938" fill="#E9E9E9" rx="1"/><rect width="21.845" height="3.646" x="241.563" y="34.25" fill="#D9D9D9" rx="1"/><rect width="8.01" height="3.646" x="290.35" y="34.25" fill="#D9D9D9" rx="1"/><ellipse cx="233.553" cy="35.708" fill="#D9D9D9" rx="4.369" ry="4.375"/><mask id="j" width="12" height="13" x="229" y="9" maskUnits="userSpaceOnUse" style="mask-type:alpha"><path fill="#D9D9D9" d="M229.185 9.458h11.65v11.667h-11.65z"/></mask><g mask="url(#j)"><path fill="#3DC795" d="m234.33 17.528 3.422-3.427-.679-.68-2.743 2.746-1.383-1.386-.68.68 2.063 2.067Zm.68 2.625a4.722 4.722 0 0 1-1.894-.383 4.905 4.905 0 0 1-1.541-1.039 4.892 4.892 0 0 1-1.037-1.543 4.737 4.737 0 0 1-.383-1.896c0-.673.128-1.305.383-1.896.254-.591.6-1.106 1.037-1.544a4.913 4.913 0 0 1 1.541-1.039 4.728 4.728 0 0 1 1.894-.382c.671 0 1.302.127 1.893.382.59.256 1.104.602 1.541 1.04.437.437.783.952 1.037 1.543a4.72 4.72 0 0 1 .383 1.896 4.72 4.72 0 0 1-.383 1.896 4.892 4.892 0 0 1-1.037 1.543 4.905 4.905 0 0 1-1.541 1.039 4.72 4.72 0 0 1-1.893.383Zm0-.972c1.084 0 2.002-.377 2.754-1.13.753-.754 1.129-1.674 1.129-2.76 0-1.085-.376-2.004-1.129-2.758-.752-.753-1.67-1.13-2.754-1.13-1.085 0-2.003.377-2.755 1.13-.753.754-1.129 1.673-1.129 2.759 0 1.085.376 2.005 1.129 2.758.752.754 1.67 1.13 2.755 1.13Z"/></g><g filter="url(#k)"><rect width="78" height="33" x="24" y="9" fill="#fff" rx="3"/></g><path fill="#727F91" d="M61.936 30.712c.544-.432.792-.632.744-.6 1.568-1.296 2.8-2.36 3.696-3.192a15.097 15.097 0 0 0 2.304-2.616c.624-.912.936-1.8.936-2.664 0-.656-.152-1.168-.456-1.536-.304-.368-.76-.552-1.368-.552-.608 0-1.088.232-1.44.696-.336.448-.504 1.088-.504 1.92h-3.96c.032-1.36.32-2.496.864-3.408.56-.912 1.288-1.584 2.184-2.016.912-.432 1.92-.648 3.024-.648 1.904 0 3.336.488 4.296 1.464.976.976 1.464 2.248 1.464 3.816 0 1.712-.584 3.304-1.752 4.776-1.168 1.456-2.656 2.88-4.464 4.272h6.48v3.336H61.936v-3.048ZM75.311 25c0-2.752.528-4.92 1.584-6.504 1.072-1.584 2.792-2.376 5.16-2.376 2.368 0 4.08.792 5.136 2.376 1.072 1.584 1.608 3.752 1.608 6.504 0 2.784-.536 4.968-1.608 6.552-1.056 1.584-2.768 2.376-5.136 2.376-2.368 0-4.088-.792-5.16-2.376-1.056-1.584-1.584-3.768-1.584-6.552Zm9.456 0c0-1.616-.176-2.856-.528-3.72-.352-.88-1.08-1.32-2.184-1.32s-1.832.44-2.184 1.32c-.352.864-.528 2.104-.528 3.72 0 1.088.064 1.992.192 2.712.128.704.384 1.28.768 1.728.4.432.984.648 1.752.648s1.344-.216 1.728-.648c.4-.448.664-1.024.792-1.728.128-.72.192-1.624.192-2.712Z"/><mask id="l" width="24" height="24" x="33" y="12" maskUnits="userSpaceOnUse" style="mask-type:alpha"><path fill="#727F91" d="M33 12h24v24H33z"/></mask><g mask="url(#l)"><path fill="#727F91" d="m49.7 27.5 3.8-3.25 3 .25-4.4 3.825L53.4 34l-2.55-1.55-1.15-4.95Zm-2.35-7.3-1.05-2.45L47.45 15l2.3 5.425-2.4-.225Zm-7 9.625 3.15-1.9 3.15 1.925-.825-3.6 2.775-2.4-3.65-.325-1.45-3.4-1.45 3.375-3.65.325 2.775 2.425-.825 3.575ZM37.325 34l1.625-7.025-5.45-4.725 7.2-.625L43.5 15l2.8 6.625 7.2.625-5.45 4.725L49.675 34 43.5 30.275 37.325 34Z"/></g><path fill="#fff" d="M161.584 36.192c-1.312 0-2.496-.28-3.552-.84a6.253 6.253 0 0 1-2.472-2.4c-.592-1.04-.888-2.256-.888-3.648 0-1.376.304-2.584.912-3.624a6.166 6.166 0 0 1 2.496-2.424c1.056-.56 2.24-.84 3.552-.84 1.312 0 2.496.28 3.552.84a6.166 6.166 0 0 1 2.496 2.424c.608 1.04.912 2.248.912 3.624s-.312 2.592-.936 3.648a6.172 6.172 0 0 1-2.52 2.4c-1.056.56-2.24.84-3.552.84Zm0-3.552c.784 0 1.448-.288 1.992-.864.56-.576.84-1.4.84-2.472s-.272-1.896-.816-2.472a2.561 2.561 0 0 0-1.968-.864c-.8 0-1.464.288-1.992.864-.528.56-.792 1.384-.792 2.472 0 1.072.256 1.896.768 2.472a2.561 2.561 0 0 0 1.968.864ZM58 84a3 3 0 1 0 0 6v-6Zm202.121 5.121a3 3 0 0 0 0-4.242l-19.092-19.092a3 3 0 1 0-4.242 4.242L253.757 87l-16.97 16.971a2.998 2.998 0 0 0 0 4.242 2.998 2.998 0 0 0 4.242 0l19.092-19.092ZM58 90h200v-6H58v6ZM258 125a3 3 0 1 1 0 6v-6Zm-202.121 5.121a3 3 0 0 1 0-4.242l19.092-19.092a3 3 0 1 1 4.242 4.242L62.243 128l16.97 16.971a3 3 0 1 1-4.242 4.242l-19.092-19.092ZM258 131H58v-6h200v6Z"/><defs><filter id="b" width="63.211" height="73.062" x="100.131" y="290" color-interpolation-filters="sRGB" filterUnits="userSpaceOnUse"><feFlood flood-opacity="0" result="BackgroundImageFix"/><feColorMatrix in="SourceAlpha" result="hardAlpha" values="0 0 0 0 0 0 0 0 0 0 0 0 0 0 0 0 0 0 127 0"/><feOffset dy="2.767"/><feGaussianBlur stdDeviation="1.107"/><feColorMatrix values="0 0 0 0 0 0 0 0 0 0 0 0 0 0 0 0 0 0 0.030926 0"/><feBlend in2="BackgroundImageFix" result="effect1_dropShadow_477_1295"/><feColorMatrix in="SourceAlpha" result="hardAlpha" values="0 0 0 0 0 0 0 0 0 0 0 0 0 0 0 0 0 0 127 0"/><feOffset dy="6.65"/><feGaussianBlur stdDeviation="2.66"/><feColorMatrix values="0 0 0 0 0 0 0 0 0 0 0 0 0 0 0 0 0 0 0.0444282 0"/><feBlend in2="effect1_dropShadow_477_1295" result="effect2_dropShadow_477_1295"/><feColorMatrix in="SourceAlpha" result="hardAlpha" values="0 0 0 0 0 0 0 0 0 0 0 0 0 0 0 0 0 0 127 0"/><feOffset dy="12.522"/><feGaussianBlur stdDeviation="5.009"/><feColorMatrix values="0 0 0 0 0 0 0 0 0 0 0 0 0 0 0 0 0 0 0.055 0"/><feBlend in2="effect2_dropShadow_477_1295" result="effect3_dropShadow_477_1295"/><feColorMatrix in="SourceAlpha" result="hardAlpha" values="0 0 0 0 0 0 0 0 0 0 0 0 0 0 0 0 0 0 127 0"/><feOffset dy="22.336"/><feGaussianBlur stdDeviation="8.935"/><feColorMatrix values="0 0 0 0 0 0 0 0 0 0 0 0 0 0 0 0 0 0 0.0655718 0"/><feBlend in2="effect3_dropShadow_477_1295" result="effect4_dropShadow_477_1295"/><feBlend in="SourceGraphic" in2="effect4_dropShadow_477_1295" result="shape"/></filter><filter id="e" width="57.719" height="72.728" x="144.131" y="266" color-interpolation-filters="sRGB" filterUnits="userSpaceOnUse"><feFlood flood-opacity="0" result="BackgroundImageFix"/><feColorMatrix in="SourceAlpha" result="hardAlpha" values="0 0 0 0 0 0 0 0 0 0 0 0 0 0 0 0 0 0 127 0"/><feOffset dy="2.767"/><feGaussianBlur stdDeviation="1.107"/><feColorMatrix values="0 0 0 0 0 0 0 0 0 0 0 0 0 0 0 0 0 0 0.030926 0"/><feBlend in2="BackgroundImageFix" result="effect1_dropShadow_477_1295"/><feColorMatrix in="SourceAlpha" result="hardAlpha" values="0 0 0 0 0 0 0 0 0 0 0 0 0 0 0 0 0 0 127 0"/><feOffset dy="6.65"/><feGaussianBlur stdDeviation="2.66"/><feColorMatrix values="0 0 0 0 0 0 0 0 0 0 0 0 0 0 0 0 0 0 0.0444282 0"/><feBlend in2="effect1_dropShadow_477_1295" result="effect2_dropShadow_477_1295"/><feColorMatrix in="SourceAlpha" result="hardAlpha" values="0 0 0 0 0 0 0 0 0 0 0 0 0 0 0 0 0 0 127 0"/><feOffset dy="12.522"/><feGaussianBlur stdDeviation="5.009"/><feColorMatrix values="0 0 0 0 0 0 0 0 0 0 0 0 0 0 0 0 0 0 0.055 0"/><feBlend in2="effect2_dropShadow_477_1295" result="effect3_dropShadow_477_1295"/><feColorMatrix in="SourceAlpha" result="hardAlpha" values="0 0 0 0 0 0 0 0 0 0 0 0 0 0 0 0 0 0 127 0"/><feOffset dy="22.336"/><feGaussianBlur stdDeviation="8.935"/><feColorMatrix values="0 0 0 0 0 0 0 0 0 0 0 0 0 0 0 0 0 0 0.0655718 0"/><feBlend in2="effect3_dropShadow_477_1295" result="effect4_dropShadow_477_1295"/><feBlend in="SourceGraphic" in2="effect4_dropShadow_477_1295" result="shape"/></filter><filter id="g" width="85" height="45" x="116" y="155" color-interpolation-filters="sRGB" filterUnits="userSpaceOnUse"><feFlood flood-opacity="0" result="BackgroundImageFix"/><feColorMatrix in="SourceAlpha" result="hardAlpha" values="0 0 0 0 0 0 0 0 0 0 0 0 0 0 0 0 0 0 127 0"/><feOffset dy="3"/><feGaussianBlur stdDeviation="2.5"/><feComposite in2="hardAlpha" operator="out"/><feColorMatrix values="0 0 0 0 0 0 0 0 0 0 0 0 0 0 0 0 0 0 0.15 0"/><feBlend in2="BackgroundImageFix" result="effect1_dropShadow_477_1295"/><feBlend in="SourceGraphic" in2="effect1_dropShadow_477_1295" result="shape"/></filter><filter id="i" width="85" height="45" x="222" y="6" color-interpolation-filters="sRGB" filterUnits="userSpaceOnUse"><feFlood flood-opacity="0" result="BackgroundImageFix"/><feColorMatrix in="SourceAlpha" result="hardAlpha" values="0 0 0 0 0 0 0 0 0 0 0 0 0 0 0 0 0 0 127 0"/><feOffset dy="3"/><feGaussianBlur stdDeviation="2.5"/><feComposite in2="hardAlpha" operator="out"/><feColorMatrix values="0 0 0 0 0 0 0 0 0 0 0 0 0 0 0 0 0 0 0.15 0"/><feBlend in2="BackgroundImageFix" result="effect1_dropShadow_477_1295"/><feBlend in="SourceGraphic" in2="effect1_dropShadow_477_1295" result="shape"/></filter><filter id="k" width="88" height="43" x="19" y="7" color-interpolation-filters="sRGB" filterUnits="userSpaceOnUse"><feFlood flood-opacity="0" result="BackgroundImageFix"/><feColorMatrix in="SourceAlpha" result="hardAlpha" values="0 0 0 0 0 0 0 0 0 0 0 0 0 0 0 0 0 0 127 0"/><feOffset dy="3"/><feGaussianBlur stdDeviation="2.5"/><feComposite in2="hardAlpha" operator="out"/><feColorMatrix values="0 0 0 0 0 0 0 0 0 0 0 0 0 0 0 0 0 0 0.15 0"/><feBlend in2="BackgroundImageFix" result="effect1_dropShadow_477_1295"/><feBlend in="SourceGraphic" in2="effect1_dropShadow_477_1295" result="shape"/></filter><clipPath id="a"><path fill="#fff" d="m133.181 290 12.292 7.302-15.18 25.555L118 315.555z"/></clipPath><clipPath id="d"><path fill="#fff" d="M162 269.965 175.736 266l8.244 28.558-13.736 3.965z"/></clipPath></defs></svg>
