<svg xmlns="http://www.w3.org/2000/svg" width="305" height="328" fill="none"><path fill="#D45151" d="M286.5 132.398c-4.2-1.231-6.75.685-7.5 1.797l5.75 10.522L291 146l2-5.389c-.417-2.224-2.3-6.981-6.5-8.213Z"/><path fill="#E08570" d="M257 193.98v-4.843c8.8-.612 15-5.013 17-7.137l-1 8.922-.75 4.078-15.25-1.02Z"/><path fill="#963B3B" d="M207.649 244.089c-9.954 1.816-22.801 1.989-28.586 1.038L176 258.617c22.46 8.094 50.11-.173 60.49-5.707L237 221l-4.594.259-14.293 22.83s-6.442-.734-10.464 0Z"/><path fill="#D55151" d="M245.953 201.037c-5.549 5.122-11.388 15.792-13.614 20.487l1.028 30.22L229 294h69.609c3.904-12.293 4.537-34.146 4.366-43.537.358-20.898-6.156-36.827-10.725-44.356-1.133-1.867-2.934-3.189-4.965-3.992l-10.509-4.152-.089-2.211c-.108-2.699-.982-5.765-3.539-6.639a2.261 2.261 0 0 0-.482-.113v1.537c-3.082 3.687-11.901 2.561-15.925 1.536v-.769c0-.65-.615-1.134-1.224-.906-1.456.544-1.859 1.143-1.859 1.419v7.171l-7.705 2.049Z"/><path fill="#3DC795" d="M276.078 260.318c.562 8.215 4.017 18.799 5.944 23.682L285 271.97c-3.249-10.033-4.512-25.254-4.603-30.97l-3.255 11.539c-.716 2.539-1.244 5.147-1.064 7.779Z"/><path fill="#F4A390" d="M247.816 184.906c-3.439-5.689-3.624-22.011-3.287-29.461L242 150.873l7.333-7.873 10.368 11.937L286 163.572l-.759 12.191-10.367 6.349s-5.226 4.148-9.61 5.587c-4.383 1.44-14.009 2.896-17.448-2.793Z"/><path fill="#4D2500" d="M289.487 192.115c1.032 3.238-1.119 6.745-2.324 8.095.413.809 5.68.843 8.262.758 1.377-.674 4.545-2.63 6.197-5.059 2.066-3.036 2.582-7.842 2.066-9.866-.413-1.619-2.238-4.891-3.099-6.324-.86-1.434 0-5.818 0-5.818 2.892-7.286 4.131-13.324 4.39-15.432.172-4.3-.62-14.47-5.164-20.743-4.545-6.274-13.255-6.156-17.041-5.313 7.023 4.048 7.745 9.951 7.229 12.396-.516-2.951-3.356-9.158-10.586-10.372-7.23-1.214-12.996 0-14.976.759-9.811-.506-17.041 1.518-20.655 3.542-3.615 2.023-8.263 6.577-7.746 10.624.413 3.238 5.508 5.397 8.004 6.072-.207-5.667 3.184-10.456 4.905-12.143 4.338 17 21.775 19.732 29.952 18.973l3.873 2.277c1.032-.759 2.943-1.063 2.323 3.794-.774 6.072-2.065 6.325-3.356 8.348-1.033 1.619-3.185 1.518-4.131 1.265l-4.132 4.554-.258 3.288 7.488-6.83c2.496 3.036 7.746 9.916 8.779 13.155Z"/><path fill="#246073" d="M257.997 99.182c15.888-21.877 20.094-49.93.851-68.534C242.77 15.103 226.265 20.596 203 19.414c-23.265-1.181-41.325 9.546-44.162 12.922-2.27 2.7-3.405 17.218-3.689 24.139-1.021 31.6-3.154 29.823 9.351 43.939 14.019 15.824 30.524 12.034 49.946 12.38l15.508 22.12-1.077-22.693c12.659-1.361 23.427-5.201 29.12-13.04Z"/><path fill="#F4A390" d="M142.331 183.893c1.844 4.825 6.746 5.362 8.967 5.027l13.578-3.207L170 159.262l-17.934-.503L140.281 157 139 165.797c.342 4.021 1.486 13.27 3.331 18.096Z"/><path fill="#E6836E" d="m146.99 197.982 5.154-2.037-.773-8.145c4.742 0 11.083-1.952 12.629-2.8l-4.639 30.545L148.278 227 139 225.218l7.99-27.236ZM182.367 264.31c-.877-4.016-1.52-9.922-1.93-15-.338-4.192 1.324-8.372 4.947-10.508 4.895-2.886 10.538-4.637 10.818.34.499 8.848.951 14.781.748 24.269-.257 12.023-2.16 21.657-3.49 30.589h-11.964l1.701-22.217c.192-2.502-.294-5.022-.83-7.473ZM123.448 258.859l1.796-17.443c1.026-.506 3.9-.961 7.184 1.264 3.285 2.224 2.737 16.938 2.053 24.017l-6.928 13.904c-1.437 3.236-6.757 10.281-9.237 13.399H106l10.777-19.214c4.31-4.045 6.243-12.303 6.671-15.927Z"/><path fill="#D9D9D9" d="M134.764 207.897c-3.8 7.68-8.093 25.514-9.764 33.471L137.403 245l4.486-26.984L144 197c-1.495 0-5.436 3.217-9.236 10.897Z"/><path fill="#fff" d="M132.307 250.053c4.245 13.364-1.769 34.866-5.307 43.947h54.581c-1.819-16.037-3.537-28.441-4.548-32.639-1.011-4.197 2.274-18.246 2.274-18.246 4.043.616 12.803-2.827 16.678-4.626.404-17.476-7.412-36.408-12.129-43.433l-40.936 30.069c0-14.392 5.222-27.413 7.833-32.125l-6.57 3.855c-2.695 5.397-9.147 17.938-13.393 24.929-4.245 6.99-3.79 12.507-3.032 14.392-.253-.943.303.514 4.549 13.877Z"/><path fill="#BA5900" d="M152.827 214.182c-2.089 7.405 1.959 13.196 3.833 15.069l3.832-8.428c1.022-1.788 4.548-6.13 10.475-9.195 5.928-3.065 8.943-9.109 9.709-11.749l4.599 1.533c6.745 7.764 9.624 29.542 10.731 39.588 3.27-.613 8.687-5.789 10.475-8.428 1.022-2.214 2.555-7.918.511-13.026-2.554-6.385-10.475-15.325-16.096-25.03-4.497-7.765-6.813-25.881-7.409-33.969.085-6.3-1.686-19.718-9.454-22.987-7.767-3.269-18.395-2.724-22.739-2.043-4.088.51-12.519 3.524-13.541 11.493.255 9.705.511 6.13 1.277 11.749.614 4.495-2.299 11.067-3.832 13.792-2.3 4.342-3.322 13.026-2.044 18.645.418 1.836 1.192 2.383 1.022 2.809-4.855 7.151-8.176 14.047-8.176 20.177 0 4.904 2.385 7.492 3.577 8.173 2.976-10.968 7.711-18.148 10.068-21.243.882-1.159 2.227-1.821 3.676-1.971 3.057-.315 8.44-.892 11.039-1.305l-1.533-9.705c-11.65 1.634-13.371-18.56-12.775-28.861 4.701 2.451 19.333 2.383 26.061 2.043l-1.788 14.303c-4.855 36.778-8.687 28.605-11.498 38.566Z"/><path fill="#67B6FF" d="M61.325 78.504c-16.455-21.68-19.637-49.16-.881-67.917C73-.086 83 2.688 119.5.914c24.096-1.17 35.077-3.661 44.526 11.346 5.04 8.005 3.526 17.063 3.82 23.921 1.057 31.315 1.154 31.233-5.346 44.233-11 13-35.954 11.236-56.069 11.58l-16.062 21.92 1.116-22.49c-13.111-1.348-24.264-5.153-30.16-12.92Z"/><g filter="url(#a)"><rect width="52" height="22" x="184" y="80.914" fill="#fff" rx="3"/></g><path stroke="#ACACAC" d="M184 93.414h52"/><rect width="36" height="4" x="196" y="82.914" fill="#D9D9D9" rx="1"/><rect width="13" height="3" x="196" y="87.914" fill="#E9E9E9" rx="1"/><path fill="#D9D9D9" d="M193 97.914h16v2h-16zM227 97.914h6v2h-6z"/><circle cx="189" cy="97.914" r="3" fill="#D9D9D9"/><mask id="b" width="8" height="8" x="185" y="81" maskUnits="userSpaceOnUse" style="mask-type:alpha"><path fill="#D9D9D9" stroke="#3DC795" d="M186.352 82.204h5.992v5.992h-5.992z"/></mask><g mask="url(#b)"><mask id="c" fill="#fff"><path d="m188.94 86.54 2.054-2.054-.408-.408-1.646 1.646-.83-.83-.408.408 1.238 1.238Zm.408 1.573c-.403 0-.782-.076-1.136-.23a2.932 2.932 0 0 1-.925-.622 2.948 2.948 0 0 1-.623-.925 2.836 2.836 0 0 1-.229-1.136c0-.403.076-.782.229-1.136.153-.355.361-.663.623-.925.262-.263.57-.47.925-.623.354-.153.733-.23 1.136-.23.403 0 .782.077 1.136.23.355.153.663.36.925.622.262.263.47.571.623.925.153.355.229.734.229 1.137s-.076.781-.229 1.136a2.948 2.948 0 0 1-.623.925c-.262.262-.57.47-.925.622-.354.154-.733.23-1.136.23Zm0-.583c.651 0 1.202-.225 1.653-.677a2.248 2.248 0 0 0 .678-1.653c0-.651-.226-1.202-.678-1.654a2.247 2.247 0 0 0-1.653-.677c-.651 0-1.202.226-1.653.677a2.248 2.248 0 0 0-.678 1.654c0 .65.226 1.201.678 1.653a2.247 2.247 0 0 0 1.653.677Z"/></mask><path fill="#7E7E7E" d="m188.94 86.54 2.054-2.054-.408-.408-1.646 1.646-.83-.83-.408.408 1.238 1.238Zm.408 1.573c-.403 0-.782-.076-1.136-.23a2.932 2.932 0 0 1-.925-.622 2.948 2.948 0 0 1-.623-.925 2.836 2.836 0 0 1-.229-1.136c0-.403.076-.782.229-1.136.153-.355.361-.663.623-.925.262-.263.57-.47.925-.623.354-.153.733-.23 1.136-.23.403 0 .782.077 1.136.23.355.153.663.36.925.622.262.263.47.571.623.925.153.355.229.734.229 1.137s-.076.781-.229 1.136a2.948 2.948 0 0 1-.623.925c-.262.262-.57.47-.925.622-.354.154-.733.23-1.136.23Zm0-.583c.651 0 1.202-.225 1.653-.677a2.248 2.248 0 0 0 .678-1.653c0-.651-.226-1.202-.678-1.654a2.247 2.247 0 0 0-1.653-.677c-.651 0-1.202.226-1.653.677a2.248 2.248 0 0 0-.678 1.654c0 .65.226 1.201.678 1.653a2.247 2.247 0 0 0 1.653.677Z"/><path fill="#3DC795" d="m188.94 86.54-.707.707.707.707.707-.707-.707-.707Zm2.054-2.054.707.707.707-.707-.707-.707-.707.707Zm-.408-.408.707-.707-.707-.707-.707.707.707.707Zm-1.646 1.646-.707.707.707.707.707-.707-.707-.707Zm-.83-.83.707-.707-.707-.707-.707.707.707.707Zm-.408.408-.707-.708-.707.708.707.707.707-.707Zm.51 2.581.396-.918-.396.918Zm-1.548-1.547.918-.396-.918.396Zm0-2.272.918.396-.918-.396Zm1.548-1.548-.396-.919h-.001l.397.919Zm2.272 0 .396-.918-.396.918Zm1.548 1.547-.919.397h.001l.918-.396Zm0 2.273-.918-.397h-.001l.919.397Zm-1.548 1.547-.396-.918.396.918Zm-.837-.636 2.054-2.054-1.414-1.414-2.054 2.054 1.414 1.414Zm2.054-3.468-.408-.408-1.414 1.414.408.408 1.414-1.414Zm-1.822-.408-1.646 1.646 1.414 1.414 1.646-1.646-1.414-1.414Zm-.232 1.646-.83-.83-1.414 1.414.83.83 1.414-1.414Zm-2.244-.83-.408.407 1.414 1.415.408-.408-1.414-1.414Zm-.408 1.822 1.238 1.238 1.414-1.414-1.238-1.239-1.414 1.415Zm2.353 1.104c-.273 0-.516-.051-.74-.148l-.793 1.837c.485.209 1 .311 1.533.311v-2Zm-.74-.148a1.941 1.941 0 0 1-.614-.411l-1.414 1.414c.355.355.77.633 1.236.834l.792-1.837Zm-.614-.411a1.945 1.945 0 0 1-.412-.614l-1.836.792c.201.466.478.88.834 1.236l1.414-1.414Zm-.412-.615a1.846 1.846 0 0 1-.147-.74h-2c0 .534.102 1.048.311 1.533l1.836-.793Zm-.147-.74c0-.272.051-.515.147-.74l-1.836-.792c-.209.485-.311 1-.311 1.533h2Zm.147-.74c.105-.243.243-.444.412-.613l-1.414-1.415c-.356.356-.633.77-.834 1.237l1.836.791Zm.412-.613c.169-.17.371-.307.614-.412l-.793-1.836c-.465.2-.88.478-1.235.833l1.414 1.415Zm.614-.412a1.84 1.84 0 0 1 .74-.148v-2c-.533 0-1.047.102-1.532.311l.792 1.837Zm.74-.148c.273 0 .516.051.74.148l.792-1.837a3.837 3.837 0 0 0-1.532-.31v2Zm.74.148c.243.105.445.242.614.412l1.414-1.415a3.937 3.937 0 0 0-1.236-.833l-.792 1.836Zm.614.412c.169.169.306.37.411.614l1.837-.792a3.949 3.949 0 0 0-.834-1.237l-1.414 1.415Zm.412.614c.096.224.147.467.147.74h2c0-.534-.102-1.048-.311-1.533l-1.836.793Zm.147.74c0 .272-.051.516-.147.74l1.836.792c.209-.485.311-1 .311-1.532h-2Zm-.148.74a1.943 1.943 0 0 1-.411.614l1.414 1.414c.355-.355.633-.77.834-1.236l-1.837-.792Zm-.411.614c-.169.169-.371.306-.614.411l.792 1.837c.466-.201.881-.479 1.236-.834l-1.414-1.414Zm-.614.411a1.836 1.836 0 0 1-.74.148v2c.533 0 1.047-.102 1.532-.311l-.792-1.837Zm-.74 1.565c.91 0 1.717-.327 2.36-.97l-1.414-1.414c-.26.26-.555.384-.946.384v2Zm2.36-.97a3.25 3.25 0 0 0 .971-2.36h-2c0 .39-.125.686-.385.946l1.414 1.414Zm.971-2.36c0-.91-.328-1.718-.971-2.36l-1.414 1.413c.26.26.385.556.385.947h2Zm-.971-2.36a3.248 3.248 0 0 0-2.36-.971v2c.391 0 .686.124.946.385l1.414-1.415Zm-2.36-.971a3.25 3.25 0 0 0-2.361.97l1.415 1.415c.26-.26.555-.385.946-.385v-2Zm-2.361.97a3.248 3.248 0 0 0-.97 2.36h2c0-.39.125-.685.385-.945l-1.415-1.415Zm-.97 2.36c0 .91.327 1.718.97 2.361l1.415-1.414a1.253 1.253 0 0 1-.385-.946h-2Zm.97 2.361a3.25 3.25 0 0 0 2.361.97v-2c-.391 0-.686-.124-.946-.384l-1.415 1.414Z" mask="url(#c)"/></g><g filter="url(#d)"><rect width="52" height="22" x="184" y="54.914" fill="#fff" rx="3"/></g><path stroke="#ACACAC" d="M184 67.414h52"/><rect width="36" height="4" x="196" y="56.914" fill="#D9D9D9" rx="1"/><rect width="13" height="3" x="196" y="61.914" fill="#E9E9E9" rx="1"/><path fill="#D9D9D9" d="M193 71.914h16v2h-16zM227 71.914h6v2h-6z"/><circle cx="189" cy="71.914" r="3" fill="#D9D9D9"/><mask id="e" width="8" height="8" x="185" y="55" maskUnits="userSpaceOnUse" style="mask-type:alpha"><path fill="#D9D9D9" stroke="#3DC795" d="M186.352 56.204h5.992v5.992h-5.992z"/></mask><g mask="url(#e)"><mask id="f" fill="#fff"><path d="m188.94 60.54 2.054-2.054-.408-.408-1.646 1.646-.83-.83-.408.408 1.238 1.238Zm.408 1.573c-.403 0-.782-.077-1.136-.23a2.932 2.932 0 0 1-.925-.622 2.948 2.948 0 0 1-.623-.925 2.836 2.836 0 0 1-.229-1.136c0-.403.076-.782.229-1.137.153-.354.361-.662.623-.925.262-.262.57-.47.925-.622.354-.153.733-.23 1.136-.23.403 0 .782.077 1.136.23.355.153.663.36.925.623.262.262.47.57.623.924.153.355.229.734.229 1.137s-.076.781-.229 1.136a2.948 2.948 0 0 1-.623.925c-.262.262-.57.47-.925.622-.354.153-.733.23-1.136.23Zm0-.583c.651 0 1.202-.225 1.653-.677a2.248 2.248 0 0 0 .678-1.653c0-.651-.226-1.202-.678-1.654a2.247 2.247 0 0 0-1.653-.677c-.651 0-1.202.226-1.653.677a2.248 2.248 0 0 0-.678 1.654c0 .65.226 1.201.678 1.653a2.247 2.247 0 0 0 1.653.677Z"/></mask><path fill="#7E7E7E" d="m188.94 60.54 2.054-2.054-.408-.408-1.646 1.646-.83-.83-.408.408 1.238 1.238Zm.408 1.573c-.403 0-.782-.077-1.136-.23a2.932 2.932 0 0 1-.925-.622 2.948 2.948 0 0 1-.623-.925 2.836 2.836 0 0 1-.229-1.136c0-.403.076-.782.229-1.137.153-.354.361-.662.623-.925.262-.262.57-.47.925-.622.354-.153.733-.23 1.136-.23.403 0 .782.077 1.136.23.355.153.663.36.925.623.262.262.47.57.623.924.153.355.229.734.229 1.137s-.076.781-.229 1.136a2.948 2.948 0 0 1-.623.925c-.262.262-.57.47-.925.622-.354.153-.733.23-1.136.23Zm0-.583c.651 0 1.202-.225 1.653-.677a2.248 2.248 0 0 0 .678-1.653c0-.651-.226-1.202-.678-1.654a2.247 2.247 0 0 0-1.653-.677c-.651 0-1.202.226-1.653.677a2.248 2.248 0 0 0-.678 1.654c0 .65.226 1.201.678 1.653a2.247 2.247 0 0 0 1.653.677Z"/><path fill="#3DC795" d="m188.94 60.54-.707.707.707.707.707-.707-.707-.707Zm2.054-2.054.707.707.707-.707-.707-.707-.707.707Zm-.408-.408.707-.707-.707-.707-.707.707.707.707Zm-1.646 1.646-.707.707.707.707.707-.707-.707-.707Zm-.83-.83.707-.707-.707-.707-.707.707.707.707Zm-.408.408-.707-.708-.707.708.707.707.707-.707Zm.51 2.581.396-.918-.396.918Zm-1.548-1.547.918-.396-.918.396Zm0-2.273.918.397-.918-.397Zm1.548-1.547-.396-.919h-.001l.397.919Zm2.272 0 .396-.918-.396.918Zm1.548 1.547-.919.396h.001l.918-.396Zm0 2.273-.918-.396h-.001l.919.396Zm-1.548 1.547-.396-.918.396.918Zm-.837-.636 2.054-2.054-1.414-1.414-2.054 2.054 1.414 1.414Zm2.054-3.468-.408-.408-1.414 1.414.408.408 1.414-1.414Zm-1.822-.408-1.646 1.646 1.414 1.414 1.646-1.646-1.414-1.414Zm-.232 1.646-.83-.83-1.414 1.414.83.83 1.414-1.414Zm-2.244-.83-.408.407 1.414 1.415.408-.408-1.414-1.414Zm-.408 1.822 1.238 1.238 1.414-1.414-1.238-1.239-1.414 1.415Zm2.353 1.104c-.273 0-.516-.051-.74-.148l-.793 1.836c.485.21 1 .312 1.533.312v-2Zm-.74-.148a1.941 1.941 0 0 1-.614-.411l-1.414 1.414c.355.355.77.633 1.236.834l.792-1.837Zm-.614-.411a1.945 1.945 0 0 1-.412-.614l-1.836.792c.201.466.478.88.834 1.236l1.414-1.414Zm-.412-.614a1.846 1.846 0 0 1-.147-.74h-2c0 .533.102 1.047.311 1.532l1.836-.792Zm-.147-.74c0-.273.051-.516.147-.74l-1.836-.793c-.209.485-.311 1-.311 1.533h2Zm.147-.74c.105-.244.243-.445.412-.614l-1.414-1.415c-.356.356-.633.77-.834 1.236l1.836.792Zm.412-.614c.169-.17.371-.307.614-.412l-.793-1.836c-.465.2-.88.478-1.235.833l1.414 1.415Zm.614-.412a1.84 1.84 0 0 1 .74-.148v-2c-.533 0-1.047.102-1.532.311l.792 1.837Zm.74-.148c.273 0 .516.051.74.148l.792-1.837a3.837 3.837 0 0 0-1.532-.31v2Zm.74.148c.243.105.445.242.614.412l1.414-1.415a3.937 3.937 0 0 0-1.236-.833l-.792 1.836Zm.614.412c.169.169.306.37.411.614l1.837-.793a3.949 3.949 0 0 0-.834-1.236l-1.414 1.415Zm.412.614c.096.224.147.467.147.74h2c0-.534-.102-1.048-.311-1.533l-1.836.793Zm.147.74c0 .272-.051.516-.147.74l1.836.792c.209-.485.311-1 .311-1.532h-2Zm-.148.74a1.943 1.943 0 0 1-.411.614l1.414 1.414c.355-.355.633-.77.834-1.236l-1.837-.792Zm-.411.614c-.169.169-.371.306-.614.411l.792 1.837c.466-.201.881-.479 1.236-.834l-1.414-1.414Zm-.614.411a1.836 1.836 0 0 1-.74.148v2c.533 0 1.047-.102 1.532-.312l-.792-1.836Zm-.74 1.565c.91 0 1.717-.327 2.36-.97l-1.414-1.414c-.26.26-.555.384-.946.384v2Zm2.36-.97a3.25 3.25 0 0 0 .971-2.36h-2c0 .39-.125.686-.385.946l1.414 1.414Zm.971-2.36c0-.91-.328-1.718-.971-2.36l-1.414 1.413c.26.26.385.556.385.947h2Zm-.971-2.36a3.248 3.248 0 0 0-2.36-.971v2c.391 0 .686.124.946.385l1.414-1.415Zm-2.36-.971a3.25 3.25 0 0 0-2.361.97l1.415 1.415c.26-.26.555-.385.946-.385v-2Zm-2.361.97a3.248 3.248 0 0 0-.97 2.36h2c0-.39.125-.685.385-.945l-1.415-1.415Zm-.97 2.36c0 .91.327 1.718.97 2.361l1.415-1.414a1.253 1.253 0 0 1-.385-.946h-2Zm.97 2.361a3.25 3.25 0 0 0 2.361.97v-2c-.391 0-.686-.124-.946-.384l-1.415 1.414Z" mask="url(#f)"/></g><g filter="url(#g)"><rect width="52" height="22" x="184" y="28.914" fill="#fff" rx="3"/></g><path stroke="#ACACAC" d="M184 41.414h52"/><rect width="36" height="4" x="196" y="30.914" fill="#D9D9D9" rx="1"/><rect width="13" height="3" x="196" y="35.914" fill="#E9E9E9" rx="1"/><path fill="#D9D9D9" d="M193 45.914h16v2h-16zM227 45.914h6v2h-6z"/><circle cx="189" cy="45.914" r="3" fill="#D9D9D9"/><mask id="h" width="8" height="8" x="185" y="29" maskUnits="userSpaceOnUse" style="mask-type:alpha"><path fill="#D9D9D9" stroke="#3DC795" d="M186.352 30.204h5.992v5.992h-5.992z"/></mask><g mask="url(#h)"><mask id="i" fill="#fff"><path d="m188.94 34.54 2.054-2.054-.408-.408-1.646 1.646-.83-.83-.408.408 1.238 1.238Zm.408 1.573c-.403 0-.782-.077-1.136-.23a2.932 2.932 0 0 1-.925-.622 2.948 2.948 0 0 1-.623-.925 2.836 2.836 0 0 1-.229-1.136c0-.403.076-.782.229-1.137.153-.354.361-.662.623-.925.262-.262.57-.47.925-.622.354-.153.733-.23 1.136-.23.403 0 .782.077 1.136.23.355.153.663.36.925.623.262.262.47.57.623.924.153.355.229.734.229 1.137s-.076.781-.229 1.136a2.948 2.948 0 0 1-.623.925c-.262.262-.57.47-.925.622-.354.153-.733.23-1.136.23Zm0-.583c.651 0 1.202-.225 1.653-.677a2.248 2.248 0 0 0 .678-1.653c0-.651-.226-1.202-.678-1.654a2.247 2.247 0 0 0-1.653-.677c-.651 0-1.202.226-1.653.677a2.248 2.248 0 0 0-.678 1.654c0 .65.226 1.201.678 1.653a2.247 2.247 0 0 0 1.653.677Z"/></mask><path fill="#7E7E7E" d="m188.94 34.54 2.054-2.054-.408-.408-1.646 1.646-.83-.83-.408.408 1.238 1.238Zm.408 1.573c-.403 0-.782-.077-1.136-.23a2.932 2.932 0 0 1-.925-.622 2.948 2.948 0 0 1-.623-.925 2.836 2.836 0 0 1-.229-1.136c0-.403.076-.782.229-1.137.153-.354.361-.662.623-.925.262-.262.57-.47.925-.622.354-.153.733-.23 1.136-.23.403 0 .782.077 1.136.23.355.153.663.36.925.623.262.262.47.57.623.924.153.355.229.734.229 1.137s-.076.781-.229 1.136a2.948 2.948 0 0 1-.623.925c-.262.262-.57.47-.925.622-.354.153-.733.23-1.136.23Zm0-.583c.651 0 1.202-.225 1.653-.677a2.248 2.248 0 0 0 .678-1.653c0-.651-.226-1.202-.678-1.654a2.247 2.247 0 0 0-1.653-.677c-.651 0-1.202.226-1.653.677a2.248 2.248 0 0 0-.678 1.654c0 .65.226 1.201.678 1.653a2.247 2.247 0 0 0 1.653.677Z"/><path fill="#3DC795" d="m188.94 34.54-.707.707.707.707.707-.707-.707-.707Zm2.054-2.054.707.707.707-.707-.707-.707-.707.707Zm-.408-.408.707-.707-.707-.707-.707.707.707.707Zm-1.646 1.646-.707.707.707.707.707-.707-.707-.707Zm-.83-.83.707-.707-.707-.707-.707.707.707.707Zm-.408.408-.707-.708-.707.708.707.707.707-.707Zm.51 2.581.396-.918-.396.918Zm-1.548-1.547.918-.396-.918.396Zm0-2.273.918.397-.918-.397Zm1.548-1.547-.396-.919h-.001l.397.919Zm2.272 0 .396-.918-.396.918Zm1.548 1.547-.919.396h.001l.918-.396Zm0 2.273-.918-.396h-.001l.919.396Zm-1.548 1.547-.396-.918.396.918Zm-.837-.636 2.054-2.054-1.414-1.414-2.054 2.054 1.414 1.414Zm2.054-3.468-.408-.408-1.414 1.414.408.408 1.414-1.414Zm-1.822-.408-1.646 1.646 1.414 1.414 1.646-1.646-1.414-1.414Zm-.232 1.646-.83-.83-1.414 1.414.83.83 1.414-1.414Zm-2.244-.83-.408.407 1.414 1.415.408-.408-1.414-1.414Zm-.408 1.822 1.238 1.238 1.414-1.414-1.238-1.239-1.414 1.415Zm2.353 1.104c-.273 0-.516-.051-.74-.148l-.793 1.836c.485.21 1 .312 1.533.312v-2Zm-.74-.148a1.941 1.941 0 0 1-.614-.411l-1.414 1.414c.355.355.77.633 1.236.834l.792-1.837Zm-.614-.411a1.945 1.945 0 0 1-.412-.614l-1.836.792c.201.466.478.88.834 1.236l1.414-1.414Zm-.412-.614a1.846 1.846 0 0 1-.147-.74h-2c0 .533.102 1.047.311 1.532l1.836-.792Zm-.147-.74c0-.273.051-.516.147-.74l-1.836-.793c-.209.485-.311 1-.311 1.533h2Zm.147-.74c.105-.244.243-.445.412-.614l-1.414-1.415c-.356.356-.633.77-.834 1.236l1.836.792Zm.412-.614c.169-.17.371-.307.614-.412l-.793-1.836c-.465.2-.88.478-1.235.833l1.414 1.415Zm.614-.412a1.84 1.84 0 0 1 .74-.148v-2c-.533 0-1.047.102-1.532.311l.792 1.837Zm.74-.148c.273 0 .516.051.74.148l.792-1.837a3.837 3.837 0 0 0-1.532-.31v2Zm.74.148c.243.105.445.242.614.412l1.414-1.415a3.937 3.937 0 0 0-1.236-.833l-.792 1.836Zm.614.412c.169.169.306.37.411.613l1.837-.792a3.949 3.949 0 0 0-.834-1.236l-1.414 1.415Zm.412.614c.096.224.147.467.147.74h2c0-.534-.102-1.048-.311-1.533l-1.836.793Zm.147.74c0 .272-.051.516-.147.74l1.836.792c.209-.485.311-1 .311-1.532h-2Zm-.148.74a1.943 1.943 0 0 1-.411.614l1.414 1.414c.355-.355.633-.77.834-1.236l-1.837-.792Zm-.411.614c-.169.169-.371.306-.614.411l.792 1.837c.466-.201.881-.479 1.236-.834l-1.414-1.414Zm-.614.411a1.836 1.836 0 0 1-.74.148v2c.533 0 1.047-.102 1.532-.312l-.792-1.836Zm-.74 1.565c.91 0 1.717-.327 2.36-.97l-1.414-1.414c-.26.26-.555.384-.946.384v2Zm2.36-.97a3.25 3.25 0 0 0 .971-2.36h-2c0 .39-.125.686-.385.946l1.414 1.414Zm.971-2.36c0-.91-.328-1.718-.971-2.36l-1.414 1.414c.26.26.385.555.385.946h2Zm-.971-2.36a3.248 3.248 0 0 0-2.36-.971v2c.391 0 .686.124.946.385l1.414-1.415Zm-2.36-.971a3.25 3.25 0 0 0-2.361.97l1.415 1.415c.26-.26.555-.385.946-.385v-2Zm-2.361.97a3.248 3.248 0 0 0-.97 2.36h2c0-.39.125-.685.385-.945l-1.415-1.415Zm-.97 2.36c0 .91.327 1.718.97 2.361l1.415-1.414a1.253 1.253 0 0 1-.385-.946h-2Zm.97 2.361a3.25 3.25 0 0 0 2.361.97v-2c-.391 0-.686-.124-.946-.384l-1.415 1.414Z" mask="url(#i)"/></g><g filter="url(#j)"><rect width="52" height="22" x="82" y="8.914" fill="#fff" rx="3"/></g><path stroke="#ACACAC" d="M82 21.414h52"/><rect width="36" height="4" x="94" y="10.914" fill="#D9D9D9" rx="1"/><rect width="13" height="3" x="94" y="15.914" fill="#E9E9E9" rx="1"/><path fill="#D9D9D9" d="M91 25.914h16v2H91zM125 25.914h6v2h-6z"/><circle cx="87" cy="25.914" r="3" fill="#D9D9D9"/><mask id="k" width="8" height="8" x="83" y="9" maskUnits="userSpaceOnUse" style="mask-type:alpha"><path fill="#D9D9D9" stroke="#3DC795" d="M84.352 10.204h5.992v5.992h-5.992z"/></mask><g mask="url(#k)"><mask id="l" fill="#fff"><path d="m86.94 14.54 2.054-2.054-.408-.408-1.646 1.646-.83-.83-.408.408 1.238 1.238Zm.408 1.573c-.403 0-.782-.076-1.136-.23a2.94 2.94 0 0 1-.925-.622 2.942 2.942 0 0 1-.623-.925 2.836 2.836 0 0 1-.23-1.136c0-.403.077-.782.23-1.136a2.94 2.94 0 0 1 .623-.925c.262-.263.57-.47.925-.623.354-.153.733-.23 1.136-.23.403 0 .782.077 1.136.23.355.153.663.36.925.623.262.262.47.57.623.925.153.354.23.733.23 1.136 0 .403-.077.781-.23 1.136a2.94 2.94 0 0 1-.623.925 2.94 2.94 0 0 1-.925.622c-.354.154-.733.23-1.136.23Zm0-.583A2.25 2.25 0 0 0 89 14.853a2.25 2.25 0 0 0 .677-1.653 2.25 2.25 0 0 0-.677-1.654 2.25 2.25 0 0 0-1.653-.677 2.25 2.25 0 0 0-1.653.677 2.25 2.25 0 0 0-.678 1.654c0 .65.226 1.201.678 1.653a2.249 2.249 0 0 0 1.653.677Z"/></mask><path fill="#7E7E7E" d="m86.94 14.54 2.054-2.054-.408-.408-1.646 1.646-.83-.83-.408.408 1.238 1.238Zm.408 1.573c-.403 0-.782-.076-1.136-.23a2.94 2.94 0 0 1-.925-.622 2.942 2.942 0 0 1-.623-.925 2.836 2.836 0 0 1-.23-1.136c0-.403.077-.782.23-1.136a2.94 2.94 0 0 1 .623-.925c.262-.263.57-.47.925-.623.354-.153.733-.23 1.136-.23.403 0 .782.077 1.136.23.355.153.663.36.925.623.262.262.47.57.623.925.153.354.23.733.23 1.136 0 .403-.077.781-.23 1.136a2.94 2.94 0 0 1-.623.925 2.94 2.94 0 0 1-.925.622c-.354.154-.733.23-1.136.23Zm0-.583A2.25 2.25 0 0 0 89 14.853a2.25 2.25 0 0 0 .677-1.653 2.25 2.25 0 0 0-.677-1.654 2.25 2.25 0 0 0-1.653-.677 2.25 2.25 0 0 0-1.653.677 2.25 2.25 0 0 0-.678 1.654c0 .65.226 1.201.678 1.653a2.249 2.249 0 0 0 1.653.677Z"/><path fill="#3DC795" d="m86.94 14.54-.707.707.707.707.707-.707-.707-.707Zm2.054-2.054.707.707.707-.707-.707-.707-.707.707Zm-.408-.408.707-.707-.707-.707-.707.707.707.707Zm-1.646 1.646-.707.707.707.707.707-.707-.707-.707Zm-.83-.83.707-.707-.707-.707-.707.707.707.707Zm-.408.408-.707-.707-.707.707.707.707.707-.707Zm.51 2.581.396-.918-.396.918Zm-1.548-1.547.918-.396-.918.396Zm0-2.273.918.397-.918-.397Zm1.548-1.547-.396-.919.396.919Zm2.272 0 .397-.918-.397.918Zm1.548 1.547-.919.396.919-.396Zm0 2.273-.918-.396.918.396Zm-1.548 1.547-.396-.918.396.918Zm-.837-.636 2.054-2.054-1.414-1.414-2.054 2.054 1.414 1.414Zm2.054-3.468-.408-.408-1.414 1.414.408.408 1.414-1.414Zm-1.822-.408-1.646 1.646 1.414 1.414 1.646-1.646-1.414-1.414Zm-.232 1.646-.83-.83-1.414 1.414.83.83 1.414-1.414Zm-2.244-.83-.408.408 1.414 1.414.408-.408-1.414-1.414Zm-.408 1.822 1.238 1.238 1.414-1.414-1.238-1.239-1.414 1.415Zm2.353 1.104c-.273 0-.516-.051-.74-.148l-.793 1.837c.485.209 1 .311 1.533.311v-2Zm-.74-.148a1.94 1.94 0 0 1-.614-.411l-1.414 1.414c.355.355.77.633 1.236.834l.792-1.837Zm-.614-.411a1.94 1.94 0 0 1-.412-.614l-1.836.792c.2.466.478.88.834 1.236l1.414-1.414Zm-.412-.614a1.836 1.836 0 0 1-.147-.74h-2c0 .533.102 1.047.311 1.532l1.836-.792Zm-.147-.74c0-.273.05-.516.147-.74l-1.836-.793c-.21.485-.311 1-.311 1.533h2Zm.147-.74c.105-.244.243-.445.412-.614L84.58 10.43a3.94 3.94 0 0 0-.834 1.237l1.836.792Zm.412-.614c.169-.17.37-.307.614-.412l-.793-1.836c-.465.2-.88.478-1.235.833l1.414 1.415Zm.614-.412a1.84 1.84 0 0 1 .74-.148v-2c-.533 0-1.047.102-1.532.311l.792 1.837Zm.74-.148c.273 0 .516.051.74.148l.792-1.837c-.485-.209-1-.31-1.532-.31v2Zm.74.148c.243.105.445.242.614.412l1.414-1.415a3.944 3.944 0 0 0-1.236-.833l-.792 1.836Zm.614.412c.17.169.306.37.411.614l1.837-.793c-.201-.465-.479-.88-.834-1.236l-1.414 1.415Zm.412.614c.096.224.147.467.147.74h2c0-.534-.102-1.048-.311-1.533l-1.837.793Zm.147.74c0 .273-.05.516-.147.74l1.836.792c.21-.485.311-1 .311-1.532h-2Zm-.148.74a1.94 1.94 0 0 1-.411.614l1.414 1.414c.355-.355.633-.77.834-1.236l-1.837-.792Zm-.411.614c-.17.169-.37.306-.614.411l.792 1.837c.466-.201.88-.479 1.236-.834l-1.414-1.414Zm-.614.411a1.835 1.835 0 0 1-.74.148v2c.533 0 1.047-.102 1.532-.311l-.792-1.837Zm-.74 1.565c.91 0 1.717-.327 2.36-.97l-1.414-1.414c-.26.26-.555.384-.946.384v2Zm2.36-.97c.643-.643.97-1.45.97-2.36h-2c0 .39-.124.686-.384.946l1.414 1.414Zm.97-2.36c0-.91-.327-1.718-.97-2.36l-1.414 1.414c.26.26.385.555.385.946h2Zm-.97-2.36a3.248 3.248 0 0 0-2.36-.971v2c.39 0 .686.124.946.385l1.414-1.415Zm-2.36-.971c-.91 0-1.718.327-2.36.97l1.414 1.415c.26-.26.555-.385.946-.385v-2Zm-2.36.97a3.248 3.248 0 0 0-.97 2.36h2c0-.39.124-.685.384-.945l-1.415-1.415Zm-.97 2.36c0 .91.326 1.718.97 2.361l1.414-1.414a1.252 1.252 0 0 1-.385-.946h-2Zm.97 2.361c.642.643 1.45.97 2.36.97v-2c-.391 0-.686-.124-.946-.384l-1.415 1.414Z" mask="url(#l)"/></g><g filter="url(#m)"><rect width="52" height="22" x="82" y="34.914" fill="#fff" rx="3"/></g><path stroke="#ACACAC" d="M82 47.414h52"/><rect width="36" height="4" x="94" y="36.914" fill="#D9D9D9" rx="1"/><rect width="13" height="3" x="94" y="41.914" fill="#E9E9E9" rx="1"/><path fill="#D9D9D9" d="M91 51.914h16v2H91zM125 51.914h6v2h-6z"/><circle cx="87" cy="51.914" r="3" fill="#D9D9D9"/><mask id="n" width="8" height="8" x="83" y="35" maskUnits="userSpaceOnUse" style="mask-type:alpha"><path fill="#D9D9D9" stroke="#3DC795" d="M84.352 36.204h5.992v5.992h-5.992z"/></mask><g mask="url(#n)"><mask id="o" fill="#fff"><path d="m86.94 40.54 2.054-2.054-.408-.408-1.646 1.646-.83-.83-.408.408 1.238 1.238Zm.408 1.573c-.403 0-.782-.077-1.136-.23a2.94 2.94 0 0 1-.925-.622 2.942 2.942 0 0 1-.623-.925 2.836 2.836 0 0 1-.23-1.136c0-.403.077-.782.23-1.137a2.94 2.94 0 0 1 .623-.925c.262-.262.57-.47.925-.622.354-.153.733-.23 1.136-.23.403 0 .782.077 1.136.23.355.153.663.36.925.623.262.262.47.57.623.924.153.355.23.734.23 1.137s-.077.781-.23 1.136a2.94 2.94 0 0 1-.623.925 2.94 2.94 0 0 1-.925.622c-.354.153-.733.23-1.136.23Zm0-.583A2.25 2.25 0 0 0 89 40.853a2.25 2.25 0 0 0 .677-1.653 2.25 2.25 0 0 0-.677-1.654 2.25 2.25 0 0 0-1.653-.677 2.25 2.25 0 0 0-1.653.677 2.25 2.25 0 0 0-.678 1.654c0 .65.226 1.201.678 1.653a2.249 2.249 0 0 0 1.653.677Z"/></mask><path fill="#7E7E7E" d="m86.94 40.54 2.054-2.054-.408-.408-1.646 1.646-.83-.83-.408.408 1.238 1.238Zm.408 1.573c-.403 0-.782-.077-1.136-.23a2.94 2.94 0 0 1-.925-.622 2.942 2.942 0 0 1-.623-.925 2.836 2.836 0 0 1-.23-1.136c0-.403.077-.782.23-1.137a2.94 2.94 0 0 1 .623-.925c.262-.262.57-.47.925-.622.354-.153.733-.23 1.136-.23.403 0 .782.077 1.136.23.355.153.663.36.925.623.262.262.47.57.623.924.153.355.23.734.23 1.137s-.077.781-.23 1.136a2.94 2.94 0 0 1-.623.925 2.94 2.94 0 0 1-.925.622c-.354.153-.733.23-1.136.23Zm0-.583A2.25 2.25 0 0 0 89 40.853a2.25 2.25 0 0 0 .677-1.653 2.25 2.25 0 0 0-.677-1.654 2.25 2.25 0 0 0-1.653-.677 2.25 2.25 0 0 0-1.653.677 2.25 2.25 0 0 0-.678 1.654c0 .65.226 1.201.678 1.653a2.249 2.249 0 0 0 1.653.677Z"/><path fill="#3DC795" d="m86.94 40.54-.707.707.707.707.707-.707-.707-.707Zm2.054-2.054.707.707.707-.707-.707-.707-.707.707Zm-.408-.408.707-.707-.707-.707-.707.707.707.707Zm-1.646 1.646-.707.707.707.707.707-.707-.707-.707Zm-.83-.83.707-.707-.707-.707-.707.707.707.707Zm-.408.408-.707-.708-.707.708.707.707.707-.707Zm.51 2.581.396-.918-.396.918Zm-1.548-1.547.918-.396-.918.396Zm0-2.273.918.397-.918-.397Zm1.548-1.547-.396-.919.396.919Zm2.272 0 .397-.918-.397.918Zm1.548 1.547-.919.396.919-.396Zm0 2.273-.918-.396.918.396Zm-1.548 1.547-.396-.918.396.918Zm-.837-.636 2.054-2.054-1.414-1.414-2.054 2.054 1.414 1.414Zm2.054-3.468-.408-.408-1.414 1.414.408.408 1.414-1.414Zm-1.822-.408-1.646 1.646 1.414 1.414 1.646-1.646-1.414-1.414Zm-.232 1.646-.83-.83-1.414 1.414.83.83 1.414-1.414Zm-2.244-.83-.408.407 1.414 1.415.408-.408-1.414-1.414Zm-.408 1.822 1.238 1.238 1.414-1.414-1.238-1.239-1.414 1.415Zm2.353 1.104c-.273 0-.516-.051-.74-.148l-.793 1.836c.485.21 1 .312 1.533.312v-2Zm-.74-.148a1.94 1.94 0 0 1-.614-.411l-1.414 1.414c.355.355.77.633 1.236.834l.792-1.837Zm-.614-.411a1.94 1.94 0 0 1-.412-.614l-1.836.792c.2.466.478.88.834 1.236l1.414-1.414Zm-.412-.614a1.836 1.836 0 0 1-.147-.74h-2c0 .533.102 1.047.311 1.532l1.836-.792Zm-.147-.74c0-.273.05-.516.147-.74l-1.836-.793c-.21.485-.311 1-.311 1.533h2Zm.147-.74c.105-.244.243-.445.412-.614L84.58 36.43a3.94 3.94 0 0 0-.834 1.236l1.836.792Zm.412-.614c.169-.17.37-.307.614-.412l-.793-1.836c-.465.2-.88.478-1.235.833l1.414 1.415Zm.614-.412a1.84 1.84 0 0 1 .74-.148v-2c-.533 0-1.047.102-1.532.311l.792 1.837Zm.74-.148c.273 0 .516.051.74.148l.792-1.837c-.485-.209-1-.31-1.532-.31v2Zm.74.148c.243.105.445.242.614.412l1.414-1.415a3.944 3.944 0 0 0-1.236-.833l-.792 1.836Zm.614.412c.17.169.306.37.411.614l1.837-.793c-.201-.465-.479-.88-.834-1.236l-1.414 1.415Zm.412.614c.096.224.147.467.147.74h2c0-.534-.102-1.048-.311-1.533l-1.837.793Zm.147.74c0 .272-.05.516-.147.74l1.836.792c.21-.485.311-1 .311-1.532h-2Zm-.148.74a1.94 1.94 0 0 1-.411.614l1.414 1.414c.355-.355.633-.77.834-1.236l-1.837-.792Zm-.411.614c-.17.169-.37.306-.614.411l.792 1.837c.466-.201.88-.479 1.236-.834l-1.414-1.414Zm-.614.411a1.835 1.835 0 0 1-.74.148v2c.533 0 1.047-.102 1.532-.312l-.792-1.836Zm-.74 1.565c.91 0 1.717-.327 2.36-.97l-1.414-1.414c-.26.26-.555.384-.946.384v2Zm2.36-.97c.643-.643.97-1.45.97-2.36h-2c0 .39-.124.686-.384.946l1.414 1.414Zm.97-2.36c0-.91-.327-1.718-.97-2.36l-1.414 1.413c.26.26.385.556.385.947h2Zm-.97-2.36a3.248 3.248 0 0 0-2.36-.971v2c.39 0 .686.124.946.385l1.414-1.415Zm-2.36-.971c-.91 0-1.718.327-2.36.97l1.414 1.415c.26-.26.555-.385.946-.385v-2Zm-2.36.97a3.248 3.248 0 0 0-.97 2.36h2c0-.39.124-.685.384-.945l-1.415-1.415Zm-.97 2.36c0 .91.326 1.718.97 2.361l1.414-1.414a1.252 1.252 0 0 1-.385-.946h-2Zm.97 2.361c.642.643 1.45.97 2.36.97v-2c-.391 0-.686-.124-.946-.384l-1.415 1.414Z" mask="url(#o)"/></g><g filter="url(#p)"><rect width="52" height="22" x="82" y="60.914" fill="#fff" rx="3"/></g><path stroke="#ACACAC" d="M82 73.414h52"/><rect width="36" height="4" x="94" y="62.914" fill="#D9D9D9" rx="1"/><rect width="13" height="3" x="94" y="67.914" fill="#E9E9E9" rx="1"/><path fill="#D9D9D9" d="M91 77.914h16v2H91zM125 77.914h6v2h-6z"/><circle cx="87" cy="77.914" r="3" fill="#D9D9D9"/><mask id="q" width="8" height="8" x="83" y="61" maskUnits="userSpaceOnUse" style="mask-type:alpha"><path fill="#D9D9D9" stroke="#3DC795" d="M84.352 62.204h5.992v5.992h-5.992z"/></mask><g mask="url(#q)"><mask id="r" fill="#fff"><path d="m86.94 66.54 2.054-2.054-.408-.408-1.646 1.646-.83-.83-.408.408 1.238 1.238Zm.408 1.573c-.403 0-.782-.076-1.136-.23a2.94 2.94 0 0 1-.925-.622 2.942 2.942 0 0 1-.623-.925 2.836 2.836 0 0 1-.23-1.136c0-.403.077-.782.23-1.136a2.94 2.94 0 0 1 .623-.925c.262-.263.57-.47.925-.623.354-.153.733-.23 1.136-.23.403 0 .782.077 1.136.23.355.153.663.36.925.623.262.262.47.57.623.925.153.354.23.733.23 1.136 0 .403-.077.781-.23 1.136a2.94 2.94 0 0 1-.623.925 2.94 2.94 0 0 1-.925.622c-.354.154-.733.23-1.136.23Zm0-.583A2.25 2.25 0 0 0 89 66.853a2.25 2.25 0 0 0 .677-1.653 2.25 2.25 0 0 0-.677-1.654 2.25 2.25 0 0 0-1.653-.677 2.25 2.25 0 0 0-1.653.677 2.25 2.25 0 0 0-.678 1.654c0 .65.226 1.201.678 1.653a2.249 2.249 0 0 0 1.653.677Z"/></mask><path fill="#7E7E7E" d="m86.94 66.54 2.054-2.054-.408-.408-1.646 1.646-.83-.83-.408.408 1.238 1.238Zm.408 1.573c-.403 0-.782-.076-1.136-.23a2.94 2.94 0 0 1-.925-.622 2.942 2.942 0 0 1-.623-.925 2.836 2.836 0 0 1-.23-1.136c0-.403.077-.782.23-1.136a2.94 2.94 0 0 1 .623-.925c.262-.263.57-.47.925-.623.354-.153.733-.23 1.136-.23.403 0 .782.077 1.136.23.355.153.663.36.925.623.262.262.47.57.623.925.153.354.23.733.23 1.136 0 .403-.077.781-.23 1.136a2.94 2.94 0 0 1-.623.925 2.94 2.94 0 0 1-.925.622c-.354.154-.733.23-1.136.23Zm0-.583A2.25 2.25 0 0 0 89 66.853a2.25 2.25 0 0 0 .677-1.653 2.25 2.25 0 0 0-.677-1.654 2.25 2.25 0 0 0-1.653-.677 2.25 2.25 0 0 0-1.653.677 2.25 2.25 0 0 0-.678 1.654c0 .65.226 1.201.678 1.653a2.249 2.249 0 0 0 1.653.677Z"/><path fill="#3DC795" d="m86.94 66.54-.707.707.707.707.707-.707-.707-.707Zm2.054-2.054.707.707.707-.707-.707-.707-.707.707Zm-.408-.408.707-.707-.707-.707-.707.707.707.707Zm-1.646 1.646-.707.707.707.707.707-.707-.707-.707Zm-.83-.83.707-.707-.707-.707-.707.707.707.707Zm-.408.408-.707-.708-.707.708.707.707.707-.707Zm.51 2.581.396-.918-.396.918Zm-1.548-1.547.918-.396-.918.396Zm0-2.272.918.396-.918-.396Zm1.548-1.548-.396-.919.396.919Zm2.272 0 .397-.918-.397.918Zm1.548 1.548-.919.396.919-.396Zm0 2.272-.918-.397.918.397Zm-1.548 1.547-.396-.918.396.918Zm-.837-.636 2.054-2.054-1.414-1.414-2.054 2.054 1.414 1.414Zm2.054-3.468-.408-.408-1.414 1.414.408.408 1.414-1.414Zm-1.822-.408-1.646 1.646 1.414 1.414 1.646-1.646-1.414-1.414Zm-.232 1.646-.83-.83-1.414 1.414.83.83 1.414-1.414Zm-2.244-.83-.408.407 1.414 1.415.408-.408-1.414-1.414Zm-.408 1.822 1.238 1.238 1.414-1.414-1.238-1.239-1.414 1.415Zm2.353 1.104c-.273 0-.516-.051-.74-.148l-.793 1.837c.485.209 1 .311 1.533.311v-2Zm-.74-.148a1.94 1.94 0 0 1-.614-.411l-1.414 1.414c.355.355.77.633 1.236.834l.792-1.837Zm-.614-.411a1.94 1.94 0 0 1-.412-.614l-1.836.792c.2.466.478.88.834 1.236l1.414-1.414Zm-.412-.615a1.836 1.836 0 0 1-.147-.74h-2c0 .534.102 1.048.311 1.533l1.836-.793Zm-.147-.74c0-.272.05-.515.147-.74l-1.836-.792c-.21.485-.311 1-.311 1.533h2Zm.147-.74c.105-.243.243-.444.412-.613L84.58 62.43a3.94 3.94 0 0 0-.834 1.236l1.836.793Zm.412-.613c.169-.17.37-.307.614-.412l-.793-1.836c-.465.2-.88.478-1.235.833l1.414 1.415Zm.614-.412a1.84 1.84 0 0 1 .74-.148v-2c-.533 0-1.047.102-1.532.311l.792 1.837Zm.74-.148c.273 0 .516.051.74.148l.792-1.837c-.485-.209-1-.31-1.532-.31v2Zm.74.148c.243.105.445.242.614.412l1.414-1.415a3.944 3.944 0 0 0-1.236-.833l-.792 1.836Zm.614.412c.17.169.306.37.411.614l1.837-.792c-.201-.466-.479-.881-.834-1.237l-1.414 1.415Zm.412.614c.096.224.147.467.147.74h2c0-.534-.102-1.048-.311-1.533l-1.837.793Zm.147.74c0 .272-.05.516-.147.74l1.836.792c.21-.485.311-1 .311-1.532h-2Zm-.148.74a1.94 1.94 0 0 1-.411.614l1.414 1.414c.355-.355.633-.77.834-1.236l-1.837-.792Zm-.411.614c-.17.169-.37.306-.614.411l.792 1.837c.466-.201.88-.479 1.236-.834l-1.414-1.414Zm-.614.411a1.835 1.835 0 0 1-.74.148v2c.533 0 1.047-.102 1.532-.311l-.792-1.837Zm-.74 1.565c.91 0 1.717-.327 2.36-.97l-1.414-1.414c-.26.26-.555.384-.946.384v2Zm2.36-.97c.643-.643.97-1.45.97-2.36h-2c0 .39-.124.686-.384.946l1.414 1.414Zm.97-2.36c0-.91-.327-1.718-.97-2.36l-1.414 1.413c.26.26.385.556.385.947h2Zm-.97-2.36a3.248 3.248 0 0 0-2.36-.971v2c.39 0 .686.124.946.385l1.414-1.415Zm-2.36-.971c-.91 0-1.718.327-2.36.97l1.414 1.415c.26-.26.555-.385.946-.385v-2Zm-2.36.97a3.248 3.248 0 0 0-.97 2.36h2c0-.39.124-.685.384-.945l-1.415-1.415Zm-.97 2.36c0 .91.326 1.718.97 2.361l1.414-1.414a1.252 1.252 0 0 1-.385-.946h-2Zm.97 2.361c.642.643 1.45.97 2.36.97v-2c-.391 0-.686-.124-.946-.384l-1.415 1.414Z" mask="url(#r)"/></g><path fill="#F4A390" d="M41.27 189.75c-.203-3.6-.677-8-1.27-9.75 2.844 1.4 11.598 2.917 16 3.5l-.762 6.25-6.603 3.25-7.365-3.25ZM69.411 168.632 73 135H37.622l-8.203 20.483c-4.358 9.862 2.392 14.835 5.896 15.678L52.491 179l16.92-10.368Z"/><path fill="#5F2D00" d="M63.149 163.441c-4.489-.208-11.222 7.168-14.028 10.881-10.202-1.295-10.202-6.218-10.712-8.291-.51-2.331-.51-24.613-.51-24.613-.204-1.866 1.276-2.678 2.04-2.85 9.217 1.836 24.983 3.265 31.952 3.568 1.46.063 2.907-.315 4.09-1.173 8.162-5.917 4.048-11.045 3.491-12.5-11.857-5.526-29.555-3.254-39.565-1.264-4.725.94-8.216 4.737-9.275 9.437-.34 1.506-.663 2.885-.894 3.745-.682 2.542-.892 9.408-.628 14.173.042.747.88 1.154 1.596.935.894-.273 1.553-.196 1.837-.08.85.518 2.704 2.228 3.316 4.922.612 2.695.255 8.205 0 10.623-.17 1.123-.408 3.783 0 5.441s5.27 4.146 7.651 5.182c6.547 1.641 20.404 4.094 23.465.777 3.06-3.316 3.655-11.573 3.57-15.286-.595-1.123-2.907-3.42-7.396-3.627Z"/><path fill="#9C7631" d="M100.117 228.106c-5.288-16.63-16.948-29-22.117-33.106v23.097l7.627 38.496c9.151 8.212 33.556 22.584 44.996 25.407 12.813-1.027 8.644-12.575 2.542-15.912-8.812-5.731-27.76-21.352-33.048-37.982Z"/><g clip-path="url(#s)" filter="url(#t)"><path fill="#3C4045" fill-rule="evenodd" d="m134.881 258.437 8.828 5.244a2.107 2.107 0 0 1 .732 2.888l-2.324 3.914a.108.108 0 0 1 .009.125l-1.541 2.595a.11.11 0 0 1-.115.052l-9.4 15.824a2.108 2.108 0 0 1-2.887.739l-8.828-5.245a2.106 2.106 0 0 1-.733-2.888l9.159-15.418a.11.11 0 0 1-.009-.126l.891-1.5a.11.11 0 0 1 .115-.052l.341-.573a.108.108 0 0 1-.01-.126l.891-1.5a.11.11 0 0 1 .115-.052l.452-.761a.108.108 0 0 1-.01-.125l.465-.782a.108.108 0 0 1 .115-.051l.857-1.444a2.107 2.107 0 0 1 2.887-.738Z" clip-rule="evenodd"/><mask id="u" width="27" height="32" x="118" y="258" maskUnits="userSpaceOnUse" style="mask-type:alpha"><path fill="#F1F1F1" fill-rule="evenodd" d="M132.415 259.323a1.368 1.368 0 0 0-.047.075l-13.371 22.51a1.67 1.67 0 0 0 .58 2.29l8.829 5.245c.792.47 1.817.208 2.289-.586l13.372-22.51.005-.009a1.67 1.67 0 0 0-.586-2.282l-.938-.557a.323.323 0 0 0-.34.151.804.804 0 0 1-1.102.282l-5.232-3.108a.803.803 0 0 1-.28-1.102.322.322 0 0 0-.029-.371l-.907-.539a1.662 1.662 0 0 0-1.567-.073 1.669 1.669 0 0 0-.676.584Z" clip-rule="evenodd"/></mask><g mask="url(#u)"><path fill="#151515" d="m133.223 257.959 11.699 6.95-15.08 25.385-11.699-6.95z"/></g></g><path fill="#FCBE4F" d="M1.548 242.062c-4.5 22.812 1.875 44.13 5.625 51.938h14.049l53.438-.106c4.704-2.037 6.064-4.307 8.45-6.259 1.433-3.87 2.415-18.112 3.069-29.788.784-13.997 1.367-21.945 0-35.898-1.023-10.438-3.784-21.386-6.648-25.459-4.295-3.87-9.971-5.856-12.273-6.365-5.028-.849-17.386-2.037-26.59 0-9.205 2.036-17.145 6.258-19.433 8.91-4.687 4.838-15.187 20.215-19.687 43.027Z"/><defs><filter id="a" width="68" height="38" x="176" y="72.914" color-interpolation-filters="sRGB" filterUnits="userSpaceOnUse"><feFlood flood-opacity="0" result="BackgroundImageFix"/><feColorMatrix in="SourceAlpha" result="hardAlpha" values="0 0 0 0 0 0 0 0 0 0 0 0 0 0 0 0 0 0 127 0"/><feOffset/><feGaussianBlur stdDeviation="4"/><feColorMatrix values="0 0 0 0 0 0 0 0 0 0 0 0 0 0 0 0 0 0 0.05 0"/><feBlend in2="BackgroundImageFix" result="effect1_dropShadow_463_1185"/><feBlend in="SourceGraphic" in2="effect1_dropShadow_463_1185" result="shape"/></filter><filter id="d" width="68" height="38" x="176" y="46.914" color-interpolation-filters="sRGB" filterUnits="userSpaceOnUse"><feFlood flood-opacity="0" result="BackgroundImageFix"/><feColorMatrix in="SourceAlpha" result="hardAlpha" values="0 0 0 0 0 0 0 0 0 0 0 0 0 0 0 0 0 0 127 0"/><feOffset/><feGaussianBlur stdDeviation="4"/><feColorMatrix values="0 0 0 0 0 0 0 0 0 0 0 0 0 0 0 0 0 0 0.05 0"/><feBlend in2="BackgroundImageFix" result="effect1_dropShadow_463_1185"/><feBlend in="SourceGraphic" in2="effect1_dropShadow_463_1185" result="shape"/></filter><filter id="g" width="68" height="38" x="176" y="20.914" color-interpolation-filters="sRGB" filterUnits="userSpaceOnUse"><feFlood flood-opacity="0" result="BackgroundImageFix"/><feColorMatrix in="SourceAlpha" result="hardAlpha" values="0 0 0 0 0 0 0 0 0 0 0 0 0 0 0 0 0 0 127 0"/><feOffset/><feGaussianBlur stdDeviation="4"/><feColorMatrix values="0 0 0 0 0 0 0 0 0 0 0 0 0 0 0 0 0 0 0.05 0"/><feBlend in2="BackgroundImageFix" result="effect1_dropShadow_463_1185"/><feBlend in="SourceGraphic" in2="effect1_dropShadow_463_1185" result="shape"/></filter><filter id="j" width="68" height="38" x="74" y=".914" color-interpolation-filters="sRGB" filterUnits="userSpaceOnUse"><feFlood flood-opacity="0" result="BackgroundImageFix"/><feColorMatrix in="SourceAlpha" result="hardAlpha" values="0 0 0 0 0 0 0 0 0 0 0 0 0 0 0 0 0 0 127 0"/><feOffset/><feGaussianBlur stdDeviation="4"/><feColorMatrix values="0 0 0 0 0 0 0 0 0 0 0 0 0 0 0 0 0 0 0.05 0"/><feBlend in2="BackgroundImageFix" result="effect1_dropShadow_463_1185"/><feBlend in="SourceGraphic" in2="effect1_dropShadow_463_1185" result="shape"/></filter><filter id="m" width="68" height="38" x="74" y="26.914" color-interpolation-filters="sRGB" filterUnits="userSpaceOnUse"><feFlood flood-opacity="0" result="BackgroundImageFix"/><feColorMatrix in="SourceAlpha" result="hardAlpha" values="0 0 0 0 0 0 0 0 0 0 0 0 0 0 0 0 0 0 127 0"/><feOffset/><feGaussianBlur stdDeviation="4"/><feColorMatrix values="0 0 0 0 0 0 0 0 0 0 0 0 0 0 0 0 0 0 0.05 0"/><feBlend in2="BackgroundImageFix" result="effect1_dropShadow_463_1185"/><feBlend in="SourceGraphic" in2="effect1_dropShadow_463_1185" result="shape"/></filter><filter id="p" width="68" height="38" x="74" y="52.914" color-interpolation-filters="sRGB" filterUnits="userSpaceOnUse"><feFlood flood-opacity="0" result="BackgroundImageFix"/><feColorMatrix in="SourceAlpha" result="hardAlpha" values="0 0 0 0 0 0 0 0 0 0 0 0 0 0 0 0 0 0 127 0"/><feOffset/><feGaussianBlur stdDeviation="4"/><feColorMatrix values="0 0 0 0 0 0 0 0 0 0 0 0 0 0 0 0 0 0 0.05 0"/><feBlend in2="BackgroundImageFix" result="effect1_dropShadow_463_1185"/><feBlend in="SourceGraphic" in2="effect1_dropShadow_463_1185" result="shape"/></filter><filter id="t" width="63.837" height="73.81" x="99.613" y="257.325" color-interpolation-filters="sRGB" filterUnits="userSpaceOnUse"><feFlood flood-opacity="0" result="BackgroundImageFix"/><feColorMatrix in="SourceAlpha" result="hardAlpha" values="0 0 0 0 0 0 0 0 0 0 0 0 0 0 0 0 0 0 127 0"/><feOffset dy="2.767"/><feGaussianBlur stdDeviation="1.107"/><feColorMatrix values="0 0 0 0 0 0 0 0 0 0 0 0 0 0 0 0 0 0 0.030926 0"/><feBlend in2="BackgroundImageFix" result="effect1_dropShadow_463_1185"/><feColorMatrix in="SourceAlpha" result="hardAlpha" values="0 0 0 0 0 0 0 0 0 0 0 0 0 0 0 0 0 0 127 0"/><feOffset dy="6.65"/><feGaussianBlur stdDeviation="2.66"/><feColorMatrix values="0 0 0 0 0 0 0 0 0 0 0 0 0 0 0 0 0 0 0.0444282 0"/><feBlend in2="effect1_dropShadow_463_1185" result="effect2_dropShadow_463_1185"/><feColorMatrix in="SourceAlpha" result="hardAlpha" values="0 0 0 0 0 0 0 0 0 0 0 0 0 0 0 0 0 0 127 0"/><feOffset dy="12.522"/><feGaussianBlur stdDeviation="5.009"/><feColorMatrix values="0 0 0 0 0 0 0 0 0 0 0 0 0 0 0 0 0 0 0.055 0"/><feBlend in2="effect2_dropShadow_463_1185" result="effect3_dropShadow_463_1185"/><feColorMatrix in="SourceAlpha" result="hardAlpha" values="0 0 0 0 0 0 0 0 0 0 0 0 0 0 0 0 0 0 127 0"/><feOffset dy="22.336"/><feGaussianBlur stdDeviation="8.935"/><feColorMatrix values="0 0 0 0 0 0 0 0 0 0 0 0 0 0 0 0 0 0 0.0655718 0"/><feBlend in2="effect3_dropShadow_463_1185" result="effect4_dropShadow_463_1185"/><feBlend in="SourceGraphic" in2="effect4_dropShadow_463_1185" result="shape"/></filter><clipPath id="s"><path fill="#fff" d="m133.009 257.325 12.572 7.468-15.526 26.137-12.572-7.469z"/></clipPath></defs></svg>
