<svg xmlns="http://www.w3.org/2000/svg" width="298" height="328" fill="none"><path fill="#D45151" d="M280.036 170.37c-4.5-1.144-7.232.635-8.036 1.668l6.161 9.77 6.696 1.192 2.143-5.004c-.446-2.066-2.464-6.482-6.964-7.626Z"/><path fill="#E08570" d="M251 229.98v-4.843c8.8-.612 15-5.013 17-7.137l-1 8.922-.75 4.078-15.25-1.02Z"/><path fill="#963B3B" d="M202.649 278.526c-9.954 1.772-22.801 1.94-28.586 1.012L171 292.7c22.46 7.897 50.11-.169 60.49-5.568L232 256l-4.594.253-14.293 22.273s-6.442-.716-10.464 0Z"/><path fill="#D55151" d="M240.494 237.693c-5.398 4.975-11.079 15.341-13.245 19.902l1 29.356L224 328h67.727c3.799-11.941 4.415-33.171 4.249-42.293.347-20.23-5.945-35.666-10.389-43.012-1.129-1.867-2.93-3.186-4.96-3.987l-10.143-4.001-.081-2.023c-.109-2.703-.968-5.849-3.563-6.61a2.07 2.07 0 0 0-.354-.074v1.493c-2.999 3.582-11.58 2.487-15.495 1.492v-.711c0-.65-.615-1.134-1.224-.904-1.389.525-1.775 1.101-1.775 1.367v6.965l-7.498 1.991Z"/><path fill="#3DC795" d="M270.106 294.785c.641 7.779 4.019 17.632 5.916 22.215L279 305.53c-3.249-9.567-4.512-24.08-4.603-29.53l-3.155 10.666c-.782 2.644-1.362 5.371-1.136 8.119Z"/><path fill="#F4A390" d="M241.684 220.995c-3.361-5.566-3.542-21.533-3.213-28.821L236 187.702l7.167-7.702 10.132 11.677L279 200.125l-.741 11.925-10.133 6.212s-5.107 4.058-9.39 5.466c-4.284 1.408-13.691 2.832-17.052-2.733Z"/><path fill="#4D2500" d="M282.936 229.243c1.003 3.191-1.086 6.648-2.256 7.978.401.798 5.516.831 8.023.748 1.337-.665 4.412-2.593 6.017-4.986 2.006-2.992 2.507-7.729 2.006-9.723-.401-1.596-2.173-4.82-3.009-6.233-.836-1.412 0-5.734 0-5.734 2.808-7.18 4.012-13.13 4.262-15.207.167-4.238-.601-14.26-5.014-20.443-4.413-6.183-12.87-6.067-16.547-5.236 6.819 3.989 7.521 9.806 7.02 12.216-.502-2.908-3.26-9.025-10.28-10.221-7.02-1.197-12.619 0-14.541.748-9.527-.499-16.547 1.496-20.057 3.49-3.51 1.994-8.023 6.482-7.522 10.471.402 3.191 5.349 5.318 7.773 5.983-.201-5.584 3.092-10.304 4.763-11.967 4.212 16.754 21.144 19.446 29.083 18.698l3.761 2.244c1.003-.748 2.858-1.047 2.256 3.74-.752 5.983-2.006 6.232-3.259 8.227-1.003 1.595-3.092 1.496-4.012 1.246l-4.011 4.488-.251 3.241 7.271-6.732c2.424 2.992 7.521 9.773 8.524 12.964Z"/><path fill="#F4A390" d="M139.331 220.893c1.844 4.825 6.746 5.362 8.967 5.027l13.578-3.207L167 196.262l-17.934-.503L137.281 194 136 202.797c.342 4.021 1.486 13.27 3.331 18.096Z"/><path fill="#E6836E" d="m143.67 234.673 4.949-1.988-.743-7.952c4.553 0 10.639-1.905 12.124-2.733l-4.454 29.818L144.907 263 136 261.261l7.67-26.588ZM178.341 298.701c-.853-3.891-1.482-9.53-1.888-14.425-.351-4.238 1.349-8.463 5.035-10.583 4.871-2.8 10.436-4.462 10.714.395.499 8.695.951 14.526.748 23.85-.257 11.816-2.16 21.284-3.49 30.062h-11.964l1.691-21.706c.198-2.541-.301-5.104-.846-7.593ZM120.846 293.522l1.734-17.114c.991-.496 3.766-.943 6.937 1.24 3.171 2.183 2.642 16.619 1.982 23.564l-6.689 13.642c-1.387 3.175-6.524 10.087-8.919 13.146H104l10.405-18.851c4.162-3.969 6.028-12.071 6.441-15.627Z"/><path fill="#D9D9D9" d="M132.25 244.216c-3.6 7.2-7.667 23.919-9.25 31.379L134.75 279l4.25-25.297L141 234c-1.417 0-5.15 3.016-8.75 10.216Z"/><path fill="#fff" d="M128.307 285.359c4.245 12.967-1.769 33.83-5.307 42.641h54.581c-1.819-15.56-3.537-27.596-4.548-31.669-1.011-4.073 2.274-17.705 2.274-17.705 4.043.598 12.803-2.743 16.678-4.489.404-16.956-7.412-35.326-12.129-42.142L138.92 261.17c0-13.964 5.222-26.598 7.833-31.17l-6.57 3.74c-2.695 5.237-9.147 17.406-13.393 24.189-4.245 6.782-3.79 12.135-3.032 13.964-.253-.914.303.499 4.549 13.466Z"/><path fill="#BA5900" d="M149.5 249.688c-2.064 7.266 1.935 12.947 3.786 14.785l3.785-8.269c1.01-1.755 4.493-6.015 10.348-9.022 5.855-3.007 8.833-8.937 9.591-11.527l4.542 1.504c6.663 7.618 9.507 28.985 10.6 38.841 3.231-.601 8.581-5.68 10.348-8.269 1.01-2.172 2.524-7.769.505-12.78-2.524-6.265-10.348-15.036-15.9-24.558-4.442-7.618-6.73-25.393-7.319-33.328.084-6.182-1.666-19.346-9.338-22.553-7.673-3.208-18.172-2.673-22.462-2.005-4.038.501-12.367 3.458-13.376 11.276.252 9.523.504 6.015 1.261 11.527.606 4.411-2.271 10.859-3.785 13.532-2.272 4.26-3.281 12.78-2.019 18.293.412 1.803 1.177 2.339 1.009 2.757-4.795 7.016-8.076 13.782-8.076 19.796 0 4.812 2.356 7.351 3.533 8.019 2.932-10.735 7.594-17.771 9.928-20.82.882-1.153 2.224-1.81 3.668-1.958 3.022-.309 8.324-.874 10.885-1.278l-1.514-9.523c-11.509 1.604-13.208-18.209-12.619-28.316 4.644 2.405 19.097 2.338 25.743 2.004l-1.767 14.033c-4.795 36.085-8.581 28.066-11.357 37.839Z"/><path fill="#F4A390" d="M40.27 226.75c-.203-3.6-.677-8-1.27-9.75 2.844 1.4 11.598 2.917 16 3.5l-.762 6.25-6.603 3.25-7.365-3.25ZM67.57 205.868 71 173H37.195l-7.84 20.017c-4.164 9.638 2.287 14.498 5.635 15.322L51.403 216l16.167-10.132Z"/><path fill="#5F2D00" d="M61.492 200.137c-4.402-.2-11.006 6.926-13.758 10.513-10.005-1.251-10.005-6.007-10.506-8.009-.5-2.253-.5-23.78-.5-23.78-.2-1.802 1.25-2.586 2.001-2.753 9.033 1.772 24.48 3.152 31.322 3.446 1.442.062 2.873-.307 4.047-1.147 7.978-5.71 3.949-10.657 3.403-12.061-11.566-5.311-28.8-3.168-38.646-1.252-4.732.921-8.234 4.709-9.314 9.408a98.127 98.127 0 0 1-.817 3.358c-.668 2.448-.873 9.05-.618 13.652.041.743.873 1.149 1.587.938.867-.257 1.505-.183 1.782-.072.834.501 2.652 2.153 3.252 4.756.6 2.603.25 7.926 0 10.262-.167 1.085-.4 3.655 0 5.257.4 1.602 5.17 4.005 7.504 5.006 6.42 1.585 20.012 3.955 23.013.751 3.002-3.204 3.586-11.18 3.502-14.768-.583-1.085-2.851-3.304-7.254-3.505Z"/><path fill="#9C7631" d="M97.754 263.345C92.554 247.097 81.084 235.012 76 231v22.566l7.501 37.611c9.002 8.024 33.007 22.065 44.26 24.823 12.602-1.003 8.501-12.286 2.5-15.546-8.668-5.6-27.306-20.861-32.507-37.109Z"/><g clip-path="url(#a)" filter="url(#b)"><path fill="#3C4045" fill-rule="evenodd" d="m131.766 293.194 8.632 5.128a2.06 2.06 0 0 1 .716 2.824l-2.273 3.826a.107.107 0 0 1 .009.123l-1.507 2.537a.107.107 0 0 1-.112.05l-9.191 15.473a2.061 2.061 0 0 1-2.823.722l-8.632-5.128a2.06 2.06 0 0 1-.716-2.824l8.956-15.075a.105.105 0 0 1-.01-.123l.871-1.467a.107.107 0 0 1 .113-.05l.333-.561a.109.109 0 0 1-.01-.123l.872-1.467a.105.105 0 0 1 .112-.05l.442-.744a.107.107 0 0 1-.009-.123l.454-.764a.107.107 0 0 1 .112-.051l.838-1.411a2.061 2.061 0 0 1 2.823-.722Z" clip-rule="evenodd"/><mask id="c" width="25" height="31" x="116" y="293" maskUnits="userSpaceOnUse" style="mask-type:alpha"><path fill="#F1F1F1" fill-rule="evenodd" d="M129.355 294.061c-.016.023-.031.048-.046.072l-13.074 22.009a1.634 1.634 0 0 0 .568 2.24l8.632 5.128c.775.46 1.777.204 2.238-.573l13.074-22.009.006-.009a1.635 1.635 0 0 0-.573-2.231l-.918-.545a.316.316 0 0 0-.332.149.787.787 0 0 1-1.078.275l-5.115-3.039a.786.786 0 0 1-.274-1.078.313.313 0 0 0-.028-.362l-.887-.527a1.625 1.625 0 0 0-1.532-.071c-.26.123-.491.316-.661.571Z" clip-rule="evenodd"/></mask><g mask="url(#c)"><path fill="#151515" d="m130.145 292.727 11.438 6.795-14.744 24.82-11.438-6.794z"/></g></g><path fill="#FCBE4F" d="M1.494 277.052C-2.85 299.429 3.304 320.341 6.925 328H20.49l51.595-.104c4.542-1.998 5.856-4.225 8.16-6.14 1.382-3.796 2.33-17.767 2.962-29.22.757-13.731 1.32-21.527 0-35.214-.987-10.24-3.653-20.979-6.418-24.975-4.148-3.796-9.628-5.744-11.85-6.244-4.855-.832-16.787-1.998-25.674 0s-16.553 6.14-18.762 8.741c-4.526 4.746-14.664 19.83-19.009 42.208Z"/><rect width="156" height="65" x="78" fill="#246073" rx="8"/><rect width="64" height="60" x="23" y="98" fill="#246073" rx="8"/><rect width="64" height="60" x="124" y="107" fill="#246073" rx="8"/><rect width="64" height="60" x="230" y="106" fill="#246073" rx="8"/><g filter="url(#d)"><rect width="52" height="22" x="29" y="104" fill="#fff" rx="3"/></g><path stroke="#ACACAC" d="M29 116.5h52"/><rect width="36" height="4" x="41" y="106" fill="#D9D9D9" rx="1"/><rect width="13" height="3" x="41" y="111" fill="#E9E9E9" rx="1"/><path fill="#D9D9D9" d="M39 121h16v2H39zM72 121h6v2h-6z"/><circle cx="34" cy="121" r="3" fill="#D9D9D9"/><mask id="e" width="8" height="8" x="30" y="104" maskUnits="userSpaceOnUse" style="mask-type:alpha"><path fill="#D9D9D9" d="M30.852 104.789h6.992v6.992h-6.992z"/></mask><g mask="url(#e)"><path fill="#3DC795" d="m33.94 109.626 2.054-2.054-.408-.408-1.646 1.646-.83-.831-.408.408 1.238 1.239Zm.408 1.573c-.403 0-.782-.077-1.136-.23a2.944 2.944 0 0 1-.925-.622 2.955 2.955 0 0 1-.623-.925 2.842 2.842 0 0 1-.23-1.137c0-.403.077-.781.23-1.136.153-.354.36-.663.623-.925.262-.262.57-.47.925-.623a2.836 2.836 0 0 1 1.136-.229c.403 0 .782.076 1.136.229.355.153.663.361.925.623s.47.571.623.925c.153.355.23.733.23 1.136 0 .403-.077.782-.23 1.137-.153.354-.36.662-.623.925-.262.262-.57.469-.925.622-.354.153-.733.23-1.136.23Zm0-.583c.65 0 1.202-.226 1.653-.677a2.251 2.251 0 0 0 .678-1.654 2.25 2.25 0 0 0-.678-1.653 2.251 2.251 0 0 0-1.653-.677c-.65 0-1.202.226-1.653.677a2.25 2.25 0 0 0-.678 1.653c0 .651.226 1.202.678 1.654a2.251 2.251 0 0 0 1.653.677Z"/></g><g filter="url(#f)"><rect width="52" height="22" x="29" y="130" fill="#fff" rx="3"/></g><path stroke="#ACACAC" d="M29 142.5h52"/><rect width="36" height="4" x="41" y="132" fill="#D9D9D9" rx="1"/><rect width="13" height="3" x="41" y="137" fill="#E9E9E9" rx="1"/><path fill="#D9D9D9" d="M39 147h16v2H39zM72 147h6v2h-6z"/><circle cx="34" cy="147" r="3" fill="#D9D9D9"/><mask id="g" width="8" height="8" x="30" y="130" maskUnits="userSpaceOnUse" style="mask-type:alpha"><path fill="#D9D9D9" d="M30.852 130.789h6.992v6.992h-6.992z"/></mask><g mask="url(#g)"><path fill="#3DC795" d="m33.94 135.626 2.054-2.054-.408-.408-1.646 1.646-.83-.831-.408.408 1.238 1.239Zm.408 1.573c-.403 0-.782-.077-1.136-.23a2.944 2.944 0 0 1-.925-.622 2.955 2.955 0 0 1-.623-.925 2.842 2.842 0 0 1-.23-1.137c0-.403.077-.781.23-1.136.153-.354.36-.663.623-.925.262-.262.57-.47.925-.623a2.836 2.836 0 0 1 1.136-.229c.403 0 .782.076 1.136.229.355.153.663.361.925.623s.47.571.623.925c.153.355.23.733.23 1.136 0 .403-.077.782-.23 1.137-.153.354-.36.662-.623.925-.262.262-.57.469-.925.622-.354.153-.733.23-1.136.23Zm0-.583c.65 0 1.202-.226 1.653-.677a2.251 2.251 0 0 0 .678-1.654 2.25 2.25 0 0 0-.678-1.653 2.251 2.251 0 0 0-1.653-.677c-.65 0-1.202.226-1.653.677a2.25 2.25 0 0 0-.678 1.653c0 .651.226 1.202.678 1.654a2.251 2.251 0 0 0 1.653.677Z"/></g><g filter="url(#h)"><rect width="52" height="22" x="130" y="113" fill="#fff" rx="3"/></g><path stroke="#ACACAC" d="M130 125.5h52"/><rect width="36" height="4" x="142" y="115" fill="#D9D9D9" rx="1"/><rect width="13" height="3" x="142" y="120" fill="#E9E9E9" rx="1"/><path fill="#D9D9D9" d="M140 130h16v2h-16zM173 130h6v2h-6z"/><circle cx="135" cy="130" r="3" fill="#D9D9D9"/><mask id="i" width="8" height="8" x="131" y="113" maskUnits="userSpaceOnUse" style="mask-type:alpha"><path fill="#D9D9D9" d="M131.852 113.789h6.992v6.992h-6.992z"/></mask><g mask="url(#i)"><path fill="#3DC795" d="m134.94 118.626 2.054-2.054-.408-.408-1.646 1.646-.83-.831-.408.408 1.238 1.239Zm.408 1.573c-.403 0-.782-.077-1.136-.23a2.936 2.936 0 0 1-.925-.622 2.961 2.961 0 0 1-.623-.925 2.841 2.841 0 0 1-.229-1.137c0-.403.076-.781.229-1.136a2.95 2.95 0 0 1 .623-.925c.262-.262.57-.47.925-.623a2.833 2.833 0 0 1 1.136-.229c.403 0 .782.076 1.136.229.355.153.663.361.925.623s.47.571.623.925c.153.355.229.733.229 1.136 0 .403-.076.782-.229 1.137a2.961 2.961 0 0 1-.623.925c-.262.262-.57.469-.925.622-.354.153-.733.23-1.136.23Zm0-.583a2.25 2.25 0 0 0 1.653-.677 2.25 2.25 0 0 0 .678-1.654 2.25 2.25 0 0 0-.678-1.653 2.25 2.25 0 0 0-1.653-.677 2.25 2.25 0 0 0-1.653.677 2.25 2.25 0 0 0-.678 1.653c0 .651.226 1.202.678 1.654a2.25 2.25 0 0 0 1.653.677Z"/></g><g filter="url(#j)"><rect width="52" height="22" x="130" y="139" fill="#fff" rx="3"/></g><path stroke="#ACACAC" d="M130 151.5h52"/><rect width="36" height="4" x="142" y="141" fill="#D9D9D9" rx="1"/><rect width="13" height="3" x="142" y="146" fill="#E9E9E9" rx="1"/><path fill="#D9D9D9" d="M140 156h16v2h-16zM173 156h6v2h-6z"/><circle cx="135" cy="156" r="3" fill="#D9D9D9"/><mask id="k" width="8" height="8" x="131" y="139" maskUnits="userSpaceOnUse" style="mask-type:alpha"><path fill="#D9D9D9" d="M131.852 139.789h6.992v6.992h-6.992z"/></mask><g mask="url(#k)"><path fill="#3DC795" d="m134.94 144.626 2.054-2.054-.408-.408-1.646 1.646-.83-.831-.408.408 1.238 1.239Zm.408 1.573c-.403 0-.782-.077-1.136-.23a2.936 2.936 0 0 1-.925-.622 2.961 2.961 0 0 1-.623-.925 2.841 2.841 0 0 1-.229-1.137c0-.403.076-.781.229-1.136a2.95 2.95 0 0 1 .623-.925c.262-.262.57-.47.925-.623a2.833 2.833 0 0 1 1.136-.229c.403 0 .782.076 1.136.229.355.153.663.361.925.623s.47.571.623.925c.153.355.229.733.229 1.136 0 .403-.076.782-.229 1.137a2.961 2.961 0 0 1-.623.925c-.262.262-.57.469-.925.622-.354.153-.733.23-1.136.23Zm0-.583a2.25 2.25 0 0 0 1.653-.677 2.25 2.25 0 0 0 .678-1.654 2.25 2.25 0 0 0-.678-1.653 2.25 2.25 0 0 0-1.653-.677 2.25 2.25 0 0 0-1.653.677 2.25 2.25 0 0 0-.678 1.653c0 .651.226 1.202.678 1.654a2.25 2.25 0 0 0 1.653.677Z"/></g><g filter="url(#l)"><rect width="52" height="22" x="236" y="112" fill="#fff" rx="3"/></g><path stroke="#ACACAC" d="M236 124.5h52"/><rect width="36" height="4" x="248" y="114" fill="#D9D9D9" rx="1"/><rect width="13" height="3" x="248" y="119" fill="#E9E9E9" rx="1"/><path fill="#D9D9D9" d="M246 129h16v2h-16zM279 129h6v2h-6z"/><circle cx="241" cy="129" r="3" fill="#D9D9D9"/><mask id="m" width="8" height="8" x="237" y="112" maskUnits="userSpaceOnUse" style="mask-type:alpha"><path fill="#D9D9D9" d="M237.852 112.789h6.992v6.992h-6.992z"/></mask><g mask="url(#m)"><path fill="#3DC795" d="m240.94 117.626 2.054-2.054-.408-.408-1.646 1.646-.83-.831-.408.408 1.238 1.239Zm.408 1.573c-.403 0-.782-.077-1.136-.23a2.936 2.936 0 0 1-.925-.622 2.961 2.961 0 0 1-.623-.925 2.841 2.841 0 0 1-.229-1.137c0-.403.076-.781.229-1.136a2.95 2.95 0 0 1 .623-.925c.262-.262.57-.47.925-.623a2.833 2.833 0 0 1 1.136-.229c.403 0 .782.076 1.136.229.355.153.663.361.925.623s.47.571.623.925c.153.355.229.733.229 1.136 0 .403-.076.782-.229 1.137a2.961 2.961 0 0 1-.623.925c-.262.262-.57.469-.925.622-.354.153-.733.23-1.136.23Zm0-.583a2.25 2.25 0 0 0 1.653-.677 2.25 2.25 0 0 0 .678-1.654 2.25 2.25 0 0 0-.678-1.653 2.25 2.25 0 0 0-1.653-.677 2.25 2.25 0 0 0-1.653.677 2.25 2.25 0 0 0-.678 1.653c0 .651.226 1.202.678 1.654a2.25 2.25 0 0 0 1.653.677Z"/></g><g filter="url(#n)"><rect width="52" height="22" x="236" y="138" fill="#fff" rx="3"/></g><path stroke="#ACACAC" d="M236 150.5h52"/><rect width="36" height="4" x="248" y="140" fill="#D9D9D9" rx="1"/><rect width="13" height="3" x="248" y="145" fill="#E9E9E9" rx="1"/><path fill="#D9D9D9" d="M246 155h16v2h-16zM279 155h6v2h-6z"/><circle cx="241" cy="155" r="3" fill="#D9D9D9"/><mask id="o" width="8" height="8" x="237" y="138" maskUnits="userSpaceOnUse" style="mask-type:alpha"><path fill="#D9D9D9" d="M237.852 138.789h6.992v6.992h-6.992z"/></mask><g mask="url(#o)"><path fill="#3DC795" d="m240.94 143.626 2.054-2.054-.408-.408-1.646 1.646-.83-.831-.408.408 1.238 1.239Zm.408 1.573c-.403 0-.782-.077-1.136-.23a2.936 2.936 0 0 1-.925-.622 2.961 2.961 0 0 1-.623-.925 2.841 2.841 0 0 1-.229-1.137c0-.403.076-.781.229-1.136a2.95 2.95 0 0 1 .623-.925c.262-.262.57-.47.925-.623a2.833 2.833 0 0 1 1.136-.229c.403 0 .782.076 1.136.229.355.153.663.361.925.623s.47.571.623.925c.153.355.229.733.229 1.136 0 .403-.076.782-.229 1.137a2.961 2.961 0 0 1-.623.925c-.262.262-.57.469-.925.622-.354.153-.733.23-1.136.23Zm0-.583a2.25 2.25 0 0 0 1.653-.677 2.25 2.25 0 0 0 .678-1.654 2.25 2.25 0 0 0-.678-1.653 2.25 2.25 0 0 0-1.653-.677 2.25 2.25 0 0 0-1.653.677 2.25 2.25 0 0 0-.678 1.653c0 .651.226 1.202.678 1.654a2.25 2.25 0 0 0 1.653.677Z"/></g><g filter="url(#p)"><rect width="42" height="22" x="183" y="36" fill="#fff" rx="3"/></g><path stroke="#ACACAC" d="M183 48.5h42"/><rect width="27" height="4" x="195" y="38" fill="#D9D9D9" rx="1"/><rect width="13" height="3" x="195" y="43" fill="#E9E9E9" rx="1"/><path fill="#D9D9D9" d="M193 53h16v2h-16zM217 53h6v2h-6z"/><circle cx="188" cy="53" r="3" fill="#D9D9D9"/><mask id="q" width="8" height="8" x="184" y="36" maskUnits="userSpaceOnUse" style="mask-type:alpha"><path fill="#D9D9D9" d="M184.852 36.789h6.992v6.992h-6.992z"/></mask><g mask="url(#q)"><path fill="#3DC795" d="m187.94 41.626 2.054-2.054-.408-.408-1.646 1.646-.83-.83-.408.407 1.238 1.239Zm.408 1.573c-.403 0-.782-.077-1.136-.23a2.93 2.93 0 0 1-.925-.623 2.947 2.947 0 0 1-.623-.924 2.836 2.836 0 0 1-.229-1.137c0-.403.076-.781.229-1.136.153-.354.361-.663.623-.925s.57-.47.925-.623c.354-.152.733-.229 1.136-.229.403 0 .782.077 1.136.23.355.152.663.36.925.622s.47.57.623.925c.153.355.229.733.229 1.136 0 .403-.076.782-.229 1.137a2.947 2.947 0 0 1-.623.925 2.93 2.93 0 0 1-.925.622c-.354.153-.733.23-1.136.23Zm0-.583c.651 0 1.202-.226 1.653-.677a2.248 2.248 0 0 0 .678-1.654c0-.65-.226-1.201-.678-1.653a2.247 2.247 0 0 0-1.653-.677c-.651 0-1.202.226-1.653.677a2.248 2.248 0 0 0-.678 1.653c0 .651.226 1.202.678 1.654a2.247 2.247 0 0 0 1.653.677Z"/></g><g filter="url(#r)"><rect width="42" height="22" x="183" y="7" fill="#fff" rx="3"/></g><path stroke="#ACACAC" d="M183 19.5h42"/><rect width="27" height="4" x="195" y="9" fill="#D9D9D9" rx="1"/><rect width="13" height="3" x="195" y="14" fill="#E9E9E9" rx="1"/><path fill="#D9D9D9" d="M193 24h16v2h-16zM217 24h6v2h-6z"/><circle cx="188" cy="24" r="3" fill="#D9D9D9"/><mask id="s" width="8" height="8" x="184" y="7" maskUnits="userSpaceOnUse" style="mask-type:alpha"><path fill="#D9D9D9" d="M184.852 7.789h6.992v6.992h-6.992z"/></mask><g mask="url(#s)"><path fill="#3DC795" d="m187.94 12.626 2.054-2.054-.408-.408-1.646 1.646-.83-.83-.408.407 1.238 1.239Zm.408 1.573c-.403 0-.782-.077-1.136-.23a2.93 2.93 0 0 1-.925-.622 2.947 2.947 0 0 1-.623-.925 2.836 2.836 0 0 1-.229-1.137c0-.403.076-.781.229-1.136.153-.354.361-.663.623-.925s.57-.47.925-.623c.354-.153.733-.229 1.136-.229.403 0 .782.076 1.136.23.355.152.663.36.925.622s.47.57.623.925c.153.355.229.733.229 1.136 0 .403-.076.782-.229 1.137a2.947 2.947 0 0 1-.623.925 2.93 2.93 0 0 1-.925.622c-.354.153-.733.23-1.136.23Zm0-.583c.651 0 1.202-.226 1.653-.677a2.248 2.248 0 0 0 .678-1.654c0-.65-.226-1.201-.678-1.653a2.247 2.247 0 0 0-1.653-.677c-.651 0-1.202.226-1.653.677a2.248 2.248 0 0 0-.678 1.653c0 .651.226 1.202.678 1.654a2.247 2.247 0 0 0 1.653.677Z"/></g><g filter="url(#t)"><rect width="42" height="22" x="135" y="7" fill="#fff" rx="3"/></g><path stroke="#ACACAC" d="M135 19.5h42"/><rect width="27" height="4" x="147" y="9" fill="#D9D9D9" rx="1"/><rect width="13" height="3" x="147" y="14" fill="#E9E9E9" rx="1"/><path fill="#D9D9D9" d="M145 24h16v2h-16zM169 24h6v2h-6z"/><circle cx="140" cy="24" r="3" fill="#D9D9D9"/><mask id="u" width="8" height="8" x="136" y="7" maskUnits="userSpaceOnUse" style="mask-type:alpha"><path fill="#D9D9D9" d="M136.852 7.789h6.992v6.992h-6.992z"/></mask><g mask="url(#u)"><path fill="#3DC795" d="m139.94 12.626 2.054-2.054-.408-.408-1.646 1.646-.83-.83-.408.407 1.238 1.239Zm.408 1.573c-.403 0-.782-.077-1.136-.23a2.93 2.93 0 0 1-.925-.622 2.947 2.947 0 0 1-.623-.925 2.836 2.836 0 0 1-.229-1.137c0-.403.076-.781.229-1.136.153-.354.361-.663.623-.925s.57-.47.925-.623c.354-.153.733-.229 1.136-.229.403 0 .782.076 1.136.23.355.152.663.36.925.622s.47.57.623.925c.153.355.229.733.229 1.136 0 .403-.076.782-.229 1.137a2.947 2.947 0 0 1-.623.925 2.93 2.93 0 0 1-.925.622c-.354.153-.733.23-1.136.23Zm0-.583c.651 0 1.202-.226 1.653-.677a2.248 2.248 0 0 0 .678-1.654c0-.65-.226-1.201-.678-1.653a2.247 2.247 0 0 0-1.653-.677c-.651 0-1.202.226-1.653.677a2.248 2.248 0 0 0-.678 1.653c0 .651.226 1.202.678 1.654a2.247 2.247 0 0 0 1.653.677Z"/></g><g filter="url(#v)"><rect width="42" height="22" x="135" y="36" fill="#fff" rx="3"/></g><path stroke="#ACACAC" d="M135 48.5h42"/><rect width="27" height="4" x="147" y="38" fill="#D9D9D9" rx="1"/><rect width="13" height="3" x="147" y="43" fill="#E9E9E9" rx="1"/><path fill="#D9D9D9" d="M145 53h16v2h-16zM169 53h6v2h-6z"/><circle cx="140" cy="53" r="3" fill="#D9D9D9"/><mask id="w" width="8" height="8" x="136" y="36" maskUnits="userSpaceOnUse" style="mask-type:alpha"><path fill="#D9D9D9" d="M136.852 36.789h6.992v6.992h-6.992z"/></mask><g mask="url(#w)"><path fill="#3DC795" d="m139.94 41.626 2.054-2.054-.408-.408-1.646 1.646-.83-.83-.408.407 1.238 1.239Zm.408 1.573c-.403 0-.782-.077-1.136-.23a2.93 2.93 0 0 1-.925-.623 2.947 2.947 0 0 1-.623-.924 2.836 2.836 0 0 1-.229-1.137c0-.403.076-.781.229-1.136.153-.354.361-.663.623-.925s.57-.47.925-.623c.354-.152.733-.229 1.136-.229.403 0 .782.077 1.136.23.355.152.663.36.925.622s.47.57.623.925c.153.355.229.733.229 1.136 0 .403-.076.782-.229 1.137a2.947 2.947 0 0 1-.623.925 2.93 2.93 0 0 1-.925.622c-.354.153-.733.23-1.136.23Zm0-.583c.651 0 1.202-.226 1.653-.677a2.248 2.248 0 0 0 .678-1.654c0-.65-.226-1.201-.678-1.653a2.247 2.247 0 0 0-1.653-.677c-.651 0-1.202.226-1.653.677a2.248 2.248 0 0 0-.678 1.653c0 .651.226 1.202.678 1.654a2.247 2.247 0 0 0 1.653.677Z"/></g><g filter="url(#x)"><rect width="42" height="22" x="87" y="7" fill="#fff" rx="3"/></g><path stroke="#ACACAC" d="M87 19.5h42"/><rect width="27" height="4" x="99" y="9" fill="#D9D9D9" rx="1"/><rect width="13" height="3" x="99" y="14" fill="#E9E9E9" rx="1"/><path fill="#D9D9D9" d="M97 24h16v2H97zM121 24h6v2h-6z"/><circle cx="92" cy="24" r="3" fill="#D9D9D9"/><mask id="y" width="8" height="8" x="88" y="7" maskUnits="userSpaceOnUse" style="mask-type:alpha"><path fill="#D9D9D9" d="M88.852 7.789h6.992v6.992h-6.992z"/></mask><g mask="url(#y)"><path fill="#3DC795" d="m91.94 12.626 2.054-2.054-.408-.408-1.646 1.646-.83-.83-.408.407 1.238 1.239Zm.408 1.573c-.403 0-.782-.077-1.136-.23a2.939 2.939 0 0 1-.925-.622 2.941 2.941 0 0 1-.623-.925 2.836 2.836 0 0 1-.23-1.137c0-.403.077-.781.23-1.136a2.94 2.94 0 0 1 .623-.925c.262-.262.57-.47.925-.623.354-.153.733-.229 1.136-.229.403 0 .782.076 1.136.23.355.152.663.36.925.622s.47.57.623.925c.153.355.23.733.23 1.136 0 .403-.077.782-.23 1.137a2.94 2.94 0 0 1-.623.925 2.94 2.94 0 0 1-.925.622c-.354.153-.733.23-1.136.23Zm0-.583A2.25 2.25 0 0 0 94 12.939a2.25 2.25 0 0 0 .677-1.654 2.25 2.25 0 0 0-.677-1.653 2.25 2.25 0 0 0-1.653-.677 2.25 2.25 0 0 0-1.653.677 2.25 2.25 0 0 0-.678 1.653c0 .651.226 1.202.678 1.654a2.25 2.25 0 0 0 1.653.677Z"/></g><g filter="url(#z)"><rect width="42" height="22" x="87" y="36" fill="#fff" rx="3"/></g><path stroke="#ACACAC" d="M87 48.5h42"/><rect width="27" height="4" x="99" y="38" fill="#D9D9D9" rx="1"/><rect width="13" height="3" x="99" y="43" fill="#E9E9E9" rx="1"/><path fill="#D9D9D9" d="M97 53h16v2H97zM121 53h6v2h-6z"/><circle cx="92" cy="53" r="3" fill="#D9D9D9"/><mask id="A" width="8" height="8" x="88" y="36" maskUnits="userSpaceOnUse" style="mask-type:alpha"><path fill="#D9D9D9" d="M88.852 36.789h6.992v6.992h-6.992z"/></mask><g mask="url(#A)"><path fill="#3DC795" d="m91.94 41.626 2.054-2.054-.408-.408-1.646 1.646-.83-.83-.408.407 1.238 1.239Zm.408 1.573c-.403 0-.782-.077-1.136-.23a2.939 2.939 0 0 1-.925-.623 2.941 2.941 0 0 1-.623-.924 2.836 2.836 0 0 1-.23-1.137c0-.403.077-.781.23-1.136a2.94 2.94 0 0 1 .623-.925c.262-.262.57-.47.925-.623a2.84 2.84 0 0 1 1.136-.229c.403 0 .782.077 1.136.23.355.152.663.36.925.622s.47.57.623.925c.153.355.23.733.23 1.136 0 .403-.077.782-.23 1.137a2.94 2.94 0 0 1-.623.925 2.94 2.94 0 0 1-.925.622c-.354.153-.733.23-1.136.23Zm0-.583A2.25 2.25 0 0 0 94 41.939a2.25 2.25 0 0 0 .677-1.654 2.25 2.25 0 0 0-.677-1.653 2.25 2.25 0 0 0-1.653-.677 2.25 2.25 0 0 0-1.653.677 2.25 2.25 0 0 0-.678 1.653c0 .651.226 1.202.678 1.654a2.25 2.25 0 0 0 1.653.677Z"/></g><path fill="#fff" d="M91.51 61.582a1.5 1.5 0 0 1 .979 2.836l-.978-2.836Zm-30.056 38.575a1.5 1.5 0 0 1-2.111-.203l-8.589-10.416a1.5 1.5 0 0 1 2.315-1.908l7.634 9.258 9.259-7.634a1.5 1.5 0 0 1 1.908 2.315l-10.416 8.588ZM92 63l.49 1.418h-.002a.457.457 0 0 0-.011.004c-.011.004-.03.01-.054.02a33.31 33.31 0 0 0-1.11.429c-.77.312-1.881.79-3.226 1.446-2.694 1.313-6.308 3.326-9.992 6.127-7.382 5.613-14.907 14.275-16.102 26.7l-2.986-.288c1.305-13.575 9.53-22.913 17.273-28.8 3.878-2.949 7.67-5.06 10.492-6.436a55.945 55.945 0 0 1 3.412-1.53 36.945 36.945 0 0 1 1.226-.473l.071-.025.02-.007.006-.002h.002c.001-.001.002-.001.49 1.417ZM217.762 61.944a1.5 1.5 0 0 0-1.523 2.584l1.523-2.584Zm31.784 46.713a1.5 1.5 0 0 0 2.111-.203l8.589-10.415a1.5 1.5 0 0 0-2.315-1.909l-7.634 9.258-9.259-7.634a1.5 1.5 0 1 0-1.908 2.315l10.416 8.588ZM217 63.236l-.761 1.292.003.002.014.008.06.036.247.15c.219.136.544.339.961.608a84.347 84.347 0 0 1 3.483 2.382c2.902 2.087 6.796 5.136 10.762 8.981 7.974 7.73 16.039 18.482 17.238 30.949l2.986-.288c-1.301-13.532-9.986-24.914-18.136-32.815a100.19 100.19 0 0 0-11.098-9.263 87.38 87.38 0 0 0-3.608-2.467 55.552 55.552 0 0 0-1.288-.807l-.073-.043-.019-.012a.028.028 0 0 1-.006-.004h-.002c-.001-.001-.001-.001-.763 1.291ZM158.5 64a1.5 1.5 0 0 0-3 0h3Zm-2.574 46.061a1.5 1.5 0 0 0 2.121 0l9.549-9.543a1.5 1.5 0 1 0-2.121-2.122l-8.488 8.483-8.482-8.488a1.5 1.5 0 0 0-2.122 2.121l9.543 9.549ZM155.5 64l-.013 45 3 .001.013-45-3-.001Z"/><defs><filter id="b" width="63.211" height="73.062" x="96.886" y="292.107" color-interpolation-filters="sRGB" filterUnits="userSpaceOnUse"><feFlood flood-opacity="0" result="BackgroundImageFix"/><feColorMatrix in="SourceAlpha" result="hardAlpha" values="0 0 0 0 0 0 0 0 0 0 0 0 0 0 0 0 0 0 127 0"/><feOffset dy="2.767"/><feGaussianBlur stdDeviation="1.107"/><feColorMatrix values="0 0 0 0 0 0 0 0 0 0 0 0 0 0 0 0 0 0 0.030926 0"/><feBlend in2="BackgroundImageFix" result="effect1_dropShadow_477_1106"/><feColorMatrix in="SourceAlpha" result="hardAlpha" values="0 0 0 0 0 0 0 0 0 0 0 0 0 0 0 0 0 0 127 0"/><feOffset dy="6.65"/><feGaussianBlur stdDeviation="2.66"/><feColorMatrix values="0 0 0 0 0 0 0 0 0 0 0 0 0 0 0 0 0 0 0.0444282 0"/><feBlend in2="effect1_dropShadow_477_1106" result="effect2_dropShadow_477_1106"/><feColorMatrix in="SourceAlpha" result="hardAlpha" values="0 0 0 0 0 0 0 0 0 0 0 0 0 0 0 0 0 0 127 0"/><feOffset dy="12.522"/><feGaussianBlur stdDeviation="5.009"/><feColorMatrix values="0 0 0 0 0 0 0 0 0 0 0 0 0 0 0 0 0 0 0.055 0"/><feBlend in2="effect2_dropShadow_477_1106" result="effect3_dropShadow_477_1106"/><feColorMatrix in="SourceAlpha" result="hardAlpha" values="0 0 0 0 0 0 0 0 0 0 0 0 0 0 0 0 0 0 127 0"/><feOffset dy="22.336"/><feGaussianBlur stdDeviation="8.935"/><feColorMatrix values="0 0 0 0 0 0 0 0 0 0 0 0 0 0 0 0 0 0 0.0655718 0"/><feBlend in2="effect3_dropShadow_477_1106" result="effect4_dropShadow_477_1106"/><feBlend in="SourceGraphic" in2="effect4_dropShadow_477_1106" result="shape"/></filter><filter id="d" width="62" height="32" x="24" y="102" color-interpolation-filters="sRGB" filterUnits="userSpaceOnUse"><feFlood flood-opacity="0" result="BackgroundImageFix"/><feColorMatrix in="SourceAlpha" result="hardAlpha" values="0 0 0 0 0 0 0 0 0 0 0 0 0 0 0 0 0 0 127 0"/><feOffset dy="3"/><feGaussianBlur stdDeviation="2.5"/><feComposite in2="hardAlpha" operator="out"/><feColorMatrix values="0 0 0 0 0 0 0 0 0 0 0 0 0 0 0 0 0 0 0.15 0"/><feBlend in2="BackgroundImageFix" result="effect1_dropShadow_477_1106"/><feBlend in="SourceGraphic" in2="effect1_dropShadow_477_1106" result="shape"/></filter><filter id="f" width="62" height="32" x="24" y="128" color-interpolation-filters="sRGB" filterUnits="userSpaceOnUse"><feFlood flood-opacity="0" result="BackgroundImageFix"/><feColorMatrix in="SourceAlpha" result="hardAlpha" values="0 0 0 0 0 0 0 0 0 0 0 0 0 0 0 0 0 0 127 0"/><feOffset dy="3"/><feGaussianBlur stdDeviation="2.5"/><feComposite in2="hardAlpha" operator="out"/><feColorMatrix values="0 0 0 0 0 0 0 0 0 0 0 0 0 0 0 0 0 0 0.15 0"/><feBlend in2="BackgroundImageFix" result="effect1_dropShadow_477_1106"/><feBlend in="SourceGraphic" in2="effect1_dropShadow_477_1106" result="shape"/></filter><filter id="h" width="62" height="32" x="125" y="111" color-interpolation-filters="sRGB" filterUnits="userSpaceOnUse"><feFlood flood-opacity="0" result="BackgroundImageFix"/><feColorMatrix in="SourceAlpha" result="hardAlpha" values="0 0 0 0 0 0 0 0 0 0 0 0 0 0 0 0 0 0 127 0"/><feOffset dy="3"/><feGaussianBlur stdDeviation="2.5"/><feComposite in2="hardAlpha" operator="out"/><feColorMatrix values="0 0 0 0 0 0 0 0 0 0 0 0 0 0 0 0 0 0 0.15 0"/><feBlend in2="BackgroundImageFix" result="effect1_dropShadow_477_1106"/><feBlend in="SourceGraphic" in2="effect1_dropShadow_477_1106" result="shape"/></filter><filter id="j" width="62" height="32" x="125" y="137" color-interpolation-filters="sRGB" filterUnits="userSpaceOnUse"><feFlood flood-opacity="0" result="BackgroundImageFix"/><feColorMatrix in="SourceAlpha" result="hardAlpha" values="0 0 0 0 0 0 0 0 0 0 0 0 0 0 0 0 0 0 127 0"/><feOffset dy="3"/><feGaussianBlur stdDeviation="2.5"/><feComposite in2="hardAlpha" operator="out"/><feColorMatrix values="0 0 0 0 0 0 0 0 0 0 0 0 0 0 0 0 0 0 0.15 0"/><feBlend in2="BackgroundImageFix" result="effect1_dropShadow_477_1106"/><feBlend in="SourceGraphic" in2="effect1_dropShadow_477_1106" result="shape"/></filter><filter id="l" width="62" height="32" x="231" y="110" color-interpolation-filters="sRGB" filterUnits="userSpaceOnUse"><feFlood flood-opacity="0" result="BackgroundImageFix"/><feColorMatrix in="SourceAlpha" result="hardAlpha" values="0 0 0 0 0 0 0 0 0 0 0 0 0 0 0 0 0 0 127 0"/><feOffset dy="3"/><feGaussianBlur stdDeviation="2.5"/><feComposite in2="hardAlpha" operator="out"/><feColorMatrix values="0 0 0 0 0 0 0 0 0 0 0 0 0 0 0 0 0 0 0.15 0"/><feBlend in2="BackgroundImageFix" result="effect1_dropShadow_477_1106"/><feBlend in="SourceGraphic" in2="effect1_dropShadow_477_1106" result="shape"/></filter><filter id="n" width="62" height="32" x="231" y="136" color-interpolation-filters="sRGB" filterUnits="userSpaceOnUse"><feFlood flood-opacity="0" result="BackgroundImageFix"/><feColorMatrix in="SourceAlpha" result="hardAlpha" values="0 0 0 0 0 0 0 0 0 0 0 0 0 0 0 0 0 0 127 0"/><feOffset dy="3"/><feGaussianBlur stdDeviation="2.5"/><feComposite in2="hardAlpha" operator="out"/><feColorMatrix values="0 0 0 0 0 0 0 0 0 0 0 0 0 0 0 0 0 0 0.15 0"/><feBlend in2="BackgroundImageFix" result="effect1_dropShadow_477_1106"/><feBlend in="SourceGraphic" in2="effect1_dropShadow_477_1106" result="shape"/></filter><filter id="p" width="52" height="32" x="178" y="34" color-interpolation-filters="sRGB" filterUnits="userSpaceOnUse"><feFlood flood-opacity="0" result="BackgroundImageFix"/><feColorMatrix in="SourceAlpha" result="hardAlpha" values="0 0 0 0 0 0 0 0 0 0 0 0 0 0 0 0 0 0 127 0"/><feOffset dy="3"/><feGaussianBlur stdDeviation="2.5"/><feComposite in2="hardAlpha" operator="out"/><feColorMatrix values="0 0 0 0 0 0 0 0 0 0 0 0 0 0 0 0 0 0 0.15 0"/><feBlend in2="BackgroundImageFix" result="effect1_dropShadow_477_1106"/><feBlend in="SourceGraphic" in2="effect1_dropShadow_477_1106" result="shape"/></filter><filter id="r" width="52" height="32" x="178" y="5" color-interpolation-filters="sRGB" filterUnits="userSpaceOnUse"><feFlood flood-opacity="0" result="BackgroundImageFix"/><feColorMatrix in="SourceAlpha" result="hardAlpha" values="0 0 0 0 0 0 0 0 0 0 0 0 0 0 0 0 0 0 127 0"/><feOffset dy="3"/><feGaussianBlur stdDeviation="2.5"/><feComposite in2="hardAlpha" operator="out"/><feColorMatrix values="0 0 0 0 0 0 0 0 0 0 0 0 0 0 0 0 0 0 0.15 0"/><feBlend in2="BackgroundImageFix" result="effect1_dropShadow_477_1106"/><feBlend in="SourceGraphic" in2="effect1_dropShadow_477_1106" result="shape"/></filter><filter id="t" width="52" height="32" x="130" y="5" color-interpolation-filters="sRGB" filterUnits="userSpaceOnUse"><feFlood flood-opacity="0" result="BackgroundImageFix"/><feColorMatrix in="SourceAlpha" result="hardAlpha" values="0 0 0 0 0 0 0 0 0 0 0 0 0 0 0 0 0 0 127 0"/><feOffset dy="3"/><feGaussianBlur stdDeviation="2.5"/><feComposite in2="hardAlpha" operator="out"/><feColorMatrix values="0 0 0 0 0 0 0 0 0 0 0 0 0 0 0 0 0 0 0.15 0"/><feBlend in2="BackgroundImageFix" result="effect1_dropShadow_477_1106"/><feBlend in="SourceGraphic" in2="effect1_dropShadow_477_1106" result="shape"/></filter><filter id="v" width="52" height="32" x="130" y="34" color-interpolation-filters="sRGB" filterUnits="userSpaceOnUse"><feFlood flood-opacity="0" result="BackgroundImageFix"/><feColorMatrix in="SourceAlpha" result="hardAlpha" values="0 0 0 0 0 0 0 0 0 0 0 0 0 0 0 0 0 0 127 0"/><feOffset dy="3"/><feGaussianBlur stdDeviation="2.5"/><feComposite in2="hardAlpha" operator="out"/><feColorMatrix values="0 0 0 0 0 0 0 0 0 0 0 0 0 0 0 0 0 0 0.15 0"/><feBlend in2="BackgroundImageFix" result="effect1_dropShadow_477_1106"/><feBlend in="SourceGraphic" in2="effect1_dropShadow_477_1106" result="shape"/></filter><filter id="x" width="52" height="32" x="82" y="5" color-interpolation-filters="sRGB" filterUnits="userSpaceOnUse"><feFlood flood-opacity="0" result="BackgroundImageFix"/><feColorMatrix in="SourceAlpha" result="hardAlpha" values="0 0 0 0 0 0 0 0 0 0 0 0 0 0 0 0 0 0 127 0"/><feOffset dy="3"/><feGaussianBlur stdDeviation="2.5"/><feComposite in2="hardAlpha" operator="out"/><feColorMatrix values="0 0 0 0 0 0 0 0 0 0 0 0 0 0 0 0 0 0 0.15 0"/><feBlend in2="BackgroundImageFix" result="effect1_dropShadow_477_1106"/><feBlend in="SourceGraphic" in2="effect1_dropShadow_477_1106" result="shape"/></filter><filter id="z" width="52" height="32" x="82" y="34" color-interpolation-filters="sRGB" filterUnits="userSpaceOnUse"><feFlood flood-opacity="0" result="BackgroundImageFix"/><feColorMatrix in="SourceAlpha" result="hardAlpha" values="0 0 0 0 0 0 0 0 0 0 0 0 0 0 0 0 0 0 127 0"/><feOffset dy="3"/><feGaussianBlur stdDeviation="2.5"/><feComposite in2="hardAlpha" operator="out"/><feColorMatrix values="0 0 0 0 0 0 0 0 0 0 0 0 0 0 0 0 0 0 0.15 0"/><feBlend in2="BackgroundImageFix" result="effect1_dropShadow_477_1106"/><feBlend in="SourceGraphic" in2="effect1_dropShadow_477_1106" result="shape"/></filter><clipPath id="a"><path fill="#fff" d="m129.936 292.107 12.292 7.302-15.18 25.555-12.293-7.302z"/></clipPath></defs></svg>
