<svg xmlns="http://www.w3.org/2000/svg" width="615" height="168" fill="none"><rect width="615" height="168" fill="#3DC795" rx="31"/><path fill="#233748" d="M191.112 93.472c0-4.437.96-8.384 2.88-11.84 1.92-3.499 4.587-6.208 8-8.128 3.456-1.963 7.36-2.944 11.712-2.944 5.333 0 9.899 1.408 13.696 4.224 3.797 2.816 6.336 6.656 7.616 11.52h-12.032c-.896-1.877-2.176-3.307-3.84-4.288-1.621-.981-3.477-1.472-5.568-1.472-3.371 0-6.101 1.173-8.192 3.52s-3.136 5.483-3.136 9.408 1.045 7.061 3.136 9.408c2.091 2.347 4.821 3.52 8.192 3.52 2.091 0 3.947-.491 5.568-1.472 1.664-.981 2.944-2.411 3.84-4.288h12.032c-1.28 4.864-3.819 8.704-7.616 11.52-3.797 2.773-8.363 4.16-13.696 4.16-4.352 0-8.256-.96-11.712-2.88-3.413-1.963-6.08-4.672-8-8.128-1.92-3.456-2.88-7.403-2.88-11.84Zm66.862 23.04c-3.499 0-6.656-.747-9.472-2.24-2.773-1.493-4.971-3.627-6.592-6.4-1.579-2.773-2.368-6.016-2.368-9.728 0-3.67.811-6.89 2.432-9.664 1.621-2.816 3.84-4.97 6.656-6.464 2.816-1.493 5.973-2.24 9.472-2.24 3.499 0 6.656.747 9.472 2.24 2.816 1.493 5.035 3.648 6.656 6.464 1.621 2.773 2.432 5.995 2.432 9.664 0 3.669-.832 6.912-2.496 9.728-1.621 2.773-3.861 4.907-6.72 6.4-2.816 1.493-5.973 2.24-9.472 2.24Zm0-9.472c2.091 0 3.861-.768 5.312-2.304 1.493-1.536 2.24-3.733 2.24-6.592 0-2.859-.725-5.056-2.176-6.592-1.408-1.536-3.157-2.304-5.248-2.304-2.133 0-3.904.768-5.312 2.304-1.408 1.493-2.112 3.69-2.112 6.592 0 2.859.683 5.056 2.048 6.592 1.408 1.536 3.157 2.304 5.248 2.304Zm35.438-38.4V116h-10.944V68.64h10.944Zm18.875 0V116h-10.944V68.64h10.944Zm5.755 29.44c0-3.67.683-6.89 2.048-9.664 1.408-2.773 3.307-4.907 5.696-6.4 2.389-1.493 5.056-2.24 8-2.24 2.517 0 4.715.512 6.592 1.536 1.92 1.024 3.392 2.368 4.416 4.032v-5.056h10.944V116h-10.944v-5.056c-1.067 1.664-2.56 3.008-4.48 4.032-1.877 1.024-4.075 1.536-6.592 1.536-2.901 0-5.547-.747-7.936-2.24-2.389-1.536-4.288-3.691-5.696-6.464-1.365-2.816-2.048-6.059-2.048-9.728Zm26.752.064c0-2.73-.768-4.885-2.304-6.464-1.493-1.579-3.328-2.368-5.504-2.368-2.176 0-4.032.79-5.568 2.368-1.493 1.536-2.24 3.67-2.24 6.4 0 2.731.747 4.907 2.24 6.528 1.536 1.579 3.392 2.368 5.568 2.368 2.176 0 4.011-.789 5.504-2.368 1.536-1.579 2.304-3.733 2.304-6.464Zm29.806-12.8c1.024-1.664 2.496-3.008 4.416-4.032 1.92-1.024 4.117-1.536 6.592-1.536 2.944 0 5.61.747 8 2.24 2.389 1.493 4.266 3.627 5.632 6.4 1.408 2.773 2.112 5.995 2.112 9.664 0 3.669-.704 6.912-2.112 9.728-1.366 2.773-3.243 4.928-5.632 6.464-2.39 1.493-5.056 2.24-8 2.24-2.518 0-4.715-.491-6.592-1.472-1.878-1.024-3.35-2.368-4.416-4.032V116h-10.944V68.64H374.6v16.704Zm15.616 12.736c0-2.73-.768-4.864-2.304-6.4-1.494-1.579-3.35-2.368-5.568-2.368-2.176 0-4.032.79-5.568 2.368-1.494 1.579-2.24 3.733-2.24 6.464 0 2.731.746 4.885 2.24 6.464 1.536 1.579 3.392 2.368 5.568 2.368 2.176 0 4.032-.789 5.568-2.368 1.536-1.621 2.304-3.797 2.304-6.528Zm49.197-27.008v8.768h-11.904V116h-10.944V79.84h-11.904v-8.768h34.752Zm3.317 27.008c0-3.67.682-6.89 2.048-9.664 1.408-2.773 3.306-4.907 5.696-6.4 2.389-1.493 5.056-2.24 8-2.24 2.517 0 4.714.512 6.592 1.536 1.92 1.024 3.392 2.368 4.416 4.032v-5.056h10.944V116h-10.944v-5.056c-1.067 1.664-2.56 3.008-4.48 4.032-1.878 1.024-4.075 1.536-6.592 1.536-2.902 0-5.547-.747-7.936-2.24-2.39-1.536-4.288-3.691-5.696-6.464-1.366-2.816-2.048-6.059-2.048-9.728Zm26.752.064c0-2.73-.768-4.885-2.304-6.464-1.494-1.579-3.328-2.368-5.504-2.368-2.176 0-4.032.79-5.568 2.368-1.494 1.536-2.24 3.67-2.24 6.4 0 2.731.746 4.907 2.24 6.528 1.536 1.579 3.392 2.368 5.568 2.368 2.176 0 4.01-.789 5.504-2.368 1.536-1.579 2.304-3.733 2.304-6.464Zm33.389 18.368c-3.115 0-5.888-.533-8.32-1.6-2.432-1.067-4.352-2.517-5.76-4.352-1.408-1.877-2.197-3.968-2.368-6.272h10.816c.128 1.237.704 2.24 1.728 3.008 1.024.768 2.283 1.152 3.776 1.152 1.365 0 2.411-.256 3.136-.768.768-.555 1.152-1.259 1.152-2.112 0-1.024-.533-1.771-1.6-2.24-1.067-.512-2.795-1.067-5.184-1.664-2.56-.597-4.693-1.216-6.4-1.856a11.486 11.486 0 0 1-4.416-3.136c-1.237-1.45-1.856-3.392-1.856-5.824 0-2.048.555-3.904 1.664-5.568 1.152-1.707 2.816-3.05 4.992-4.032 2.219-.981 4.843-1.472 7.872-1.472 4.48 0 8 1.11 10.56 3.328 2.603 2.219 4.096 5.163 4.48 8.832h-10.112c-.171-1.237-.725-2.219-1.664-2.944-.896-.725-2.091-1.088-3.584-1.088-1.28 0-2.261.256-2.944.768-.683.47-1.024 1.13-1.024 1.984 0 1.024.533 1.792 1.6 2.304 1.109.512 2.816 1.024 5.12 1.536 2.645.683 4.8 1.365 6.464 2.048 1.664.64 3.115 1.707 4.352 3.2 1.28 1.451 1.941 3.413 1.984 5.888 0 2.091-.597 3.968-1.792 5.632-1.152 1.621-2.837 2.901-5.056 3.84-2.176.939-4.715 1.408-7.616 1.408Zm42.984-.512-10.88-14.976V116h-10.944V68.64h10.944v26.176l10.816-14.528h13.504l-14.848 17.92L559.423 116h-13.568Z"/><g clip-path="url(#a)"><path fill="url(#b)" d="M77.267 54.727c6.852 0 12.407-5.535 12.407-12.363C89.674 35.535 84.12 30 77.267 30c-6.853 0-12.408 5.535-12.408 12.364 0 6.828 5.555 12.363 12.408 12.363Z"/><path fill="#fff" d="M135.708 54.727c6.753 0 12.228-5.535 12.228-12.363 0-6.829-5.475-12.364-12.228-12.364s-12.228 5.535-12.228 12.364c0 6.828 5.475 12.363 12.228 12.363Z"/><path fill="#fff" d="M164.537 71.933c7.585-3.773 10.413-8.49 9.481-17.922H100.069c-3.793 4.716-3.793 14.15.015 17.922h25.194l.36 62.104c8.978 2.454 11.933 2.454 20.859 0V71.933h18.04Z"/><path fill="url(#c)" d="M104.836 71.875s-8.814.31-19.962 0c-11.152-.303-17.096 9.092-17.096 21.443 0 12.347 6.33 22.226 17.185 22.226 10.845 0 12.225-11.933 12.225-11.933 7.88-2.944 10.835-2.944 18.714 0 0 0 1.442 11.465-7.264 19.976-8.693 8.503-17.694 10.396-25.14 10.338-7.46-.054-17.8.119-27.794-10.006C45.696 113.778 44 103.941 44 94.271c0-9.67 1.894-22.472 13.785-32.175 8.066-6.6 16.046-8.085 24.237-8.085h32.319c.416 8.871-1.901 15.043-9.505 17.864Z"/></g><defs><linearGradient id="b" x1="91.278" x2="-9.188" y1="42.759" y2="42.759" gradientUnits="userSpaceOnUse"><stop stop-color="#212F48"/><stop offset="1" stop-color="#B8B8B8"/></linearGradient><linearGradient id="c" x1="99.158" x2="-39.722" y1="93.796" y2="93.796" gradientUnits="userSpaceOnUse"><stop stop-color="#212F48"/><stop offset="1" stop-color="#7E7E7E"/></linearGradient><clipPath id="a"><path fill="#fff" d="M44 30h131v106H44z"/></clipPath></defs></svg>