<svg xmlns="http://www.w3.org/2000/svg" width="490" height="346" fill="none"><g clip-path="url(#a)"><path fill="#233748" d="M278.806 192.09c11.024-4.501 16.314-17.081 11.816-28.098-4.498-11.017-17.081-16.299-28.105-11.798-11.024 4.501-16.314 17.081-11.816 28.097 4.498 11.017 17.081 16.3 28.105 11.799Z"/><path fill="#fff" d="M372.823 153.704c10.864-4.436 16.025-16.963 11.527-27.979-4.498-11.017-16.952-16.353-27.816-11.917-10.864 4.436-16.025 16.963-11.527 27.98 4.498 11.017 16.952 16.352 27.816 11.916Z"/><path fill="#fff" d="M430.535 162.529c9.717-11.07 11.16-20.537 3.447-35.145l-61.008 24.909-57.957 23.663c-2.994 10.101 3.22 25.32 11.831 28.906l40.531-16.548 41.489 99.964c16.06-1.938 20.814-3.879 33.557-13.701l-40.911-100.2 29.021-11.848Z"/><path fill="#233748" d="M334.454 201.648s-13.975 6.289-32.114 13.111c-18.14 6.836-21.513 25.898-13.377 45.826 8.134 19.922 24.823 31.703 42.286 24.573 17.448-7.124 11.807-27.283 11.807-27.283 10.737-9.926 15.491-11.867 30.107-12.292 0 0 9.872 17.551 1.472 37.001-8.382 19.428-21.616 28.395-33.633 33.193-12.036 4.812-28.558 11.883-51.305 2.112-22.78-9.789-31.989-24.547-38.359-40.148-6.369-15.6-11.756-37.5.981-60.966 8.628-15.946 20.487-23.585 33.666-28.965l51.993-21.228c6.513 14.04 6.851 25.52-3.524 35.066Z"/></g><g clip-path="url(#b)"><path fill="#233748" d="M55.73 190.917c8.043 1.403 15.7-3.976 17.102-12.013 1.402-8.038-3.982-15.691-12.024-17.094-8.043-1.403-15.7 3.976-17.101 12.014-1.402 8.037 3.981 15.69 12.024 17.093Z"/><path fill="#fff" d="M124.322 202.881c7.926 1.382 15.488-4.013 16.89-12.051 1.402-8.037-3.887-15.674-11.813-17.056-7.926-1.383-15.488 4.013-16.89 12.05-1.402 8.038 3.887 15.674 11.813 17.057Z"/><path fill="#fff" d="M154.625 229.035c9.678-2.888 13.965-7.861 14.808-19.155l-44.509-7.764-42.283-7.375c-5.42 4.776-7.356 15.879-3.662 21.1l29.57 5.157-12.329 73.176c10.034 4.727 13.502 5.332 24.482 4.271l12.751-73.103 21.172 3.693Z"/><path fill="#233748" d="M84.567 216.745s-10.407-1.44-23.428-4.087c-13.027-2.64-21.932 7.203-24.467 21.741-2.536 14.535 2.864 27.458 15.605 29.68 12.729 2.22 16.799-11.543 16.799-11.543 9.852-1.853 13.32-1.248 21.964 3.831 0 0-.661 13.791-12.627 22.026-11.948 8.23-22.902 8.616-31.629 7.023-8.744-1.591-20.917-3.504-30.567-17.468-9.664-13.985-9.635-25.913-7.65-37.294 1.986-11.382 6.837-26.064 22.785-35.052 10.822-6.117 20.493-6.232 30.108-4.555l37.932 6.616c-1.333 10.528-5.32 17.318-14.825 19.082Z"/></g><g clip-path="url(#c)"><path fill="#233748" d="M66.744 43.316c4.51-1.893 6.633-7.08 4.742-11.588-1.892-4.507-7.081-6.627-11.591-4.734-4.51 1.893-6.633 7.08-4.742 11.588 1.892 4.507 7.081 6.627 11.591 4.734Z"/><path fill="#fff" d="M105.208 27.174c4.445-1.865 6.514-7.03 4.623-11.538-1.892-4.507-7.028-6.649-11.473-4.784-4.444 1.866-6.514 7.032-4.623 11.539 1.892 4.507 7.028 6.649 11.473 4.783Z"/><path fill="#fff" d="M128.948 30.569c3.947-4.586 4.502-8.48 1.275-14.449l-24.959 10.474-23.71 9.95c-1.19 4.162 1.423 10.388 4.974 11.827l16.582-6.959 17.44 40.894c6.588-.86 8.533-1.677 13.728-5.761L117.075 35.55l11.873-4.982Z"/><path fill="#233748" d="M89.639 47.02s-5.715 2.639-13.138 5.513c-7.424 2.88-8.733 10.724-5.312 18.876 3.42 8.15 10.322 12.923 17.467 9.925 7.137-2.996 4.74-11.253 4.74-11.253 4.37-4.12 6.316-4.937 12.317-5.17 0 0 4.125 7.17.753 15.192-3.366 8.014-8.766 11.75-13.682 13.768-4.925 2.025-11.683 4.995-21.065 1.073-9.396-3.93-13.237-9.955-15.916-16.338-2.678-6.382-4.978-15.356.16-25.045 3.48-6.584 8.321-9.769 13.712-12.032l21.271-8.926c2.732 5.74 2.916 10.455-1.307 14.417Z"/></g><g clip-path="url(#d)"><path fill="#233748" d="M279.426 20.528c5.649 0 10.229-4.595 10.229-10.264S285.075 0 279.426 0c-5.649 0-10.229 4.595-10.229 10.264s4.58 10.264 10.229 10.264Z"/><path fill="#fff" d="M327.607 20.528c5.567 0 10.081-4.595 10.081-10.264S333.174 0 327.607 0c-5.568 0-10.081 4.595-10.081 10.264s4.513 10.264 10.081 10.264Z"/><path fill="#fff" d="M351.374 34.813c6.253-3.133 8.584-7.048 7.816-14.88h-60.965c-3.127 3.916-3.127 11.747.013 14.88h20.77l.297 51.557c7.402 2.037 9.838 2.037 17.196 0V34.812h14.873Z"/><path fill="#233748" d="M302.155 34.764s-7.266.257-16.457 0c-9.194-.252-14.094 7.548-14.094 17.802 0 10.25 5.217 18.451 14.167 18.451 8.941 0 10.079-9.906 10.079-9.906 6.496-2.444 8.932-2.444 15.428 0 0 0 1.189 9.518-5.989 16.584-7.166 7.059-14.587 8.63-20.726 8.582-6.15-.044-14.675.099-22.914-8.306C253.398 69.55 252 61.384 252 53.357c0-8.027 1.561-18.656 11.365-26.711 6.649-5.48 13.228-6.713 19.982-6.713h26.644c.343 7.365-1.567 12.49-7.836 14.831Z"/></g><defs><clipPath id="a"><path fill="#fff" d="m209 174.044 210.745-86.045 69.827 171.024-210.745 86.044z"/></clipPath><clipPath id="b"><path fill="#fff" d="m21.763 155 153.752 26.818-21.763 124.772L0 279.772z"/></clipPath><clipPath id="c"><path fill="#fff" d="M38 36.182 124.219 0l29.362 69.967-86.218 36.183z"/></clipPath><clipPath id="d"><path fill="#fff" d="M252 0h108v88H252z"/></clipPath></defs></svg>
