<svg xmlns="http://www.w3.org/2000/svg" width="125" height="101" viewBox="0 0 125 101" fill="none"><g fill="#fff" clip-path="url(#a)"><path d="M31.743 23.561c6.539 0 11.84-5.274 11.84-11.78C43.582 5.274 38.281 0 31.742 0s-11.84 5.274-11.84 11.78c0 6.507 5.301 11.781 11.84 11.781ZM87.507 23.561c6.444 0 11.668-5.274 11.668-11.78C99.175 5.274 93.951 0 87.507 0 81.064 0 75.84 5.274 75.84 11.78c0 6.507 5.224 11.781 11.667 11.781Z"/><path d="M115.016 39.955c7.238-3.595 9.936-8.089 9.047-17.077H53.501c-3.619 4.494-3.619 13.482.015 17.077h24.04l.343 59.175c8.567 2.338 11.387 2.338 19.904 0V39.955h17.213Z"/><path d="M58.05 39.9s-8.41.295-19.048 0c-10.641-.29-16.313 8.663-16.313 20.431 0 11.765 6.04 21.178 16.398 21.178 10.348 0 11.665-11.37 11.665-11.37 7.519-2.806 10.338-2.806 17.857 0 0 0 1.376 10.924-6.931 19.033-8.295 8.102-16.884 9.906-23.99 9.851-7.117-.051-16.984.113-26.52-9.534C1.618 79.826 0 70.453 0 61.24c0-9.213 1.807-21.411 13.153-30.657 7.697-6.288 15.311-7.704 23.128-7.704H67.12c.397 8.453-1.814 14.334-9.07 17.022Z"/></g><defs><clipPath id="a"><path fill="#fff" d="M0 0h125v101H0z"/></clipPath></defs></svg>
